<svg version="1.2" xmlns="http://www.w3.org/2000/svg" viewBox="0 0 6500 3500" width="6500" height="3500">
	<title>vecteezy_silhouette-of-coral-reef-with-fish-on-blue-sea-background_14719449-ai</title>
	<style>
		.s0 { fill: #00293d } 
	</style>
	<g id="_Artboards_">
	</g>
	<g id="Layer 1">
		<path id="&lt;Path&gt;" class="s0" d="m6500 2623.7v866.6q-2.7 4.9-5.5 9.7h-6494.5v-1411.4c14.3 33.8 31.1 66.5 50.2 97.8 21.2 34.7 45.5 68.3 58 107 12.6 38.7 11.4 84.9-15.1 115.7q60.5 94.7 121 189.5c14.4 22.4 29 45.7 33.7 71.9 5.5 31.4-3.9 64.1 1.6 95.5 5.5 31.4 38.5 62.6 66.6 47.7-9.4 99.1 57.3 200.2 183.6 222.6-9.4 34.5-7.2 73.8 13.7 102.8 20.8 29.1 62.9 43.7 94.5 26.8 22-11.8 34.7-35.2 51-54.2 16.2-19 42.3-35 65.2-24.9 29.6 13.1 29.1 57.4 53.3 79 23.1 20.6 58.7 13.2 89.2 7.7 119.6-21.7 247.4 6.5 411.9 76.8 17.4-23.9 56.1-9.5 76.9 11.5 20.8 21 41.3 49.1 70.9 48.6 13-0.2 25.1-6.3 37.6-9.9 50.5-14.6 109.7 16.9 184 70 34.3-41.6 70.1-84.3 118.2-108.5 48.1-24.2 112.3-25.1 150.9 12.5 84-15.2 168.1-30.5 287.4-46.6q16.2-24.2 32.4-48.3 46.1-68.9 92.3-137.7c11-16.5 22.6-33.5 39.4-44.1 39.9-25.2 101.5-9.8 130.7-46.9 25-31.6 8-79.4 23-116.7 15.7-39.1 60.7-55.9 101-68.4 88.6-27.7 182-55.6 313.6-28.4 53.7 18.3 104.4 45.3 149.7 79.4q-3 27.9-6 55.8c42.5-22.5 92.6-28.8 145.1-17.8 43 9.1 87.5 29.8 130.9 62.7 48.5 37.9 83.4 92.9 97 152.9q54.8 5.6 109.6 11.2-20.4 37.1-40.7 74.2c48.3-28.5 120.6 9.2 125 65.1 1.7 22.7-5.7 46.1 1.3 67.7 7.1 21.6 41 34.7 79.7 16.3 79.4 8.1 161.6-14.8 225.4-62.7-13.6 21.4 8.4 50.4 33.3 55.2 24.9 4.8 49.8-5.4 74.4-11.4 63.4-15.4 133.3-2.2 211.5 9.1 44.4-10.1 89.8-20.7 127.7-46 37.8-25.2 67-68.8 61.9-114-2.2-20-10.9-39-12.4-59-3-38.6 21.3-75.1 52.9-97.4 31.5-22.3 69.5-33.1 106.7-43.6-57.8-80.6-18.9-211.4 93.3-280.1q-3.3-65.4-6.6-130.9-1-20.7-2.1-41.3c41.8-24.5 90.2-37.5 138.6-37.2 19.3-55.1 94.7-68.6 149.5-48.4 51.1 18.9 92.4 57 139.8 83.8q5.2 2.9 10.4 5.6c145.1 74.8 333.3 18.3 500.9 132.8 77.8-85.9 185-144.7 299.2-164.4 4.9 62.4 77 109.6 117.9 99.7q-10.4 94.3-20.7 188.6c-1.9 16.9-1.9 37.8 12.9 46.4 23.7 13.8 54-21.3 78.7-9.4 27.1 13.2 7 54.4 12 84.2 5.8 35.3 55 50.3 85.5 31.5 30.5-18.8 42-58.9 38-94.5-3-26.3-12.8-51.4-15.9-77.6-3.1-26.3 2.4-56 23.5-71.9 14-10.6 32.4-13 49.8-15.2 62.8-7.7 125.5-15.4 185.6-13.1z"/>
		<g id="&lt;Group&gt;">
			<g id="&lt;Group&gt;">
			</g>
			<g id="&lt;Group&gt;">
			</g>
			<g id="&lt;Group&gt;">
			</g>
		</g>
		<g id="&lt;Group&gt;">
		</g>
		<path id="&lt;Path&gt;" class="s0" d="m5895 2517.8c-18.3-29.7-36.9-59.7-62.2-83.8-25.2-24-58.3-41.9-93.2-41.6-15.5 0.1-31.9 3.5-46-3.1-14-6.6-22.3-23.5-19-38.6 1.3-6 5.4-12.4 11.5-12.7 6.2-0.3 10.6 5.5 14.7 10.2 11.3 13 28 21.2 47.1 23.3-26.4-20.4-49.4-48.4-53.6-81.4-0.9-7.3-0.8-15 2.5-21.6 1.1-2.2 2.8-4.4 5.2-4.7 3.8-0.6 6.6 3.5 8.2 7 5.9 13.4 9.9 27.5 15.6 41 5.6 13.5 13.3 26.6 25.7 39.1 0.1-18.3 8.9-35.6 9.6-53.8 0.7-16.3-5.1-32.2-11.6-47.1-3.8-8.7-8-18.3-5.2-27.3 0.4-1.3 1-2.7 2.1-3.4 2.3-1.5 5.3 0.2 7.4 1.9 16.1 13.8 20.7 37 20.4 58.2-0.2 21.2-4.1 42.6-1.6 60.9 8.7 12.7 17.6 25.5 29.6 35.2 10.5 8.5 23.2 14.2 36.5 16.5-6.4-1.5-11.4-6.5-15.5-11.6-14.5-18.1-23-40.9-23.9-64.1-0.1-2.7-0.1-5.6 1.2-8 1.3-2.4 4.2-4.2 6.8-3.3 1.6 0.6 2.8 2.2 3.7 3.6 17.6 25.9 25.7 58.1 48.5 79.8-6.1-29.4 6.7-59.1 19.2-86.3-8.2-2.4-14-9.7-19.1-16.6-17.7-23.4-36.3-50.1-32.7-79.3 0.5-3.5 2.6-7.9 6.1-7.1 1.3 0.3 2.3 1.3 3.1 2.3 4.6 6.1 5.5 14.2 7.3 21.7 3.8 14.7 12.3 28.2 22.3 40.6 8.7-17.8 13.5-37.5 14-57.3 0.1-1.4 0.2-3 1.3-3.8 2.1-1.5 4.7 1.3 5.7 3.8 8.4 21.1 6.9 44.7 5.3 70.1q-3 4.1-6 8.2c3.9 3 7.7 6.2 10.7 13.5 0.6-9.6 7.1-17.8 14.3-24.3 7.1-6.5 15.3-12.1 21-19.8 8-10.9 10.3-24.9 10.6-38.3 0.2-13.5-1.4-26.9-0.5-40.4 5.5 3.3 9.9 8.3 12.7 14.2 5 21 9.7 44.4-0.8 63.2-5.6 10-14.9 17.4-22.7 25.7-7.9 8.4-14.7 19.1-15.8 32.3q1.2 5.7 2.4 11.3c-2.7-12.9 9.7-23.5 21-30.2 11.3-6.7 24.5-14.9 25.2-28 7.9 7.7 7.8 20.8 3.1 30.7-4.6 10-12.9 17.7-20.4 25.8-11.1 11.9-20.8 25.1-28.9 39.3-7.9 13.8-14.3 28.7-16.4 44.5-2 15.8 0.6 32.5 9.5 46 14.9-27.8 33.3-53.8 54.5-77.1 2.3-2.5 4.6-5 5.2-8.3 0.5-2.2 0.1-4.5-0.4-6.8-2.1-10.4-4.7-20.8-4.2-31.4 0.4-10.6 4.6-21.7 13.4-27.6-1.7 11.6-0.5 23.5 4.1 41.3 6.7-21.9 22.8-39.4 37-57.4 14.2-18 27.4-39 26.4-61.9-0.2-3.5-0.7-7.1 0.3-10.4 0.9-3.4 3.8-6.5 7.3-6.4 4.5 0.2 7 5.2 8.1 9.5 6.5 25.5-2.3 52.6-16 75.1-13.6 22.5-31.8 41.8-45.5 67.3 6.5-12.3 20-19.1 33.3-22.9 13.3-3.9 27.3-5.4 40-10.9 24.2-10.3 41.5-35.1 42.8-61.4 0.4-8.4-0.7-16.9 0.5-25.2 1.2-8.4 5.4-17 13.1-20.4 6.2 19.3 7.9 40.1 4.7 62.6 6.7-1.9 12.5-6.8 15.6-13.1 1.5-3.1 3.3-7.3 6.8-7.1 1.1 0 2.2 0.6 3.1 1.3 6.4 4.8 6.3 15 1.8 21.5-4.5 6.6-12.1 10.3-19.4 13.4-7.3 3.1-15.1 5.9-20.8 11.5-4.7 4.6-7.6 10.6-11.8 15.6-14 16.5-38.2 18.3-58.5 25.7-26.8 9.7-48 30.2-68.4 50.2-16 15.6-33 33.4-33.6 58.3 22.5-17 52-20.5 79.9-25 27.9-4.4 57.7-11.6 75.9-33.2 10.1-11.9 16.1-27.7 29-36.5 7.9 5.1 8.8 16.6 6.1 25.6-3.8 12.5-12.8 22.9-23.3 30.7-10.5 7.8-22.6 13.3-40.2 22.4 8.1 1.6 16.2 2.4 24.4 2.7 2.6 0 5.1 0 7.5-0.8 3.3-1.1 5.9-3.5 8.4-6 3.9-3.7 7.8-7.5 10.6-12.1 1.4-2.3 3-5.1 5.7-5.4 2.7-0.3 5 2.4 5.3 5.2 0.3 2.7-0.9 5.3-2 7.8q-2.8 6.4-5.6 12.7c-1.8 4.2-3.9 8.6-7.8 10.8-6 3.4-13.4 0.3-20.3-0.6-5.3-0.7-10.6 0-15.9-0.1-12.5-0.3-24.8-4.9-33.4-13.5-43.8 4-82.8 27.9-119.9 51.3-7.4 4.6-15 9.4-19.7 16.7-4.2 6.3-7.3 15.3-20.1 9.9z"/>
		<path id="&lt;Path&gt;" class="s0" d="m1248.2 3253.4c-26.9 1.8-53.9-16.4-62.3-42-4.3-13.1-4.2-27.3-9-40.2-0.3-0.9-0.7-1.8-1.5-2.4-1.2-0.8-2.8-0.3-4.2 0.2-10.4 3.8-20.2 9.9-31.3 10.8-11 1-24-6.1-24-17.1 0-3.2 2.1-7 5.2-6.5 0.9 0.2 1.8 0.7 2.6 1.3 5.7 3.9 11.4 7.9 21.7 11.3-2.3-4.7-3.7-9.7-4.2-14.9-0.1-1.6-0.1-3.5 1.2-4.6 1.9-1.7 5 0 6.4 2.2 1.3 2.2 1.8 5 3.6 6.8 4.4 4.3 11.6 0.4 16.3-3.6-4.6-4.3-8-9.9-9.7-16-1-3.4-1.5-7.1-3.5-10.1-1.5-2.3-3.8-4.1-6.1-5.5-18.9-11.1-46.1-5-61.4-20.7-5.8-5.9-8.8-14.4-8.1-22.6 0.1-0.9 0.3-1.8 0.9-2.5 1.6-1.8 4.5 0.1 6.1 1.9 5 5.4 10 10.9 16.9 16.5-1.9-3.7-3.8-7.6-3.6-11.8 0.3-4.2 3.6-8.5 7.8-8.2 6.6 0.5 7.6 10.3 12.8 14.5 2 1.7 4.7 2.4 7.3 3.1q10.4 2.7 20.8 5.4c-9.4-8.9-12-22.6-18.4-33.7-6.3-10.8-16.5-19.3-28.3-23.6-7.8-2.8-18-3.1-23 3.6-2.6 3.6-3.3 8.6-6.9 11.2-3.2 2.4-7.7 1.8-11.6 1.2-5-0.8-11.4-3.3-10.7-8.3 0.5-3.7 4.8-5.5 9.8-6.9-8.4 0.5-17.3 1-25.1-2.5-4.8-2.2-9.1-6.2-10-11.4-1-5.2 2.7-11.2 7.9-11.5 3.5-0.2 6.7 1.9 10 3.2 5.4 2 11.3 1.5 17.1 1.7 5.8 0.3 12 1.7 19.2 7.4-7.2-11.4-20.1-17.4-30.8-25.7-10.6-8.2-19.8-22.1-14.7-34.5 9.5 6.1 17 15.2 21.2 25.7-1.7-3.3-3.6-6.7-3.8-10.4-0.3-3.7 1.5-7.9 5-9.1 4.7-1.7 9.6 2.4 11.5 7 2 4.5 2.4 9.7 4.7 14.1 7.9 14.6 32.4 11.9 41.2 26-2.9-3.2-6-6.6-6.8-10.8-0.8-4.3 1.8-9.5 6.1-9.8 5.9-0.3 8.4 7.2 9.7 13 5.8 24.3 24.7 43.5 33.1 67.2 7.7 22 6.9 48.7 20.7 63.4-4.1-9.9-2.2-22.2 4.9-30.3 4 8.2 5.6 17.4 4.6 26.4-1.4-8 4.9-16.6 13-17.8 4.7 6.1 1.8 14.8-0.1 22.2-4.3 17.4-1.8 36.3 6.9 51.8 8.8 15.6 23.6 27.6 40.6 33-4.8-1.3-4.4-8.2-3-13 3.1-10.4 6.3-20.8 11.2-29.9-8.2-3.2-16.6-6.5-23.2-12.3-6.7-5.8-11.2-14.8-9.4-23.4 6.2 3.9 12 8.4 17.4 13.3-1.5-4.3-5.4-7.4-7.6-11.5-2.1-4.1-1-10.7 3.6-11.1 4-0.3 6.4 4.1 8.1 7.8 4.4 9.2 11.1 17.3 19.4 23.3-4.7-11.6 1.2-26.1-5.7-36.5-2.6-3.9-6.6-6.6-9.8-10-9.2-9.6-11-23.9-13.1-37-2.1-13.2-5.8-27.6-17-34.8-3.7-2.4-8-3.9-11.7-6.2-8-5.1-12.9-14.8-12.3-24.3 0.1-1.9 0.6-4.2 2.4-4.9 3.3-1.4 5.6 3.1 7.1 6.3 3 6.4 9.6 10.9 19.7 13.5-19.9-17.5-25.9-46.4-24.2-72.8 0.3-3.6 0.6-7.3-0.7-10.7-1.5-4.1-5.2-6.9-7.9-10.4-3.6-4.8-5.3-10.9-4.8-16.8 0.3-3.9 3-8.6 6.9-8 2.6 0.5 4.1 3.2 5.3 5.6 4.6 9.6 9.3 19.2 16.3 31.3 1.2-7.8 4.6-15.3 9.8-21.3 4.7 3.4 5.9 10.1 4.9 15.9-1 5.7-3.8 11-5.7 16.5-5.8 17-2.1 36.9 11.8 55.7-4.2-8.6-8.2-18.4-4.9-27.3 1-2.7 2.8-5.2 5.5-6 4.1-1.2 8.3 2.3 9.6 6.4 1.2 4 0.5 8.4 0 12.6-1.5 14.4 0.8 28.9 3 43.2 1 6.3 2 12.5 1 23.1 6.5-8.2 10.9-18.1 12.7-28.3 1.3-7.7 1.8-16.7 8.1-21.3 2.1 5.5 3.7 11.1 4.5 16.9 2.9-12.7 7.9-24.9 14.7-35.9 1-1.6 2.1-3.2 3.8-4 3.9-1.7 8 2.1 9.9 5.9 4.1 8.6 3.6 19-0.2 27.8-3.8 8.8-10.6 16-18.4 21.5-4.1 2.9-8.5 5.4-12 9.1-10.3 10.6-9.6 27.9-5 42-1.4-4.3 3.4-8.7 7.8-8 4.4 0.8 7.4 5.3 7.7 9.8 0.2 4.5-1.7 8.8-4 12.6-2.3 3.8-5.2 7.3-6 15.2 6.2 2.3 11 7.8 12.4 14.2 3.5 15.4-11.6 29.1-12.7 44.8 0.4-3.7 6.7-4 8.5-0.7 1.8 3.3 0.1 7.5-2.5 10.3-2.6 2.8-5.9 4.7-8.4 7.6-4.5 5.4-5.1 13.2-3.8 20.1 9.8-17 22.6-32.4 37.5-45.1 6.4-5.4 13.8-11.4 14.2-19.8 0.3-7.3-4.9-13.4-7.8-20.1-2.8-6.5-3.6-14-2-21 0.3-1.4 0.8-2.8 2.1-3.4 1.4-0.6 3 0.2 4.3 1 4.7 3.3 8.7 7.6 17.7 14.9-8.2-12.2-9.5-28.8-3.1-42 2.3-4.9 5.7-10.1 4.3-15.3-2.2-8.2-15.3-11.8-14.2-20.2 0.8-6.4 11.8-7.4 13.7-1.3-2.6-3-5.3-6.2-6-10.2-0.6-3.9 1.9-8.6 5.9-8.8 4.5-0.2 7.2 4.7 8.7 8.9q4.8 12.6 9.5 25.1 0.1-29.2 0.1-58.5c0-3.2 0-6.6-1.3-9.7-1.5-3.5-4.6-6-7.1-8.8-8.8-9.8-11.7-24.5-7.2-36.9q8.5 10.6 16.9 21.2c-4.1-7.3-2.3-17.3 4.1-22.8 2.9-2.5 6.6-4.1 9.7-6.5 10-8.1 10.2-22.8 11-35.5 0.2-1.8 0.3-3.5 1.2-5 2.3-3.7 8.3-3.4 11.4-0.2 3.1 3.1 3.8 7.8 4 12.2 0.7 20.4-7.9 39.7-15 58.8-7.2 19.1-12.9 40.3-6.4 59.6-3.8-9.6-0.2-21.5 8.2-27.5 6.5 3.3 8.9 11.7 7.7 18.8-1.3 7.2-5.5 13.5-9.3 19.7-21.1 33.9-36 71.7-43.5 110.9 4.8-1.3 5.8-8.1 10.1-10.5 4.5-2.4 10.5 1.8 11.1 6.8 0.7 5.1-2.6 10-6.8 12.9-4.2 2.9-9.2 4.4-13.9 6.3-19.7 7.8-35.8 23.9-45 46.1 7.5-11.8 21.3-18.1 34.9-21.7 13.5-3.7 27.7-5.4 40.5-11.1 12.8-5.8 24.4-17 25.5-31 0.4-4.7-0.4-9.4 0.1-14.1 0.6-4.6 3.1-9.6 7.5-11 7.4-2.3 13.9 6.2 14.8 13.9 0.9 7.6-0.9 15.8 2.4 22.8 5.5-14.7 9.5-30 11.6-45.5 1.3-9.2 1.9-19.1-2.6-27.3-1.9-3.5-4.8-6.8-5-10.8-0.5-8 8.9-12.4 16.7-14.6q5 10.3 10.1 20.6 12.5-23.2 24.9-46.4c3.1-5.6 5.3-14.1-0.3-17.1-2.8-1.5-6.3-0.7-9.2-2-5.9-2.7-4.6-11.5-1.8-17.4q4.4 4 8.8 8c-10.5-9.8-15.9-24.8-14.1-39 0.5-3.3 2.6-7.4 5.8-6.5 1.5 0.4 2.5 1.9 3.2 3.3 4.4 8.1 7.3 17 8.6 26.1 7.8-18.5-6.6-39.3-4.2-59.2 0.5-4.3 3.5-9.4 7.7-8.4 3.1 0.8 4.2 4.6 4.8 7.8 3.6 20.3 6.5 40.8 6.3 67.6q6.3-12.3 12.6-24.6c4.2 8.1 1.8 18.2-2.4 26.3-4.2 8.1-10.1 15.4-13.2 24-4.7 12.8-2.9 27.1-5.6 40.4-3.3 15.8-12.8 29.5-22.1 42.7q10-7.5 20.3-14.5c3.3 13.5-5.6 26.9-15.4 36.7-9.8 9.8-21.5 18.8-26.1 31.9-1.2 3.5-1.9 7.2-3.9 10.3-5.3 8.5-17.1 9.3-27.1 10.1-3.4 0.3-7.8 2.3-6.8 5.4 2.8 2.3 6.7 3.2 10.2 2.3q1.7 2.6 3.4 5.3c5.2-5.3 11-11 18.4-11.6 7.4-0.6 15.4 7.4 11.7 13.9-2.5 4.5-8.5 5.3-13.6 5.6-9.5 0.6-19.1 1.1-28.5 0.1-7.4-0.8-14.7-2.5-22-3.2-38-3.2-71.3 22.6-105.9 38.5-3.4 1.5-8.2 2.5-22.6-3.7z"/>
		<g id="&lt;Group&gt;">
		</g>
		<g id="&lt;Group&gt;">
			<g id="&lt;Group&gt;">
			</g>
		</g>
		<path id="&lt;Path&gt;" class="s0" d="m1835.2 3283c-13.6-11.7-39.2-0.1-50.3-14.2-4.3-5.4-4.9-13.3-10-17.9-9.7-8.8-27 0.9-37.8-6.5-5.6-3.9-7.5-11.1-9.8-17.6-2.3-6.4-6.4-13.4-13.2-14.3-4.6-0.6-9.2 1.7-13.7 1-7.2-1.3-10.6-9.5-12.2-16.6-1.7-7.1-3.4-15.4-9.9-18.8-6.5-3.4-15.7-0.5-20.8-5.8-3.1-3.3-3.2-8.3-3.9-12.8-0.7-4.5-3.1-9.7-7.6-10.1-3-0.3-5.9 1.6-8.8 1-3.6-0.8-5.2-5.2-4.9-8.9 0.4-3.7 2.1-7.1 2.5-10.8 1.5-12.9-12.6-22.5-15.3-35.3-2.7-12.9 6.7-25.1 8.5-38.1 1.1-9-1.3-18.1-0.1-27 1.2-8.9 8.5-18.4 19.9-15.7-2 10-4 20.1-3.2 30.3 0.8 10.1 4.7 20.4 12.6 26.8 7.3 5.9 17.7 8.3 22.8 16.2 8 12.6-2.5 30.6 4.8 43.6 7.7 13.5 29.5 13 37.3 26.4 5.8 9.8 2.8 25.3 13 30.4 4.4 2.2 9.7 1.3 14.6 1.8 9.7 1.1 18.4 8.5 21 17.9 1.3 5 1.3 10.7 4.7 14.5 6 6.7 18.2 3 24.8 9.2 5.7 5.3 4.2 15.6 9.9 21.1 4 3.7 10.1 3.8 15.6 4.2 16.9 0.9 33.2 6 49.3 11.1-4.5-8-14.8-10-23.6-12.7-8.8-2.8-18.5-9.5-15.1-20.7-19.6 2.4-38.5-17.3-35.3-36.7 0.3-2.4 1-4.9-0.3-7-1.9-3.3-6.8-2.6-10.7-2.5-8.6 0.1-16.9-5.7-19.7-13.8-3.4-9.7-0.1-22.6-8.3-28.8-5-3.6-13-3.7-15.4-9.3-2.7-6.4 4.8-13.8 2.1-20.2-0.9-2-2.7-3.5-4.2-5.1-5.8-6-8.6-14.5-7.6-22.7 0.7-5.5 3-11 1.5-16.3-1.8-7.1-9.7-11.3-12-18.3-4.3-13.1 12.6-24.1 13.7-37.8 1-12.4-11.2-23.2-9.9-35.5 1.2-11.4 13.3-19.4 14.2-30.8 0.3-5.1-1.6-10-2.4-15-0.9-5.1-0.1-11.1 4.2-13.9 3.1-2 7.9-2.1 9.7-5.5 1.5-2.8-0.1-6.2-0.3-9.5-0.6-10.4 12.2-15.3 22.2-18.2 15-4.4 29.4-11.2 45.5-17.9-1.8 12.7-11.6 22.7-21.6 30.7-10 8.1-21.1 15.5-27.4 26.7-1.6 2.9-2.9 6.3-2.4 9.6 0.5 3.3 2.6 6 4.2 9 5.1 9.3 4.6 21.4-1.4 30.3 6.9 0 13 5.4 15 12 2 6.5 0.4 13.8-3.1 19.7-2.8 4.6-6.6 8.6-8.9 13.4-2.4 4.9-2.8 11.3 1 15.1 2.2 2.3 5.5 3.2 8.1 5 6.1 4.3 7.6 12.9 6.1 20.2-1.5 7.3-5.3 13.9-8 20.9-0.6 1.6-1.2 3.5-0.8 5.2 0.9 3.7 5.3 4.9 8.7 6.6 6.8 3.4 10.9 11.5 9.6 19-0.7 4-2.7 8-1.8 11.9 2 8 13.4 8.3 19.8 13.5 8 6.5 6.5 19.1 3.5 29-1.4 4.4-2.8 9.3-0.8 13.4 1.1 2.1 2.9 3.7 4.7 5 12 8.7 29.7 13.5 32.8 28 0.9 4.2 0.2 8.6 0.8 12.9 1 6.8 5.4 13.1 15.8 18.7-9.1-10.5-13-26.6-5.9-38.5 5.8-9.7 18.4-17.1 17-28.3-1-7.7-8.6-13-10.8-20.5-3.4-11.4 6.8-21.9 14.2-31.2 6.4-8 11.4-17.1 14.6-26.8 1.9-5.7 3.2-12 0.9-17.4-3.9-9.6-16.8-12.8-20.9-22.3-5-11.7 6.3-25.4 2.4-37.5-3.3-10.1-15.8-14.9-19.4-24.9-4.4-12.3 6.7-24.3 16.6-32.9 10-8.5 20.9-20.9 16-33.1-1.9-4.6-5.8-8-8.8-12-11.9-15-11.1-37.4-1.7-54.1 9.4-16.7 26-28.3 43.5-35.9-10.6 8.8-19.1 20.8-21.7 34.4-2.6 13.6 1.3 28.8 11.6 38.1 5.5 5 12.9 8.6 15.6 15.5 3.2 8.4-1.9 17.4-6.4 25.1-4.6 7.7-8.8 17.6-4.1 25.2 4.4 7 15.6 11.7 8.9 23.2 7.3 5.4 6.9 16.9 2.5 24.9-4.3 8-11.6 14-16.9 21.5-1.3 1.8-2.6 3.9-2.9 6.2-0.6 4.7 2.9 8.8 5.5 12.8 8.4 12.9 9.3 30.4 2.1 44.1-3.3 6.1-8.2 13.1-5.1 19.4 1.4 2.7 4 4.5 6.1 6.6 7.4 7.6 8.4 20.5 2.4 29.1-5.1 7.4-14.4 11.6-17.8 19.8-2.9 6.8-1 14.5-1 21.8 0.3 19.9-12.4 37.6-22.4 53.6 10-5.3 18.2-13.9 23-24.2 2.9-6.4 4.9-13.8 10.7-17.8 6.4-4.3 15.5-2.9 21.6-7.7 8.4-6.6 5.6-20 9.6-29.9 5.9-14.4 25.2-19.1 32.2-33 8.5-16.5-3.1-41 11-53.1 5.1-4.3 12.4-5.6 17.2-10.3 10.4-10.3 2.8-29.6 11.2-41.6 6.9-10 24-13.9 23.8-26.1 0-4.4-2.7-8.4-3.8-12.7-2.7-11.2 5.6-21.7 11.8-31.4 8.9-13.9 14.3-30 15.5-46.5 8.5 18 9.9 39.3 3.7 58.3-1.9 5.9-4.6 11.7-4.9 18-0.8 16.1 14.1 29.4 15.2 45.5 0.7 10.5-4.6 20.5-11 28.8-6.5 8.2-14.3 15.5-20.1 24.3-1.6 2.4-3 5.2-2.9 8.1 0.2 4.1 3.3 7.3 5.1 11 5.9 12.1-3.7 26.1-14.2 34.6-10.5 8.5-23.4 16.3-26.6 29.4-2.5 9.8 1.2 20.5-2.2 30.1-6 16.8-28.9 19.6-41.5 32.3-5.7 5.7-9 13.3-14 19.7-12.3 15.4-32.6 21.4-51.5 26.6-23.7 6.5-52.8 18-75-1z"/>
		<path id="&lt;Path&gt;" class="s0" d="m4916.5 2332.7q-5.5 54.2-11.1 108.5c-0.3 3.2-0.5 6.9 1.6 9.4 1.8 2.1 4.9 2.7 7.7 3.3 22.5 4.5 44.2 13.5 63.2 26.5 5.6 3.7 11.4 8.9 11 15.6-0.4 6.5-6.6 10.9-12.3 14-28.7 15.6-61.2 24.2-93.8 24.7-8.2 0.1-17.3-0.6-23.3-6.2-9.5-8.7-6.9-23.9-4.7-36.6 5.2-28.5 5-57.7 4.7-86.7-0.3-44.1-0.7-88.2 1.4-134.4q-40-34-80.6-67.2c-7.7-6.3-16.1-12.9-26-13.6-7.3-0.5-14.3 2.1-21.2 4.3-40.5 12.4-87.9 5.8-119.5-22.4-4.6-4.1-9-8.8-10.8-14.7-1.9-5.8-0.5-13.1 4.6-16.6 3.8-2.6 8.9-2.6 13.5-1.5 9.3 2.2 17.1 8.3 25.8 12.3 8.7 3.9 20 5.3 33.5-0.4q-20.3-33.6-40.6-67.3c-12.4-20.5-24.9-41.3-31.3-64.4-6.3-23.1-5.8-49.2 6.8-69.6 2.7-4.3 7.1-8.8 12.1-7.7 4.8 1 7 6.4 8.4 11.1q15.1 48.6 30.1 97.3c-6.2-15-7.4-32.1-3.3-47.9 3-11.5 12.4-24.2 24-21.5 13.3 3.1 14.4 21.5 12.1 35-3.5 19.8-7.6 40.1-3.8 59.8 4.5 22.9 19.4 42.7 37.6 57.4 18.1 14.7 39.3 24.9 60.3 35.1 23.3 11.2 46.6 22.5 79.5 40-11.6-29-9.5-61.3-9.8-92.4-0.2-31.2-3.8-64.6-24-88.4-10.5-12.5-24.8-21.3-38.4-30.3-36.6-24.3-71.3-53.2-93.9-90.9-10.4-17.5-18.2-37.8-15.1-57.9 1.8-12.3 11.1-25.8 23.5-24 8.6 1.2 14.4 9.3 18.7 17 16.5 29.8 28.8 66.2 59.8 80.4-8.7-9.8-15.6-21.9-16.5-35-1-13.1 4.7-27.2 16.2-33.7 2.2-1.3 4.7-2.3 7.2-1.6 2.3 0.6 4.1 2.5 5.6 4.4 10.1 13.4 12.6 30.9 17.9 46.9 8 24.4 23.2 46.5 43.2 62.8-18.7-30.1-22.9-68.8-11-102.2 3.4-9.5 10.3-20 20.3-19.3 12.8 0.9 16.4 17.9 16.4 30.7-0.3 55-2.2 109.9-5.7 164.8-2.4 37.6-5.4 76.6 5.3 124.5q15.9-21.4 31.7-42.7c3.9-5.2 7.8-10.5 9.3-16.8 3.3-13.7-5.8-27-12.1-39.6-7.3-14.6-11.5-31.1-9.4-47.3 1.2-8.5 5.9-18.3 14.5-18.5 7-0.2 12.2 6.3 15.8 12.3 6.2 10.2 11.5 20.9 15.9 32.1 2.8 7.1 5.8 15.2 18.6 28.3 6.7-36.3 0.2-73.5 0.9-110.4 0.6-36.9 11-77.2 41.5-98 5.3-3.6 13.8-5.7 16.8-0.1 1 1.8 1 3.9 0.9 5.9-1.1 18-11.4 34-18.8 50.4-15 33.3-18.4 71.6-9.7 107 2.2 8.7 5 17.2 6.1 26 1.8 13.5-0.5 27.1-2.8 40.5 16.2-10 24.1-29 29.2-47.2 5-18.3 8.3-37.6 18.9-53.3 2.5-3.8 6-7.5 10.5-7.6 7.4-0.1 10.7 9.1 11.5 16.4 3.3 32.1-3 65.1-17.9 93.8-4.6 8.8-10.3 17.6-18.8 22.8-5.9 3.5-12.6 5.1-19.3 6.7-22.6 5.4-45.3 10.8-63.3 14.6-16.2 19.5-35.6 36.6-48 58.7-13 23.4-17.1 51.5-3.5 83.7 24.9-12.7 48.4-28.1 70-45.9 9.3-7.6 18.4-15.9 24.6-26.2 10.1-16.7 11.7-37.5 21.4-54.5 6.9-12 21.5-22.2 33.9-16.1 7.9 3.9 11.7 13.5 11.2 22.3-0.4 8.8-4.4 17.1-8.5 24.9-21.3 39.7-50.2 74.7-79.1 109.3 10.2-2.9 17.4-11.9 27.1-16.2 9.6-4.3 24.9 0.5 23.4 11-0.5 3.6-2.9 6.6-5.4 9.2-22.9 24.8-57.1 38.7-112.4 33.1z"/>
		<path id="&lt;Path&gt;" class="s0" d="m3843.6 3164q-10.1-8.7-20.2-17.4c-0.6-0.6-1.3-1.1-2-1.5-3.9-1.7-7.5 2.6-10 5.9-12.6 17.2-37.2 24.5-57.1 16.9-3.7-8.8 0.5-18.9 6.2-26.4 5.8-7.6 13.3-13.8 18-22.1-25.3 3.6-50.1 11-73.2 21.9-4.1 2-8.3 4.1-12.9 4.5-4.6 0.4-9.6-1.3-11.8-5.4-2.2-4 0.2-10.1 4.8-10.5-6.2-4.2-14.2-4.1-21.3-6.3-7.2-2.1-14.4-8.6-12.5-15.7 2-7.1 10.9-9 18.1-9.6 25.3-2.1 50.6-3.6 82.3-2.6q-2-10.9-3.9-21.8c-7.9 2.6-12.4 13.3-20.7 12.6-8.3-0.8-10.4-12.7-6.8-20.3 3.6-7.6 10.3-13.8 11.7-22.1 2.3-13.9-11.2-25-23.4-32.2-12.3-7.1-26.5-16.4-26.5-30.6 0-2.3 0.7-4.9 2.8-5.9 1.4-0.6 3.1-0.1 4.6 0.4 15.3 5 28.7 15.5 37.2 29.1-5.2-23.2-6.4-47.2-3.5-70.8 2.3-18.4 9.8-39.5 27.7-44.3q3.4 38.5 5.2 77.1c-1.6-10.8 5.8-22.1 16.2-25 3.7 12 1 24.9 0 37.4-3 37 10.3 74.9 35.8 101.9-10.3-17.3 0.4-43.1 19.8-48.2q2.5 28.9 5 57.9c0.4 4.9 1 10.2 4 14.2 3 3.9 9.5 5.7 13 2.2 4.6-4.5 0.8-12-1.6-17.9-3.1-7.7-3.3-16.6-0.4-24.4 1.8-5 4.9-9.6 6.4-14.7 3.8-13.3-3.1-27.1-6.9-35.1-9.4-25.6-18.9-51.3-32.3-75-5.9-10.6-12.7-20.8-17.1-32.1-4.5-11.5-6.5-24.1-5.7-36.4 0.2-3.7 1.3-8.2 4.9-9.2 3.9-1 7.2 3 9 6.6 7.7 14.6 12.3 30.5 16.8 46.4-2.8-11.4-5.4-24.1 0.4-34.3 1.8-3.1 5.4-6 8.6-4.4 1.2 0.6 2 1.8 2.6 3 5.7 10.5 1.7 23.3 1.5 35.2-0.1 16.4 7.6 31.8 15 46.4-4.8-9.3-5.3-20.7-1.3-30.4 1.3-3.3 5.1-6.8 7.8-4.6 0.8 0.7 1.2 1.7 1.6 2.7q3.5 9.1 6.9 18.1 2.9-16.2 5.8-32.4c0.7-4 1.4-8.1 0.8-12.1-1.7-12.1-14.7-22-11.9-33.9 0.6-2.5 2.3-5.2 4.9-5.5 3.4-0.4 5.9 3.2 7.4 6.3 3.2 6.4 6.4 12.8 13.6 21.5 0-14.5 1.9-29.1 8.1-43.6 6.1-2.3 13 2.9 15.1 9.1 2 6.2 0.6 13-0.8 19.4q-5.1 23.6-10.2 47.2c-4.4 20.3-8.8 41.4-3.5 61.4 3.4 13.1 10.8 24.8 18.1 36.2-11.6-16 8.6-39.5 0.3-57.4-3.2-7.1-10.5-12.1-11.8-19.7-1.1-6.5 3.8-13.9 10.4-14.1 6.6-0.3 12.1 8.2 12.6 18 0.3-18.1-1.1-36.3-4.6-55.7 1-9.4 3.9-18.7 10.7-25.8q3.9 18.9 7.7 37.9c-0.1-7.1-0.1-14.4 2.5-20.9 2.7-6.6 8.7-12.4 15.8-12.4-5.3 65.5-12.4 130.8-21.5 195.8 1.9-2.8 5.1-4.9 8.5-5.3q-0.1 21.7-0.1 43.3c13-57.9 19.1-117.5 18.2-176.9-0.1-8.9-0.3-18.5 4.5-26.1 1.5-2.2 3.7-4.4 6.4-4.3 4.2 0.3 5.8 5.5 6.4 9.6q2.5 16.6 4.9 33.3c-3.2-32.7 1.2-66 15.1-101.4 4.3-3.9 9.5-6.8 15.2-8.3 3.9 15.5 3.5 32.1-1.2 47.3-4.4 14.2-12.5 29.1-5.9 48.1 10-20.2 22.7-42.6 44.7-47.6 6.3 10.3-1.8 23.1-9 32.8-36.6 49.9-56.2 111.9-55.7 172.9q3.3 10.1 6.7 20.2c-1.7-7.2 2.6-14.4 7.5-20 5-5.5 10.9-10.5 13.7-17.4 4-10 0.3-21.1-1.3-31.7-1.9-12.2-1-24.9 2.6-36.7 1-3.5 2.7-7.4 6.2-8.4 5.7-1.7 10 5.1 11.6 10.8 3.4 11.8 4.8 24.1 4.2 36.3 4.8-13.4 13.3-25.5 24.2-34.6 1.5-1.3 3.1-2.6 5.1-2.9 3.5-0.6 7 2.1 8.3 5.5 1.3 3.3 1 7.1 0.4 10.6-6 38.9-34.3 74-25.7 112.2-1.3-24.5 12.2-46.9 23.1-68.8 10.9-21.9 19.7-48.1 9.1-70.2-2.5-5.4-6.2-10.4-7.5-16.2-1.3-5.9 0.8-13.2 6.5-15.1 5-1.6 10.6 1.8 13.1 6.4 2.6 4.6 2.9 10.1 3.2 15.3-3.1-26.1 11.8-53.4 35.5-65-1.4 29.1-6.5 57.9-15.2 85.7 4.7-23.3 15.5-46.9 35.7-59.4 4 4.7 1.8 11.7-0.6 17.4q-13.7 32.6-27.4 65.1c4.3-3.4 6.5-8.6 9.9-12.9 3.3-4.2 9-7.7 14-5.6 5.3 2.3 6.5 9.7 4 15-2.4 5.2-7.3 8.8-11.7 12.5-22.2 19-36 46.4-43.4 74.7-7.4 28.3-9 57.7-12.4 90.8 15.4-24.5 27-51.3 34.6-79.2 1.5-5.7 3.8-12.4 9.6-13.8 1.9 15.8 1.9 31.8 0.1 47.5 0.9-27.1 12.8-53.6 32.5-72.3q3 6.8 6 13.6c-3.5-18 5.7-37.8 21.8-46.8 3.4 8.1 4.7 17 3.5 26.6 6.9-21.7 15.1-45 34.2-57.4 1.9-1.2 4.1-2.4 6.4-2.3 4 0.1 7.1 4.1 7.6 8.1 0.5 4-0.9 8-2.3 11.8q-5.8 16.1-11.6 32.2c2.6-7.7 6.2-15.2 11.8-21.1 5.5-6 13.4-10.1 21.5-9.9 1.6 7.2 2.9 15.1-0.6 21.6-2.3 4.3-6.4 7.3-10.3 10.2-30.4 22.9-57.1 50.8-78.6 82.2 5.3-9.1 13.6-16.4 23.3-20.4 3.2-1.3 6.9-2.3 10.1-1 3.2 1.4 5 6.1 0.3 12.1 42.3-24.4 55.6-85.3 100.8-103.8 2.1-0.8 4.4-1.6 6.5-0.7 1.3 0.5 2.2 1.6 3 2.8 5.3 8.6-1.1 19.4-7.2 27.4q-22.6 29.6-45.2 59.1c13.7-12.4 29.7-22.4 46.9-29.4 2.9-1.2 6.1-2.3 9.2-1.9 7.5 0.9 11.5 10.2 9.3 17.3-2.2 7.2-8.6 12.2-15.3 15.6-12.9 6.7-27.5 9.2-41.3 13.9-19.3 6.6-36.9 17.3-54.3 27.9-9.4 5.8-19.6 12.5-24.1 28.4 20.1-8.6 44.4-0.8 64.4-9.7 9-4 16.2-11 23.2-17.9q10.4-10.1 20.8-20.3c5.2 7.5 5 18.5-2 29.3q23.3-13.4 46.5-26.9c1.9-1 3.9-2.2 6.1-2.3 6.4-0.6 10.7 7.8 8.6 14-2.1 6.1-8 10.1-13.6 13.4-56.9 33-124.5 41.2-190 47.2 54.2 3 108.8-2.5 161.3-16.2-18.3 24.7-49.9 34.8-79.4 43.5 23.1 2.7 46 6.4 68.9 10.9 10 2 22.7 7.5 21.6 17.7-0.2 1.9-1.1 3.8-2.7 4.7-1.2 0.6-2.6 0.5-4 0.5-69.4-3.7-138.1-27.9-206.9-18.2-12.1 1.7-24.4 4.7-34 12.2-6 4.6-10.6 10.8-15.5 16.6-23.1 26.9-55.6 45.7-90.6 52.1-17.7 3.2-39.8 1.3-48.4-14.6-1.9-3.5-3.1-7.5-5.7-10.4-4.6-4.9-12.1-5.4-18.8-5.3-17.8 0.3-36.1 1.5-52.8-4.6-16.7-6.1-31.4-22.1-29.2-39.8 0.9-7.5 4.7-15.4 1.5-22.4-2.7-5.8-9.5-8.6-15.9-9.8-11.8-2.2-24.1-0.9-36.1-2.4-11.9-1.5-24.6-6.7-29.9-17.6-5.2-10.8 1.8-27.1 13.9-26.8 6 0.1 11.1 3.9 16.5 6.5 24.1 11.8 57.3-4.6 70.3-35.2z"/>
		<g id="&lt;Group&gt;">
			<path id="&lt;Path&gt;" class="s0" d="m695.9 3184.3c-8-39.5 14.6-78.9 15.4-119.2 0.4-24.6-7.3-49.5-2.3-73.6 2.2-10.5 6.8-20.7 7-31.4 0.4-19.9-14.3-39-9.6-58.3 1.5-6.2 5-12.2 3.9-18.4-1.6-9.2-12.1-14.1-15.8-22.6-6.5-14.4 8.4-29.3 10.5-44.9 1.8-14.3-7.3-27.9-7.6-42.2-0.5-25.7 25.9-44.4 30.6-69.7 1.5-7.9 1.1-17 6.6-23 6.9-7.6 19.9-6.1 27.6-13 7.6-6.9 6.9-18.8 10.6-28.3 8.1-21.1 36.9-28.8 44.2-50.1 2.4-7.4 2-15.5 4-23 6-22 31.7-33.9 38.1-55.8 10.6 8.2 13 23.4 11 36.6-1.9 13.2-7.3 25.7-9.1 38.9-1.1 7.8-1 15.8-3.5 23.2-7.3 21.5-33.7 30.3-45 49.9-7.8 13.6-7.6 31-17.2 43.3-9.4 12-26.4 16.8-34.3 29.9-11.9 19.7 3.4 45.1-0.1 67.8-2 13-10.1 24.7-9.9 37.8 0.1 11.6 6.9 22.3 7.7 33.9 1 16.8-10.5 32.1-10.8 48.9-0.2 17.1 11.4 33.3 8.6 50.2-1.3 7.7-5.5 14.5-8.7 21.6-4.7 10.6-7.2 21.9-9.6 33.2q-2.3 10.5-4.6 21.1c-9.6 43.7-19.2 87.5-37.7 137.2z"/>
			<path id="&lt;Path&gt;" class="s0" d="m669.7 3196.3c-10.8-46.1-21.7-92.5-39.4-136.4-6.7-16.7-14.4-33.3-17.1-51.1-1.9-12.1-1.4-24.6-4.9-36.4-6.2-20.9-24.7-38.2-24.6-60 0.1-9.3 3.3-19.4-1.8-27.1-6.4-9.6-23-10.2-26.1-21.3-1-3.6-0.2-7.7-1.9-11-5.6-11.1-27.1-0.4-33.5-11-1.6-2.8-1.6-6.2-2.4-9.3-5.5-21.6-44.3-17.7-50.9-39-3.2-10.1 2.5-22.9-4.6-30.8-4-4.4-10.9-5.4-15-9.8-7.2-7.7-1.8-20.4 5-28.6 6.8-8.2 15.2-17.4 13.1-27.8-0.8-3.5-2.7-6.7-4-10-6.9-18 5.3-37.1 16.4-52.8 11.1-15.8 22-36.4 12.6-53.2 7.6-1.5 14.6-5.5 24.9-7.5-13 20.4-3.8 47.7-9.8 71.1-2.7 10.7-8.6 20.3-11 31.1-2.5 10.7-0.3 23.8 9.3 29.2 5.7 3.3 13 3.1 18.3 7 8.8 6.5 7.4 19.8 6.4 30.7-0.9 11 2 25.3 12.9 26.9 4.1 0.5 8.6-0.9 12.2 1.1 9.2 5.3-1.9 22.1 5.7 29.5 4 3.8 10.5 2.3 16.1 1.9 20.9-1.7 40.2 20.3 35.7 40.9-0.6 2.8-1.6 5.8-0.9 8.6 1.4 5.6 8 7.6 13.4 9.7 13.9 5.5 24.6 18.4 27.4 33.1 2.4 12.4-0.5 25.4 2 37.8 2.2 10.8 8.5 20.3 12.3 30.7 9.3 24.6 4.6 51.9 2.4 78.2-4.5 53 1.8 106.8 1.8 155.6z"/>
			<path id="&lt;Path&gt;" class="s0" d="m711.3 3200.5c-24.4-60.2-35.7-125.8-32.8-190.7 1.3-28.1 5-57-3.8-83.6-3.4-10.3-8.7-20.1-10.3-30.9-3-20.8 8-43.5-1.4-62.3-8.6-17.3-31.9-25.1-36.8-43.8-2.3-8.6-0.1-18.4-4.5-26.2-4.7-8.3-15.1-11.2-22-17.7-12-11.3-9.7-34 4.4-42.6-13.3-21.4-13.8-50-1.4-71.9 6.1-10.7 15-19.8 19.4-31.3 5.6-14.8 3.3-32.1 11-45.9 10.2-18.3 35-25.1 44-44.1-26.4-16.2-65.8-4-78.4 24.3-1.9 4.4-3 10.2 0.5 13.5 2.2 2 5.5 2.4 7.8 4.3 5.4 4.4 1.8 13-1.6 19.1-8.8 15.8-13.8 33.7-14.5 51.9 2-12.7 3.6-27.3-4.8-37.1-4.3-5-10.9-8.3-13.5-14.4-5.6-13.3 11.4-25.7 12.4-40.1 0.6-8.9-5.2-17.9-2.6-26.5 3.7-12.6 20.8-13.9 33.9-12.6-2.6-12.3 12.1-21.8 24.7-21.9 12.6-0.1 25.2 4.8 37.6 2.7 8.1-1.3 17.9-5.1 23.3 1 3.1 3.4 3.4 8.8 7 11.5 3.7 2.7 8.9 1.3 13.5 1.6 9.2 0.5 16.8 8.7 18.3 17.7 1.5 9.1-2.1 18.5-8.1 25.4-3.4 4.1-7.9 8-8.7 13.3-0.6 3.9 0.9 7.8 1.6 11.7 2.7 16.7-10.7 31.2-22.9 42.9-16.2 15.6-33.5 37.3-25 58.2 2 4.8 5.4 9.2 6.4 14.3 2.9 15.1-14.8 27.2-15.4 42.6-0.7 17 19.6 30.9 15.7 47.5-1.2 5.2-4.9 9.9-4.8 15.4 0 3.6 1.7 6.9 3.3 10.2 8.9 19.5 11.1 41.9 6 62.8-1.1 4.7-2.6 9.6-1.8 14.5 1.1 5.9 5.6 10.5 8.3 15.9 7.8 16-1.5 36.1 4.9 52.6 2.5 6.5 7.3 11.9 9.9 18.4 3.9 9.9 2.4 21 1 31.5-9.1 69.6-8.6 140.5 0.2 218.8z"/>
			<path id="&lt;Path&gt;" class="s0" d="m681.3 3197c-3-24.7 10.6-48.2 25.3-68.3 14.7-20.1 31.6-39.9 36.7-64.3 3.2-15 1.7-31 6.8-45.6 4.9-14.1 15.7-25.5 20.8-39.5 6.8-19 2.4-40.4 6.9-60.1 8.7-37.6 47.3-61.1 62-96.8 2.9-7.2 4.9-14.8 9.2-21.2 9.1-13.7 26.6-19.1 37.8-31 11.4-12 15.1-30.6 9.4-46.1-3.3-8.8-9.4-16.7-10.7-26-2.2-15.3 8.6-28.9 17.7-41.4 9.1-12.4 17.2-29.1 9.7-42.5-4-7.1-11.7-11.8-14-19.5-4.2-13.7 10.1-25.1 18.4-36.7 14.4-19.9 10.8-50.5-13-66.7 6.9 4.2 16.4 3.7 21.6 9.8 6.6 7.7 1.3 19.8 3.6 29.7 2.7 11.5 15.1 18.5 20.6 32.7-12.9 14.8-13.3 39-0.8 54.2 5.3 6.4 12.9 11.8 14.6 20 2.9 13.3-10.7 23.9-15.6 36.6-10.8 27.7 21.6 59.6 8.9 86.5-6 12.7-21.1 20.4-24.4 34.1-2.4 10.3 2.5 21 0.7 31.4-3 17-22 26.2-29.9 41.5-7.5 14.6-3.9 32.4-8.5 48.1-9.8 33.3-52.2 47.8-63.9 80.5-6.2 17.4-5 41-21.7 49-4.6 2.3-9.9 2.7-14.7 4.4-22.6 7.9-27.3 36.9-39.7 57.3-16.2 26.7-49.6 42.9-73.8 89.9z"/>
		</g>
		<g id="&lt;Group&gt;">
		</g>
		<g id="&lt;Group&gt;">
		</g>
		<g id="&lt;Group&gt;">
		</g>
		<path id="&lt;Path&gt;" class="s0" d="m3207.6 2890.6q-18.4-17.4-36.7-34.8c-9.4-8.9-18.9-17.9-30.4-23.8-4.3-2.2-8.9-4-12.4-7.4-6.6-6.3-8.6-17.7-17.3-20.6-3.1-1.1-6.5-0.8-9.7-1.8-3.9-1.3-6.9-4.4-10-7.2-8.6-8.2-18.7-15-29.6-19.8-4-1.8-8.4-3.6-10.7-7.4-2.2-3.7-0.5-10 3.9-10.2-2.2 3.3-7.4 1.2-10.6-1.2-5.5-4-11.4-8.6-12.6-15.3-1.3-6.6 5.7-14.5 11.7-11.3-3.2-1.9-4.3-6.6-2.3-9.8 2-3.1 6.7-4.1 9.8-2-2.7-4-5-10.6-0.6-12.9 3-1.6 6.5 0.7 9.5 2.4 3.1 1.6 8 1.7 8.8-1.6 0.8-3.2-3.1-7.4-0.4-9.3q6.7 2.7 13.4 5.4c1.1 0.5 2.3 0.9 3.4 0.7 3.3-0.6 3.4-5.2 2.4-8.3-1.1-3.2-2.3-7.2 0.4-9.2 4.2-3.3 10.4 4.4 15 1.7 4.9-3 1-14.3 6.7-14.5 1.3 0 2.4 0.7 3.4 1.3q7.5 4.7 14.9 9.4c3.9-2.3 2.5-8.9 5.9-11.9 3.6-3.1 9.1 0 12.3 3.4 3.3 3.4 7.3 7.6 11.8 6.4q2.7-6.8 5.3-13.7c0.3-0.7 0.6-1.5 1.3-1.9 1.3-0.9 3 0.3 4.2 1.4q5.1 4.9 10.2 9.7c-1.3-6.1-0.9-14.8 5.2-15.8 2.8-0.4 5.4 1.1 7.6 2.8 5.1 4 9.2 9.5 11.4 15.6-1.6-5.9 2.7-12.8 8.8-14 6-1.2 12.6 3.5 17.9 13-1.5-3.5-2.5-7.1-3.1-10.8-0.5-2.6-0.4-5.8 1.7-7.2 3.1-2.1 7.2 1.3 8.1 4.9 0.9 3.6 0.4 7.5 2 10.8 0.9 1.8 2.9 3.3 4.6 2.4 0.7-0.3 1.2-1 1.6-1.6q2.6-3.8 5.2-7.6c0.6-1 1.7-2.2 2.9-1.8 0.7 0.3 1.1 1.2 1.4 2q1.6 5.1 3.3 10.2c0-4.9 0.7-9.8 2.2-14.5 3.8 3.3 6.7 7.6 8.1 12.4q0.2-5.5 0.3-11.1c0-1.4 0.1-3 1.1-4.1 1.4-1.7 4.2-1.4 5.9-0.1 1.7 1.4 2.6 3.5 3.4 5.5 1.9 4.7 3.8 9.3 6.7 17.2 1.6-1.4 3.7-2.2 5.9-2.2 0.3 8.6 2.2 17.2 5.6 25.1 2.7-4.7 1.4-10.5 1.4-15.9 0-5.4 2.8-12 8.2-12.1 5.8-0.1 8.5 7 9.6 12.7 1.5-2.3 1.5-5.2 2.3-7.8 0.9-2.6 3.1-5.2 5.8-4.7 1.8 0.4 3 2 4 3.5 3.5 5.5 6.1 11.4 7.8 17.7 2.5-3.5 0.8-9.2 4-11.9 3.6-3.1 9.3 0.8 10.9 5.2 1.6 4.5 1.5 9.7 4.2 13.5 2.5-5.5 6.7-12 12.6-10.8 3.5 0.7 5.8 4.1 6.5 7.6 0.6 3.4-0.2 7-0.9 10.4 1.7-2.5 3.5-5.2 6.2-6.6 2.7-1.5 6.6-1.3 8.4 1.2 3.2 4.4-2.5 11.2 0.2 16 5.1-3.3 11.1-5.2 17.1-5.2-0.6 4.9-1.2 9.8-1.2 16.2 3.5-2.4 7.5-3.9 11.7-4.5 1.4-0.2 3-0.1 3.8 0.9 0.7 0.9 0.5 2.2 0.3 3.4q-1.4 7.6-2.8 15.3c1.4-5.8 9-9.2 14.1-6.1 5.1 3.1 5.3 11.8 0.2 14.9 2.4-2.5 4.9-5.1 8.2-6.1 3.4-0.9 7.6 0.5 8.5 3.9 0.7 2.6-0.9 5.3-2.7 7.3-5.1 5.9-12.3 9.5-18.3 14.4-6 4.9-11.2 12.3-9.9 19.9q15.8-13.8 31.7-27.6c3.2-2.8 9.4-4.9 10.6-0.8 0.4 1.4-0.1 2.8-0.7 4.1q-3.5 8.8-7 17.5c2.8-2.9 4.3-6.9 6.7-10.3 2.4-3.3 6.5-6.1 10.4-4.9 6.2 2 5.6 11.2 2.7 17-2.9 5.9-6.7 13.1-2.9 18.4q7.6-5.4 15.2-10.7c2-1.4 4-2.8 6.4-3.1 5-0.5 9.2 4.6 9.5 9.7 0.3 5-2.2 9.8-4.6 14.3-2.4 4.4-5 9.1-4.9 14.1 3.7-4.6 11.5-5.4 16-1.5 4.6 3.8 5.2 11.5 1.2 16-3.1 3.6-8 4.8-12.5 6.5-4.4 1.8-9 5-9.4 9.7-0.1 1 0 2 0.6 2.8 0.8 1.1 2.2 1.4 3.4 1.8 5.3 1.7 10.7 6.7 8.9 11.9-1.7 4.8-7.9 5.8-12.9 6.5-5 0.7-11.2 3.5-10.7 8.6 5.3-0.2 10.9-0.3 15.6 2.4 4.6 2.6 7.5 9.1 4.5 13.5-1.3 1.8-3.4 3-5.5 3.8-13.9 5.1-28.4-3.8-42.2-9-14.5-5.5-30-7-45.4-8.2-12-0.8-23.9-1.5-35.9-0.8-27.5 1.6-54.2 10.3-81.6 13.5-27.3 3.3-53.8-3.2-76.2-24.5z"/>
		<path id="&lt;Path&gt;" class="s0" d="m3254.3 2767.8q-18.4-17.4-36.8-34.9c-9.3-8.8-18.8-17.8-30.3-23.7-4.3-2.2-9-4-12.5-7.4-6.6-6.4-8.6-17.7-17.2-20.7-3.1-1-6.6-0.7-9.7-1.7-4-1.3-7-4.4-10-7.3-8.7-8.2-18.7-14.9-29.6-19.7-4-1.8-8.5-3.6-10.7-7.4-2.3-3.8-0.5-10.1 3.9-10.2-2.3 3.3-7.4 1.2-10.7-1.2-5.4-4-11.3-8.6-12.6-15.3-1.2-6.7 5.8-14.6 11.7-11.3-3.2-1.9-4.3-6.6-2.3-9.8 2-3.2 6.8-4.1 9.9-2-2.8-4.1-5-10.6-0.7-12.9 3-1.6 6.5 0.7 9.6 2.3 3 1.6 7.9 1.8 8.7-1.5 0.8-3.2-3.1-7.5-0.4-9.3q6.7 2.7 13.5 5.4c1 0.4 2.2 0.9 3.4 0.7 3.2-0.6 3.3-5.3 2.3-8.4-1.1-3.1-2.2-7.2 0.4-9.2 4.2-3.2 10.4 4.5 15 1.8 4.9-3 1-14.3 6.8-14.5 1.2 0 2.3 0.7 3.4 1.3q7.4 4.7 14.8 9.4c4-2.3 2.5-8.9 5.9-11.9 3.6-3.1 9.1-0.1 12.4 3.4 3.2 3.4 7.2 7.6 11.8 6.4q2.6-6.9 5.3-13.7c0.2-0.7 0.6-1.5 1.2-1.9 1.4-0.9 3.1 0.3 4.2 1.4q5.1 4.8 10.2 9.7c-1.2-6.1-0.9-14.8 5.3-15.8 2.7-0.5 5.4 1 7.5 2.8 5.2 4 9.2 9.5 11.5 15.6-1.6-6 2.7-12.8 8.7-14 6.1-1.2 12.6 3.5 17.9 13-1.4-3.5-2.5-7.1-3.1-10.8-0.4-2.6-0.4-5.8 1.8-7.3 3-2 7.1 1.4 8 5 1 3.5 0.4 7.5 2 10.8 0.9 1.7 3 3.3 4.7 2.4 0.6-0.4 1.1-1 1.5-1.6q2.6-3.8 5.2-7.7c0.7-1 1.7-2.1 2.9-1.7 0.8 0.3 1.1 1.2 1.4 2q1.7 5.1 3.4 10.2c-0.1-4.9 0.7-9.9 2.2-14.5 3.8 3.2 6.6 7.6 8.1 12.4q0.1-5.6 0.2-11.1c0.1-1.5 0.2-3 1.1-4.1 1.4-1.7 4.2-1.5 5.9-0.1 1.7 1.4 2.6 3.5 3.4 5.5 1.9 4.6 3.8 9.3 6.7 17.2 1.6-1.4 3.8-2.2 5.9-2.2 0.3 8.6 2.2 17.1 5.7 25 2.7-4.6 1.4-10.4 1.4-15.8-0.1-5.4 2.7-12 8.1-12.1 5.8-0.1 8.6 7 9.7 12.7 1.4-2.3 1.5-5.2 2.3-7.8 0.8-2.6 3.1-5.2 5.7-4.7 1.8 0.3 3.1 2 4.1 3.5 3.4 5.4 6.1 11.4 7.7 17.6 2.5-3.4 0.8-9.1 4.1-11.9 3.6-3 9.2 0.9 10.8 5.3 1.7 4.4 1.5 9.6 4.2 13.5 2.5-5.5 6.8-12 12.7-10.8 3.4 0.7 5.8 4.1 6.4 7.5 0.6 3.5-0.1 7-0.9 10.5 1.7-2.6 3.6-5.2 6.3-6.7 2.7-1.4 6.5-1.2 8.3 1.2 3.3 4.5-2.5 11.3 0.3 16.1 5-3.4 11-5.2 17.1-5.2-0.6 4.9-1.2 9.7-1.3 16.1 3.5-2.3 7.6-3.8 11.8-4.4 1.3-0.2 2.9-0.2 3.7 0.9 0.7 0.9 0.6 2.2 0.3 3.4q-1.4 7.6-2.8 15.2c1.5-5.8 9.1-9.1 14.1-6 5.1 3.1 5.3 11.8 0.3 14.9 2.3-2.5 4.9-5.1 8.2-6.1 3.3-1 7.6 0.5 8.4 3.8 0.7 2.7-0.9 5.3-2.6 7.4-5.2 5.8-12.3 9.5-18.4 14.4-6 4.9-11.2 12.2-9.9 19.9q15.9-13.8 31.7-27.6c3.2-2.8 9.5-4.9 10.7-0.8 0.4 1.4-0.2 2.8-0.7 4.1q-3.5 8.8-7.1 17.5c2.9-3 4.3-7 6.7-10.3 2.4-3.3 6.5-6.1 10.4-4.9 6.3 2 5.6 11.1 2.8 17-2.9 5.9-6.7 13.1-2.9 18.4q7.6-5.4 15.2-10.8c1.9-1.3 3.9-2.7 6.3-3 5-0.6 9.2 4.6 9.5 9.7 0.3 5-2.1 9.8-4.6 14.2-2.4 4.5-4.9 9.2-4.9 14.2 3.8-4.7 11.5-5.4 16.1-1.6 4.6 3.9 5.1 11.6 1.2 16.1-3.2 3.6-8.1 4.8-12.5 6.5-4.5 1.8-9.1 5-9.5 9.7-0.1 1 0.1 2 0.7 2.8 0.7 1 2.1 1.4 3.4 1.8 5.3 1.6 10.6 6.7 8.8 11.9-1.7 4.8-7.9 5.7-12.9 6.5-5 0.7-11.2 3.5-10.7 8.6 5.3-0.2 11-0.3 15.6 2.3 4.6 2.7 7.5 9.1 4.5 13.5-1.3 1.9-3.4 3.1-5.5 3.9-13.8 5.1-28.4-3.8-42.2-9-14.4-5.5-30-7.1-45.4-8.2-11.9-0.9-23.9-1.5-35.8-0.8-27.6 1.6-54.2 10.3-81.6 13.5-27.4 3.2-53.9-3.3-76.2-24.5z"/>
		<g id="&lt;Group&gt;">
		</g>
		<path id="&lt;Path&gt;" class="s0" d="m5384.8 2528.7q-16.4-17.7-32.8-35.4c-2.6-2.9-5.3-5.7-8-8.5-7.2-7.2-15.1-13.8-23.5-19.7-18.6-12.8-39.5-21.7-60.3-30.6-11.2-4.7-22.5-9.5-31.7-17.4-9.3-7.9-16.1-19.5-15.4-31.6 3.9 4 9.4 6.4 15 6.4-14.3-17.8-32.5-32.6-52.8-43.2 2-3.1 6.6-3.7 10.1-2.4 3.5 1.3 6.2 4.1 8.7 6.8-2.6-4.4-2.6-10.2 0.1-14.5q11 12.4 22 24.9c2.1 2.3 6.6 4.3 7.5 1.3q-1.9-5.3-3.9-10.6 5.4 3 10.8 6.1c-12.2-7.3-22.3-18-28.9-30.5 6.4-4 13.8 3.1 17.9 9.3 4.2 6.2 11.6 13.3 18 9.2q4.7 4.3 9.5 8.5c0.1-6.8-5-12.5-7.8-18.8-2.9-6.2-1.7-15.9 5.1-17 5.8-1 10.1 5.4 11.3 11.1 1.1 5.8 0.9 12.2 4.6 16.8 1.8-4.1 8.4-3.6 11.3-0.2 2.9 3.4 3.2 8.3 3.1 12.8-0.1 4.5-0.3 9.3 4.5 13.8q1.2 2.5 2.4 4.9c2.5-2.9 7.5-1.8 10.3 0.9 2.7 2.7 4.1 6.5 6.2 9.8 2 3.3 5.6 6.3 9.4 5.5l-2.9-13.3c-0.6-2.9-1.3-5.9-2.7-8.5-2.4-4.4-6.8-7.4-10.6-10.7-8-6.8-14.5-16.2-14.6-26.6 0-2.4 0.8-5.3 3.1-5.9 1-0.2 2.1 0.1 3 0.5 4 1.9 6.1 6.3 8.5 10 2.4 3.8 6.4 7.4 10.7 6.4 1.6-3.5-0.2-7.6-2.5-10.7-2.3-3.1-5.2-5.9-6.5-9.5-1.3-3.6-0.1-8.6 3.5-9.7 4.9-1.4 8.6 4.4 9.7 9.3 1.1 4.9 2.6 11 7.5 12.2q0.4-4.8 0.7-9.6c0.1-1.2 0.3-2.5 1.2-3.1 0.9-0.7 2.1-0.5 3.1-0.2 6 2.3 6.3 10.7 9.8 16.2 0.8 1.3 2.2 2.6 3.7 2 1.1-0.4 1.6-1.8 1.7-3 0.5-4.9-1.8-9.6-4-14-2.2-4.4-4.3-9.3-3.3-14.1 0.9-4.9 6.5-9 10.8-6.7 3.7 2.1 4.2 7.1 6.5 10.7 1 1.5 2.8 2.9 4.5 2.4 3.8-1.1 1.2-7.3 3.2-10.7 3 2.6 6 5.2 10.6 9-1.6-9.1-7.1-17.3-14.7-22.4-2.5-1.6-5.1-2.9-7.2-4.9-2-2-3.4-5.1-2.4-7.8 5.9-1 11.9 1.2 16.7 4.8 4.8 3.6 8.5 8.3 12.2 13 2.9-1.1 4-4.9 3.4-8-0.6-3.1-2.5-5.8-4-8.5-1.4-2.5-2.4-5.9-0.3-7.8 1.7-1.6 4.7-1 6.3 0.7 1.7 1.6 2.4 4 3 6.2q3.3 11.8 6.6 23.6c0.5 1.7 1.1 3.6 2.5 4.7 2.7 2.1 7 0.1 8.4-3 1.5-3.1 1-6.7 0.4-10.1q-1-6.4-2.1-12.7c-0.4-2.8 0-6.8 2.8-6.9 1.3 0 2.3 0.9 3.2 1.8 6.7 7.5 6.3 18.7 7.9 28.6 1.1 6.8 4.9 14.6 11.8 15 3 0.2 5.9-1.2 8.6-2.5 2.6-1.3 5.4-2.9 6.2-5.6 1.2-4.3-2.9-7.9-6.2-10.8-2.8-2.6-5.4-5.5-7.5-8.6-1.7-2.5-3.2-5.6-2.1-8.3 1.2-3.1 5-4.3 8.3-4 6.7 0.7 12.3 5.8 15.4 11.7 3.2 5.9 4.4 12.6 5.7 19.2 3.1-1.9 3.7-6.1 3.1-9.7-0.5-3.6-1.8-7.2-1.2-10.7 0.9-4.9 5.5-8.7 10.4-9.5 4.9-0.8 10 0.9 14.2 5.5-10.6 13.7-14.3 32.5-9.6 49.3 5.4-13.5 12.3-26.3 20.5-38.1 2.3-3.2 5.2-6.7 9.2-6.8 5-0.1 8.4 5.7 7.9 10.6-0.5 5-3.5 9.3-6.1 13.5-9.5 15.4-14.5 33.5-14.2 51.6 0.4-16.4 12.8-31.7 28.7-35.6 0.8-0.2 1.6-0.3 2.5-0.2 2.2 0.4 3.4 3.2 3 5.5-0.5 2.2-2.1 4.1-3.6 5.8q-8.5 9.4-17 18.9c-0.9 1-1.8 2.2-1.6 3.5 0.2 0.9 0.9 1.6 1.6 2.2q1.8 1.6 3.5 3.3c0.7 0.6 1.4 1.2 2.3 1.4 2.1 0.5 3.7-1.7 4.8-3.6 2.7-4.6 6.1-8.9 10-12.6 2.5-2.4 6.6-4.7 9.2-2.3 0.8 0.7 1.3 1.7 2.2 2.3 1.4 0.7 3 0.1 4.4-0.5 3.9-1.7 8-3.4 11.1-6.5 3.1-3 5-7.6 3.6-11.7-0.6-1.8-1.8-3.3-2.4-5.1-0.5-1.8-0.3-4.1 1.4-5 1.6-1 3.8 0.1 5.2 1.3 6.2 5.5 7.3 15.1 4.9 23-2.4 7.9-7.8 14.5-13 20.9q-16.1 19.9-32.2 39.8c-3.9 4.8-8.1 10.6-6.2 16.1q3.2 2.2 6.4 4.3c-25.2 35.8-52 70.4-80.2 103.8-2.8 3.3-5.8 6.7-9.9 8.2-3.3 1.1-6.9 0.9-10.4 0.6q-11.8-0.8-23.6-1.7c-1.5-0.1-3.3-0.4-4-1.7-0.4-0.9-0.2-1.9 0.1-2.9 1.2-5.3 2.5-10.5 4.7-14.7z"/>
		<path id="&lt;Path&gt;" class="s0" d="m4112.9 2648.7c11.5-11.5 26-20.2 34.4-34.1 3-5 5.1-10.5 4.9-15.4 4.8 8.4 5.5 18.5 4.6 28.1-0.9 9.6-3.4 18.9-4.5 28.5-2.3 18.9 0.5 38.5 8 56-11.2-13.5-25.5-24.4-41.3-28.8 9.1 8.7 17.9 18.1 23.3 29.5 5.4 11.4 7.1 25.1 1.6 36.5-3.8 8-10.9 14.2-18.7 18.5-18 9.9-39.6 10.5-60 8.1-20.4-2.4-40.5-7.4-61-8-28.9-0.7-58.9 7.5-86.1-2.5-7.9-3-15.2-7.4-22.7-11.5-25.2-13.8-52.3-24-80.4-30.2 2.9-3.9 7.4-6.5 12.1-7.2-4.3-1.4-8.4-3.7-11.7-6.8 22.7-10.9 41-30.8 49.5-54.5 10-34.3 30.4-65.4 57.9-88.2 27.4-22.9 61.7-37.4 97.2-41.1 31.2-3.3 65 2.6 88.5 23.5 3.1 2.9 6.1 6 8.5 9.5 4.8 7 7.3 15.3 9.6 23.5 2.9 10.1 5.6 20.7 3.7 31-2.2 12.3-10.7 22.8-17.4 35.6z"/>
		<g id="&lt;Group&gt;">
		</g>
		<g id="&lt;Group&gt;">
			<path id="&lt;Path&gt;" class="s0" d="m5787.7 1997.1l-27.4 8.8c-0.8 0.3-0.8 1.5 0 1.7 6.2 1.8 20.8 6.3 27.6 12 3 2.5 5.8 5.3 9.1 7.1 2.4 1.4 5 2.3 7.5 3.6 3.2 1.9 5.9 4.6 8.5 7.3 4.2 4.3 8.3 8.8 13.3 11.9 4.8 2.8 10.7 4.7 13.1 10.1 2.4 0.6 3.3-0.7 1.8-3-4.6-7-8.9-14.8-15.5-19.8 6.6 1.7 12.3 6.1 18 10.1 5.8 4 12.1 7.7 18.8 7.7 6.8 0 14-5.1 14.7-12.6 0.5-4.7-1.6-9.2-3.3-13.5-1.7-4.3-3.1-9.4-2-13.4l6.2 11.2c0.6 1.1 1.3 2.3 2.5 2.8 1.2 0.5 2.6 0 3.6-1 1-1 1.6-2.3 2.2-3.6 4.9-11 8.5-23 8.1-35.2-7.9 3.3-16.1 5.8-24.6 7.9 2.9-9.9 5-20.1 6.4-30.4 0.7-5.3 0.7-11.8-3.2-14.9-1.5-1.1-3.3-1.6-5.1-1.9-4.4-0.7-8.8-1.2-13.3-1.7-7.1-0.7-14.3-1.6-21.5-0.7-11.3 1.3-22.2 7-30.4 15.8-8.2 8.8-13.6 20.8-15.1 33.7z"/>
			<path id="&lt;Path&gt;" class="s0" d="m5942.2 1928.1l-22.2 7.2c-0.6 0.2-0.6 1.2 0.1 1.4 5 1.4 16.8 5.1 22.3 9.7 2.4 2 4.7 4.2 7.4 5.8 1.9 1.1 4 1.8 6 2.9 2.6 1.4 4.8 3.6 6.9 5.8 3.4 3.5 6.7 7.2 10.8 9.7 3.9 2.3 8.6 3.8 10.6 8.1 1.9 0.6 2.6-0.5 1.4-2.3-3.7-5.7-7.2-12.1-12.5-16.1 5.3 1.4 9.9 4.9 14.6 8.2 4.6 3.2 9.7 6.2 15.2 6.2 5.5 0 11.3-4.1 11.9-10.2 0.4-3.8-1.3-7.4-2.7-10.9-1.4-3.5-2.5-7.6-1.6-10.8l5 9c0.5 0.9 1.1 1.9 2 2.3 1 0.4 2.2-0.1 3-0.8 0.8-0.8 1.3-1.9 1.7-3 4-8.9 6.9-18.6 6.6-28.5-6.4 2.7-13 4.7-20 6.5 2.4-8 4.1-16.3 5.2-24.7 0.6-4.3 0.6-9.5-2.6-12-1.2-0.9-2.6-1.3-4.1-1.5-3.6-0.6-7.1-1-10.7-1.4-5.8-0.6-11.6-1.3-17.4-0.6-9.2 1-18.1 5.6-24.7 12.8-6.6 7.1-11 16.8-12.2 27.2z"/>
			<path id="&lt;Path&gt;" class="s0" d="m6133.7 2075.2l-13.9 4.4c-0.4 0.2-0.4 0.8 0 0.9 3.2 0.9 10.5 3.2 14 6.1 1.5 1.2 2.9 2.6 4.6 3.6 1.2 0.7 2.6 1.1 3.8 1.8 1.6 1 3 2.3 4.3 3.7 2.2 2.2 4.2 4.5 6.8 6 2.4 1.5 5.4 2.4 6.6 5.2 1.3 0.3 1.7-0.4 0.9-1.5-2.3-3.6-4.5-7.6-7.8-10.1 3.3 0.9 6.2 3.1 9.1 5.1 2.9 2 6.1 3.9 9.6 3.9 3.4 0 7-2.6 7.4-6.3 0.2-2.4-0.8-4.7-1.7-6.9-0.9-2.2-1.5-4.8-1-6.8l3.1 5.7c0.4 0.5 0.7 1.2 1.3 1.4 0.6 0.3 1.4 0 1.9-0.5 0.5-0.5 0.8-1.2 1.1-1.9 2.4-5.5 4.3-11.6 4.1-17.8-4 1.7-8.2 2.9-12.5 4 1.4-5 2.5-10.2 3.2-15.4 0.4-2.7 0.4-6-1.6-7.5-0.8-0.6-1.7-0.9-2.6-1-2.2-0.4-4.5-0.6-6.7-0.9-3.6-0.4-7.3-0.8-10.9-0.4-5.8 0.7-11.3 3.6-15.5 8.1-4.1 4.5-6.8 10.5-7.6 17.1z"/>
			<path id="&lt;Path&gt;" class="s0" d="m6133.7 1969.1l-13.9 4.5c-0.4 0.1-0.4 0.8 0 0.9 3.2 0.9 10.5 3.2 14 6.1 1.5 1.2 2.9 2.6 4.6 3.6 1.2 0.7 2.6 1.1 3.8 1.8 1.6 0.9 3 2.3 4.3 3.7 2.2 2.2 4.2 4.5 6.8 6 2.4 1.5 5.4 2.4 6.6 5.1 1.3 0.4 1.7-0.3 0.9-1.5-2.3-3.5-4.5-7.5-7.8-10 3.3 0.8 6.2 3.1 9.1 5.1 2.9 2 6.1 3.9 9.6 3.9 3.4 0 7-2.6 7.4-6.4 0.2-2.4-0.8-4.6-1.7-6.8-0.9-2.2-1.5-4.8-1-6.8l3.1 5.6c0.4 0.6 0.7 1.2 1.3 1.5 0.6 0.2 1.4 0 1.9-0.5 0.5-0.5 0.8-1.2 1.1-1.9 2.4-5.5 4.3-11.6 4.1-17.8-4 1.6-8.2 2.9-12.5 4 1.4-5 2.5-10.2 3.2-15.4 0.4-2.7 0.4-6-1.6-7.6-0.8-0.6-1.7-0.8-2.6-0.9-2.2-0.4-4.5-0.7-6.7-0.9-3.6-0.4-7.3-0.8-10.9-0.4-5.8 0.7-11.3 3.6-15.5 8-4.1 4.5-6.8 10.6-7.6 17.1z"/>
			<path id="&lt;Path&gt;" class="s0" d="m6217.7 2066.4l-13.9 4.5c-0.4 0.2-0.4 0.8 0 0.9 3.2 0.9 10.6 3.2 14 6.1 1.5 1.2 3 2.6 4.6 3.6 1.3 0.7 2.6 1.1 3.8 1.8 1.6 0.9 3 2.3 4.4 3.7 2.1 2.2 4.2 4.5 6.7 6 2.4 1.5 5.4 2.4 6.6 5.1 1.3 0.4 1.7-0.3 0.9-1.4-2.3-3.6-4.5-7.6-7.8-10.1 3.3 0.8 6.2 3.1 9.1 5.1 2.9 2 6.1 3.9 9.6 3.9 3.4 0 7.1-2.6 7.4-6.4 0.2-2.3-0.8-4.6-1.7-6.8-0.8-2.2-1.5-4.8-1-6.8l3.2 5.7c0.3 0.5 0.6 1.1 1.2 1.4 0.6 0.2 1.4 0 1.9-0.5 0.5-0.5 0.8-1.2 1.1-1.9 2.5-5.5 4.3-11.6 4.1-17.8-4 1.7-8.2 2.9-12.5 4 1.5-5 2.5-10.2 3.2-15.4 0.4-2.7 0.4-6-1.6-7.6-0.7-0.5-1.7-0.8-2.6-0.9-2.2-0.4-4.4-0.7-6.7-0.9-3.6-0.4-7.3-0.8-10.9-0.4-5.8 0.7-11.3 3.6-15.4 8.1-4.2 4.4-6.9 10.5-7.7 17z"/>
			<path id="&lt;Path&gt;" class="s0" d="m6185.9 1999.9l-15.1 4.9c-0.5 0.2-0.5 0.9 0 1 3.4 0.9 11.4 3.5 15.2 6.6 1.7 1.4 3.2 2.9 5.1 3.9 1.3 0.8 2.7 1.3 4.1 2 1.7 1 3.2 2.5 4.7 4 2.3 2.4 4.6 4.9 7.4 6.6 2.6 1.6 5.9 2.6 7.2 5.6 1.3 0.4 1.8-0.4 1-1.6-2.6-3.9-5-8.3-8.6-11 3.6 0.9 6.8 3.4 10 5.6 3.2 2.2 6.6 4.2 10.4 4.2 3.7 0 7.7-2.8 8.1-6.9 0.2-2.6-0.9-5.1-1.9-7.5-0.9-2.4-1.7-5.2-1.1-7.4l3.5 6.2c0.3 0.6 0.7 1.3 1.3 1.5 0.7 0.3 1.5 0 2-0.5 0.6-0.6 0.9-1.3 1.3-2 2.7-6.1 4.7-12.7 4.4-19.5-4.3 1.9-8.9 3.2-13.6 4.4 1.6-5.4 2.8-11.1 3.6-16.8 0.3-2.9 0.4-6.5-1.8-8.2-0.8-0.7-1.8-0.9-2.8-1.1-2.5-0.4-4.9-0.6-7.3-0.9-4-0.4-8-0.9-11.9-0.4-6.3 0.7-12.3 3.8-16.9 8.7-4.5 4.9-7.5 11.5-8.3 18.6z"/>
			<path id="&lt;Path&gt;" class="s0" d="m5969.7 2055.6l-15.2 4.9c-0.4 0.1-0.4 0.8 0 0.9 3.5 1 11.5 3.5 15.3 6.6 1.6 1.4 3.2 2.9 5 4 1.3 0.7 2.8 1.2 4.1 2 1.8 1 3.3 2.5 4.8 4 2.3 2.4 4.5 4.9 7.3 6.5 2.6 1.6 5.9 2.7 7.2 5.6 1.4 0.4 1.8-0.3 1-1.6-2.5-3.9-4.9-8.2-8.5-10.9 3.6 0.9 6.8 3.3 9.9 5.5 3.2 2.2 6.7 4.3 10.4 4.3 3.8 0 7.8-2.8 8.1-7 0.3-2.6-0.9-5-1.8-7.4-1-2.4-1.7-5.2-1.1-7.4l3.4 6.1c0.4 0.7 0.8 1.3 1.4 1.6 0.7 0.3 1.5 0 2-0.6 0.6-0.5 0.9-1.3 1.2-2 2.7-6 4.7-12.7 4.5-19.4-4.4 1.8-8.9 3.2-13.6 4.4 1.6-5.5 2.8-11.1 3.5-16.8 0.4-3 0.4-6.6-1.8-8.3-0.8-0.6-1.8-0.9-2.8-1-2.4-0.4-4.8-0.7-7.3-1-3.9-0.4-7.9-0.8-11.9-0.4-6.3 0.7-12.3 3.9-16.8 8.8-4.5 4.9-7.5 11.5-8.3 18.6z"/>
			<path id="&lt;Path&gt;" class="s0" d="m6045.7 1946.7l-15.2 4.9c-0.4 0.1-0.4 0.8 0 0.9 3.4 1 11.5 3.5 15.3 6.6 1.6 1.4 3.2 2.9 5 4 1.3 0.7 2.8 1.2 4.1 2 1.8 1 3.3 2.5 4.7 4 2.4 2.4 4.6 4.9 7.4 6.5 2.6 1.6 5.9 2.6 7.2 5.6 1.4 0.4 1.8-0.3 1-1.6-2.5-3.9-4.9-8.2-8.6-10.9q0 0 0 0c3.7 0.9 6.8 3.3 10 5.5 3.2 2.2 6.7 4.3 10.4 4.3 3.8 0 7.7-2.8 8.1-7 0.3-2.6-0.9-5-1.8-7.4-1-2.4-1.7-5.3-1.1-7.4l3.4 6.1c0.4 0.7 0.7 1.3 1.4 1.6 0.7 0.3 1.4 0 2-0.6 0.5-0.5 0.9-1.3 1.2-2 2.7-6.1 4.7-12.7 4.5-19.4-4.4 1.8-8.9 3.2-13.7 4.4 1.7-5.5 2.8-11.1 3.6-16.9 0.4-2.9 0.4-6.5-1.8-8.2-0.8-0.6-1.8-0.9-2.8-1-2.4-0.4-4.9-0.7-7.3-1-3.9-0.4-7.9-0.9-11.9-0.4-6.3 0.7-12.3 3.9-16.8 8.8-4.6 4.9-7.5 11.5-8.3 18.6z"/>
			<path id="&lt;Path&gt;" class="s0" d="m6045.7 2023l-15.2 4.9c-0.4 0.2-0.4 0.9 0 1 3.4 1 11.5 3.5 15.3 6.6 1.6 1.4 3.2 2.9 5 3.9 1.3 0.8 2.8 1.3 4.1 2 1.8 1 3.3 2.5 4.7 4 2.4 2.4 4.6 4.9 7.4 6.6 2.6 1.6 5.9 2.6 7.2 5.6 1.4 0.4 1.8-0.4 1-1.6-2.5-3.9-4.9-8.3-8.6-11q0 0 0 0c3.7 0.9 6.8 3.4 10 5.6 3.2 2.2 6.7 4.2 10.4 4.2 3.8 0 7.7-2.8 8.1-6.9 0.3-2.6-0.9-5.1-1.8-7.5-1-2.4-1.7-5.2-1.1-7.4l3.4 6.2c0.4 0.6 0.7 1.3 1.4 1.5 0.7 0.3 1.4 0 2-0.5 0.5-0.6 0.9-1.3 1.2-2 2.7-6.1 4.7-12.7 4.5-19.5-4.4 1.9-8.9 3.2-13.7 4.4 1.7-5.4 2.8-11.1 3.6-16.8 0.4-2.9 0.4-6.5-1.8-8.2-0.8-0.6-1.8-0.9-2.8-1.1-2.4-0.4-4.9-0.6-7.3-0.9-3.9-0.4-7.9-0.9-11.9-0.4-6.3 0.7-12.3 3.8-16.8 8.7-4.6 4.9-7.5 11.5-8.3 18.6z"/>
		</g>
		<path id="&lt;Path&gt;" class="s0" d="m4841.2 1535.7c-1.4 1.2-3 2.5-4.9 2.5-2.2-0.1-3.8-1.9-5.2-3.5-17.1-18.8-46.3-21.4-72.3-25.2-21.8-3.3-43.4-8.4-64.2-15.4-19.5-6.5-39.8-15.8-49.4-33-11.4-20.5-4.5-45.3 2.7-67.4-41.5 14.8-72 53.9-73.2 85.7-50.4 0.9-101.1 1.8-150.8 9.8-49.8 7.9-98.9 23.2-140.2 50.6 20.9 17 45.9 29.4 73.2 35-2.6 1.3-4.8 3.2-6.1 5.8 56.7 35.2 126.3 58.7 192.5 44.5 15.4 26.7 44.2 46.2 75.9 51.4-6.2-15.9-7.7-33.4-4.2-50 24.6-0.9 49.2-2.7 73.7-5.4 13.1-1.4 26.2-3.2 38.7-7.1 9.2-2.8 18.1-6.9 27.7-7.7 24.8-2.2 49.1 17.2 70.9 10.5q-7.2-13.1-13.9-26.5 16.9-4.3 33.7-8.5c1.9-0.5 4-1 5.9-0.5 2.2 0.5 3.9 2.1 5.5 3.6 10.2 9.6 23.2 16.5 37.2 19.9-0.5-10.6 1.3-21.4 5.3-31.3 12.5 2.7 25.6 2.5 38.1-0.4 4.6 43.7 38.8 83.4 83.3 96.6-18.3-25.8-34.1-54.1-37.9-84.9-3.9-30.8 6.1-64.5 31.8-83.8 4.6-3.5 9.7-6.6 12.6-11.4 4.6-7.4 2.6-16.7 1.5-25.2-1-8.5-0.1-18.8 7.6-23.3-31.4 7.6-54.3 32.2-78 53.1-23.7 21-54.8 40.3-86.6 34.8-10.7-1.6-22.5-0.7-30.9 6.7z"/>
		<g id="&lt;Group&gt;">
		</g>
		<g id="&lt;Group&gt;">
		</g>
		<g id="&lt;Group&gt;">
		</g>
		<g id="&lt;Group&gt;">
		</g>
		<g id="&lt;Group&gt;">
			<g id="&lt;Group&gt;">
			</g>
			<g id="&lt;Group&gt;">
			</g>
			<g id="&lt;Group&gt;">
			</g>
			<g id="&lt;Group&gt;">
			</g>
			<g id="&lt;Group&gt;">
			</g>
			<g id="&lt;Group&gt;">
			</g>
			<g id="&lt;Group&gt;">
			</g>
			<g id="&lt;Group&gt;">
			</g>
			<g id="&lt;Group&gt;">
			</g>
			<g id="&lt;Group&gt;">
			</g>
			<g id="&lt;Group&gt;">
			</g>
			<g id="&lt;Group&gt;">
			</g>
			<g id="&lt;Group&gt;">
			</g>
			<g id="&lt;Group&gt;">
			</g>
			<g id="&lt;Group&gt;">
			</g>
			<g id="&lt;Group&gt;">
			</g>
			<g id="&lt;Group&gt;">
			</g>
			<g id="&lt;Group&gt;">
			</g>
			<g id="&lt;Group&gt;">
			</g>
			<g id="&lt;Group&gt;">
			</g>
			<g id="&lt;Group&gt;">
			</g>
			<g id="&lt;Group&gt;">
			</g>
			<g id="&lt;Group&gt;">
			</g>
			<g id="&lt;Group&gt;">
			</g>
			<g id="&lt;Group&gt;">
			</g>
			<g id="&lt;Group&gt;">
			</g>
			<g id="&lt;Group&gt;">
			</g>
			<g id="&lt;Group&gt;">
			</g>
			<g id="&lt;Group&gt;">
			</g>
			<g id="&lt;Group&gt;">
			</g>
			<g id="&lt;Group&gt;">
			</g>
			<g id="&lt;Group&gt;">
			</g>
			<g id="&lt;Group&gt;">
			</g>
			<g id="&lt;Group&gt;">
			</g>
			<g id="&lt;Group&gt;">
			</g>
			<g id="&lt;Group&gt;">
			</g>
			<g id="&lt;Group&gt;">
			</g>
			<g id="&lt;Group&gt;">
			</g>
			<g id="&lt;Group&gt;">
			</g>
			<g id="&lt;Group&gt;">
			</g>
			<g id="&lt;Group&gt;">
			</g>
			<g id="&lt;Group&gt;">
			</g>
			<g id="&lt;Group&gt;">
			</g>
			<g id="&lt;Group&gt;">
			</g>
			<g id="&lt;Group&gt;">
			</g>
			<g id="&lt;Group&gt;">
			</g>
			<g id="&lt;Group&gt;">
			</g>
			<g id="&lt;Group&gt;">
			</g>
			<g id="&lt;Group&gt;">
			</g>
			<g id="&lt;Group&gt;">
			</g>
			<g id="&lt;Group&gt;">
			</g>
			<g id="&lt;Group&gt;">
			</g>
			<g id="&lt;Group&gt;">
			</g>
			<g id="&lt;Group&gt;">
			</g>
			<g id="&lt;Group&gt;">
			</g>
			<g id="&lt;Group&gt;">
			</g>
			<g id="&lt;Group&gt;">
			</g>
			<g id="&lt;Group&gt;">
			</g>
			<g id="&lt;Group&gt;">
			</g>
			<g id="&lt;Group&gt;">
			</g>
		</g>
		<g id="&lt;Group&gt;">
			<path id="&lt;Path&gt;" class="s0" d="m1356.4 2054.3q-5.7 6.1-11.4 12.1c8.6 1 10.4 12.5 10.8 21.1 1 26.7 10 52.9 25.6 74.6 5.6 7.9 12.1 15.3 15.4 24.4 0.8 2.5 1.5 5.1 2.9 7.3 1.6 2.5 4.1 4.2 6.3 6.1 6 5.4 10.4 12.7 11.1 26.2 3.6 8.3-1.7 17.7-8.1 24-6.3 6.4-14.2 11.7-17.9 19.9 1.1 18.3 21.8 28.6 30 45 2.4 4.9 3.8 10.6 7.2 14.9 2.5 3.3 6 5.6 9.4 7.9q11.8 7.9 23.6 15.8c1.8 1.2 3.7 2.5 5.9 3.1 3.6 0.9 7.4-0.2 11-0.7 30.8-4.4 58 31.9 90.6 21.3 17.3 11.8 38.6 16 59.2 19.8 13.2 2.5 26.3 5 39.6 6.6 20.1 2.6 40.3 3.3 60.5 4.1 5.9 0.2 12 0.4 17.4-1.9 4.3-1.8 7.9-5.1 12-7.4 12.2-6.9 27.5-4.7 41.1-8.1 20.2-5.1 35-21.8 53.2-31.9 10.4-5.7 21.8-9.2 33.1-12.5 1.8-0.5 3.8-1.3 4.2-3 0.5-2.4-2.3-4.1-4.7-4.1-2.4 0-4.8 1-7.1 0.5-5-0.9-6.5-7.1-9.4-11.1-3.7-5-10.4-7.2-14.3-12-2.8-3.5-3.9-7.9-5.4-12.1-4.8-13.4-14-24.7-23.1-35.7-8-9.9-16.1-19.7-22.7-27.5-8.9-1.7-16.7-7.9-20.2-16.2-1.2-2.7-2-5.7-4.1-7.8-3.5-3.5-9.4-3.3-13.7-5.8-5.8-3.4-7.5-11-12.3-15.8-7.2-7.2-19.8-6.5-27.1-13.8-3.2-3.2-4.9-7.6-7.6-11.3-6.7-9.2-18.3-13.1-29.2-16.3-10.8-3.3-21.7-6.6-33.9-10-14.4 7.3-31.6 5-47.2 0.9-15.5-4.1-31.1-9.9-47.2-9.1-9.1 0.5-19.2 2.9-26.6-2.4-3.5-2.4-6.3-6.5-10.6-6.7-2.3-0.2-4.6 1-6.7 2.1q-12.5 6.5-25.1 13.1c-6.8-19.5-17.9-37.1-28.9-54.5q-3.7-5.8-7.3-11.6c-2-3.1-3.9-6.2-6.4-8.8-2.7-2.8-5.9-5.1-8.4-8.1-4.3-5.4-6.1-13.1-12.1-16.4-10.9-5.8-26.2 7.7-35.9 0.1-1.2-0.9-2.2-2.1-3.6-2.7-1.6-0.6-3.5-0.1-5.2 0.3-10.7 2.8-19.8 6.8-26.7 14.1z"/>
			<path id="&lt;Path&gt;" class="s0" d="m1584.7 2294.6c-17.4 54.8-18.9 113.8-10.4 170.7 8.4 56.9 26.5 112 47.7 165.4 2 5 4.2 10.2 8.3 13.6 2.6 2.1 5.8 3.4 8.1 5.8 4.8 4.7 4.8 12.3 5.5 19 0.8 6.7 3.9 14.5 10.3 14 12.7 11.2 19.3 27.9 31.2 39.9 9 9.1 20.7 15.1 32.2 20.9 10.1 5.1 20.3 10.3 31.3 12.9 11 2.6 23.1 2.6 33.2-2.5 1.4-0.7 2.9-2.2 0.7-11.9-10-4.2-14.4-16.1-15.2-26.9-0.8-10.8 0.7-21.9-2.3-32.2-4.7-15.9-19.1-27.3-24.1-43-2.4-7.3-2.5-15.1-5.1-22.3-2.7-7.5-7.9-13.9-10-21.6-4.7-16.9 6.4-36.6-2.4-51.8-2.9-5.1-7.7-8.9-9.8-14.4-2.4-6.4-0.4-13.5 0.7-20.2 1.1-6.8 0.9-14.8-4.4-19.1-2.3-1.8-5.3-2.8-6.6-5.4-2.4-4.8 3.1-10 3.2-15.4 0.1-5.1-4.7-8.8-7.8-12.9-3.1-4.1-3.4-11.8 0.6-13.5q0.9-6.3 1.8-12.7c-6.4-2.5-14-6.6-13.9-13.5 0-7.1 8.6-13.1 6.1-19.8-1.6-4.3-6.7-5.7-11-7.3-4.3-1.6-8.9-5.6-7.5-11.7-3.1-5.3-6.4-11.3-5-17.3 1-4.7 4.8-8.9 4.3-13.7-0.7-6.3-8.1-9.1-13.4-12.6-9.2-6.2-14.1-18.2-11.8-29-20.1-8.5-43-10.1-64.5-11.5z"/>
			<path id="&lt;Path&gt;" class="s0" d="m1542.1 2590.5c-20.7 3.8-42.6 0.4-61.1-9.5-4-2.1-7.9-4.5-10.8-7.9-1.8-2-3.2-4.4-4.8-6.5-5-6.8-12.1-12-20.1-14.8-3.8-1.4-7.9-2.2-11.4-4.3-9.4-5.7-11.1-18.4-11.8-29.4-18.2-32.4-46.5-57.9-52.6-91.6-1.5-8.4-1.6-17-3.9-25.2-2.8-9.9-8.7-18.7-12.3-28.5-8-22.1-3-46.6 2.1-69.6 0-10.5 7.7-17.3 15.1-23.6 4.9-4.2 9.8-8.4 15.7-11 2.7-1.1 5.5-1.9 8.2-3.1 8.9-3.9 15.4-11.6 21.6-19.1 8.6-10.3 17.1-20.6 34.1-28.1 5.5 17 13.2 33.3 22.7 48.4 2.3 3.7 4.8 7.4 6.2 11.5 0.4 0.9 0.7 2 0.4 3-0.6 1.7-2.4 2.4-4 3.2-6 3.4-8 11.1-7.8 18 0.1 6.9 1.7 13.8 0.6 20.6-0.2 1.1-0.6 2.3-1.5 3-0.9 0.7-2.1 0.7-3.2 0.9-5.5 0.5-10.8 3.4-17.1 10.9-0.3 14.3-10 27.1-10.2 41.3-0.2 15.9 11.2 29.5 15.6 44.8 4.1 13.9 2.4 29.3 8.6 42.3 6 12.6 18.2 20.8 34.6 31 5.9 1.8 10.3 7 13.2 12.5 2.9 5.5 4.7 11.5 7.5 17 11.2 21.6 36.3 31 56.1 45.1-6.3 5.6-11 15.3-29.7 18.7z"/>
			<path id="&lt;Path&gt;" class="s0" d="m1831.9 2350.9q3 7.7 6 15.3c0.7 1.8 1.3 3.6 1.2 5.4-0.1 2.3-1.4 4.2-2.4 6.3-4.7 10-0.9 22.1 5.1 31.5 6 9.3 14.2 17.2 24.8 29.6 1 13 18.3 16.8 27.5 26.2 3.7 3.8 6.1 8.7 8.9 13.2 6.2 9.6 14.7 17.7 24.6 23.4-3.9 6.3-12.3 7.6-19.7 8-16.6 1-33.4 0.5-49.9-1.3-5-0.5-10.1-1.2-14.6-3.4-4.5-2.1-8.2-5.6-11.8-9.1-17.6-16.8-36.1-35.3-40.1-59.3-0.3-2.1-0.5-4.4 0.5-6.2 1.4-2.5 4.5-3.5 6.4-5.7 2.7-3.3 1.8-8.5-1-11.7-2.7-3.3-6.8-5.1-10.7-6.8q-26.4-11.4-52.8-22.7c20.9-20.5 48.5-34.1 98-32.7z"/>
		</g>
		<g id="&lt;Group&gt;">
		</g>
		<g id="&lt;Group&gt;">
		</g>
	</g>
</svg>