<svg version="1.2" xmlns="http://www.w3.org/2000/svg" viewBox="0 0 2000 721" width="2000" height="721">
	<title>Новый проект</title>
	<style>
		.s0 { opacity: .2;fill: none;stroke: #ffffff;stroke-width: 3 } 
	</style>
	<path id="Layer" fill-rule="evenodd" class="s0" d="m146.9 83.6c-51 0-100.4-48-150-48m226.7 23.5c24.6-11.8 49-23.5 73.3-23.5zm-76.6 24.5l76.6-24.5c-25.3 12.2-50.7 24.5-76.6 24.5zm-150-66c24.4 0 48.7 11.7 73.3 23.5zm73.3 23.5l76.7 24.5c-25.9 0-51.4-12.3-76.7-24.5zm153.4 0c24.5-11.8 48.9-23.5 73.3-23.5zm-76.7 24.5l76.7-24.5c-25.3 12.2-50.8 24.5-76.7 24.5zm-150-66c24.4 0 48.8 11.7 73.4 23.5zm73.3 23.5l76.7 24.5c-25.9 0-51.4-12.3-76.7-24.5zm153.3 0c24.6-11.8 49-23.5 73.4-23.5zm-76.7 24.5l76.7-24.5c-25.3 12.2-50.8 24.5-76.7 24.5zm-150 6c24.4 0 48.8 11.7 73.3 23.5zm73.3 23.5l76.7 24.5c-25.9 0-51.4-12.3-76.7-24.5zm153.4 0c24.5-11.8 48.9-23.5 73.3-23.5zm-76.7 24.5l76.7-24.5c-25.3 12.2-50.8 24.5-76.7 24.5zm-150-30c24.4 0 48.8 11.7 73.4 23.5zm73.3 23.5l76.7 24.5c-25.9 0-51.4-12.3-76.7-24.5zm153.3 0c24.6-11.8 49-23.5 73.4-23.5zm-76.7 24.5l76.7-24.5c-25.3 12.2-50.8 24.5-76.7 24.5z"/>
	<path id="Layer copy" fill-rule="evenodd" class="s0" d="m446.9 83.6c-51 0-100.4-48-150-48m226.7 23.5c24.6-11.8 49-23.5 73.3-23.5zm-76.6 24.5l76.6-24.5c-25.3 12.2-50.7 24.5-76.6 24.5zm-150-66c24.4 0 48.7 11.7 73.3 23.5zm73.3 23.5l76.7 24.5c-25.9 0-51.4-12.3-76.7-24.5zm153.4 0c24.5-11.8 48.9-23.5 73.3-23.5zm-76.7 24.5l76.7-24.5c-25.3 12.2-50.8 24.5-76.7 24.5zm-150-66c24.4 0 48.8 11.7 73.4 23.5zm73.3 23.5l76.7 24.5c-25.9 0-51.4-12.3-76.7-24.5zm153.3 0c24.6-11.8 49-23.5 73.4-23.5zm-76.7 24.5l76.7-24.5c-25.3 12.2-50.8 24.5-76.7 24.5zm-150 6c24.4 0 48.8 11.7 73.3 23.5zm73.3 23.5l76.7 24.5c-25.9 0-51.4-12.3-76.7-24.5zm153.4 0c24.5-11.8 48.9-23.5 73.3-23.5zm-76.7 24.5l76.7-24.5c-25.3 12.2-50.8 24.5-76.7 24.5zm-150-30c24.4 0 48.8 11.7 73.4 23.5zm73.3 23.5l76.7 24.5c-25.9 0-51.4-12.3-76.7-24.5zm153.3 0c24.6-11.8 49-23.5 73.4-23.5zm-76.7 24.5l76.7-24.5c-25.3 12.2-50.8 24.5-76.7 24.5z"/>
	<path id="Layer copy 2" fill-rule="evenodd" class="s0" d="m596.9 35.6c49.6 0 99 48 150 48m150-48c-24.3 0-48.7 11.7-73.3 23.5zm-73.3 23.4l-76.7 24.6c25.9 0 51.4-12.4 76.7-24.6zm-153.4-18c-24.5-11.8-48.9-23.4-73.3-23.4zm76.7 24.5l-76.7-24.5c25.3 12.2 50.8 24.5 76.7 24.5zm150-48c-24.4 0-48.8 11.7-73.3 23.5zm-73.4 23.4l-76.6 24.6c25.8 0 51.3-12.4 76.6-24.6zm-153.3-18c-24.6-11.8-49-23.4-73.3-23.4zm76.6 24.5l-76.6-24.5c25.3 12.2 50.8 24.5 76.6 24.5zm150-48c-24.3 0-48.7 11.7-73.3 23.5zm-73.3 23.4l-76.7 24.6c25.9 0 51.4-12.4 76.7-24.6zm-153.4 54c-24.5-11.8-48.9-23.4-73.3-23.4zm76.7 24.5l-76.7-24.5c25.3 12.2 50.8 24.5 76.7 24.5zm150-48c-24.4 0-48.8 11.7-73.3 23.5zm-73.4 23.4l-76.6 24.6c25.8 0 51.3-12.4 76.6-24.6zm-153.3 18c-24.6-11.8-49-23.4-73.3-23.4zm76.6 24.5l-76.6-24.5c25.3 12.2 50.7 24.5 76.6 24.5zm150-48c-24.4 0-48.7 11.7-73.3 23.5zm-73.3 23.4l-76.7 24.6c25.9 0 51.4-12.4 76.7-24.6z"/>
	<path id="Layer copy 3" fill-rule="evenodd" class="s0" d="m1046.9 83.6c-51 0-100.4-48-150-48m226.7 23.5c24.6-11.8 49-23.5 73.3-23.5zm-76.6 24.5l76.6-24.5c-25.3 12.2-50.7 24.5-76.6 24.5zm-150-66c24.4 0 48.7 11.7 73.3 23.5zm73.3 23.5l76.7 24.5c-25.9 0-51.4-12.3-76.7-24.5zm153.4 0c24.5-11.8 48.9-23.5 73.3-23.5zm-76.7 24.5l76.7-24.5c-25.3 12.2-50.8 24.5-76.7 24.5zm-150-66c24.4 0 48.8 11.7 73.4 23.5zm73.3 23.5l76.7 24.5c-25.9 0-51.4-12.3-76.7-24.5zm153.3 0c24.6-11.8 49-23.5 73.4-23.5zm-76.7 24.5l76.7-24.5c-25.3 12.2-50.8 24.5-76.7 24.5zm-150 6c24.4 0 48.8 11.7 73.3 23.5zm73.3 23.5l76.7 24.5c-25.9 0-51.4-12.3-76.7-24.5zm153.4 0c24.5-11.8 48.9-23.5 73.3-23.5zm-76.7 24.5l76.7-24.5c-25.3 12.2-50.8 24.5-76.7 24.5zm-150-30c24.4 0 48.8 11.7 73.4 23.5zm73.3 23.5l76.7 24.5c-25.9 0-51.4-12.3-76.7-24.5zm153.3 0c24.6-11.8 49-23.5 73.4-23.5zm-76.7 24.5l76.7-24.5c-25.3 12.2-50.8 24.5-76.7 24.5z"/>
	<path id="Layer copy 4" fill-rule="evenodd" class="s0" d="m1346.9 83.6c-51 0-100.4-48-150-48m226.7 23.5c24.6-11.8 49-23.5 73.3-23.5zm-76.6 24.5l76.6-24.5c-25.3 12.2-50.7 24.5-76.6 24.5zm-150-66c24.4 0 48.7 11.7 73.3 23.5zm73.3 23.5l76.7 24.5c-25.9 0-51.4-12.3-76.7-24.5zm153.4 0c24.5-11.8 48.9-23.5 73.3-23.5zm-76.7 24.5l76.7-24.5c-25.3 12.2-50.8 24.5-76.7 24.5zm-150-66c24.4 0 48.8 11.7 73.4 23.5zm73.3 23.5l76.7 24.5c-25.9 0-51.4-12.3-76.7-24.5zm153.3 0c24.6-11.8 49-23.5 73.4-23.5zm-76.7 24.5l76.7-24.5c-25.3 12.2-50.8 24.5-76.7 24.5zm-150 6c24.4 0 48.8 11.7 73.3 23.5zm73.3 23.5l76.7 24.5c-25.9 0-51.4-12.3-76.7-24.5zm153.4 0c24.5-11.8 48.9-23.5 73.3-23.5zm-76.7 24.5l76.7-24.5c-25.3 12.2-50.8 24.5-76.7 24.5zm-150-30c24.4 0 48.8 11.7 73.4 23.5zm73.3 23.5l76.7 24.5c-25.9 0-51.4-12.3-76.7-24.5zm153.3 0c24.6-11.8 49-23.5 73.4-23.5zm-76.7 24.5l76.7-24.5c-25.3 12.2-50.8 24.5-76.7 24.5z"/>
	<path id="Layer copy 5" fill-rule="evenodd" class="s0" d="m1646.9 83.6c-51 0-100.4-48-150-48m226.7 23.5c24.6-11.8 49-23.5 73.3-23.5zm-76.6 24.5l76.6-24.5c-25.3 12.2-50.7 24.5-76.6 24.5zm-150-66c24.4 0 48.7 11.7 73.3 23.5zm73.3 23.5l76.7 24.5c-25.9 0-51.4-12.3-76.7-24.5zm153.4 0c24.5-11.8 48.9-23.5 73.3-23.5zm-76.7 24.5l76.7-24.5c-25.3 12.2-50.8 24.5-76.7 24.5zm-150-66c24.4 0 48.8 11.7 73.4 23.5zm73.3 23.5l76.7 24.5c-25.9 0-51.4-12.3-76.7-24.5zm153.3 0c24.6-11.8 49-23.5 73.4-23.5zm-76.7 24.5l76.7-24.5c-25.3 12.2-50.8 24.5-76.7 24.5zm-150 6c24.4 0 48.8 11.7 73.3 23.5zm73.3 23.5l76.7 24.5c-25.9 0-51.4-12.3-76.7-24.5zm153.4 0c24.5-11.8 48.9-23.5 73.3-23.5zm-76.7 24.5l76.7-24.5c-25.3 12.2-50.8 24.5-76.7 24.5zm-150-30c24.4 0 48.8 11.7 73.4 23.5zm73.3 23.5l76.7 24.5c-25.9 0-51.4-12.3-76.7-24.5zm153.3 0c24.6-11.8 49-23.5 73.4-23.5zm-76.7 24.5l76.7-24.5c-25.3 12.2-50.8 24.5-76.7 24.5z"/>
	<path id="Layer copy 6" fill-rule="evenodd" class="s0" d="m1946.9 83.6c-51 0-100.4-48-150-48m226.7 23.5c24.6-11.8 49-23.5 73.3-23.5zm-76.6 24.5l76.6-24.5c-25.3 12.2-50.7 24.5-76.6 24.5zm-150-66c24.4 0 48.7 11.7 73.3 23.5zm73.3 23.5l76.7 24.5c-25.9 0-51.4-12.3-76.7-24.5zm153.4 0c24.5-11.8 48.9-23.5 73.3-23.5zm-76.7 24.5l76.7-24.5c-25.3 12.2-50.8 24.5-76.7 24.5zm-150-66c24.4 0 48.8 11.7 73.4 23.5zm73.3 23.5l76.7 24.5c-25.9 0-51.4-12.3-76.7-24.5zm153.3 0c24.6-11.8 49-23.5 73.4-23.5zm-76.7 24.5l76.7-24.5c-25.3 12.2-50.8 24.5-76.7 24.5zm-150 6c24.4 0 48.8 11.7 73.3 23.5zm73.3 23.5l76.7 24.5c-25.9 0-51.4-12.3-76.7-24.5zm153.4 0c24.5-11.8 48.9-23.5 73.3-23.5zm-76.7 24.5l76.7-24.5c-25.3 12.2-50.8 24.5-76.7 24.5zm-150-30c24.4 0 48.8 11.7 73.4 23.5zm73.3 23.5l76.7 24.5c-25.9 0-51.4-12.3-76.7-24.5zm153.3 0c24.6-11.8 49-23.5 73.4-23.5zm-76.7 24.5l76.7-24.5c-25.3 12.2-50.8 24.5-76.7 24.5z"/>
	<path id="Layer copy 7" fill-rule="evenodd" class="s0" d="m146.9-3.4c-51 0-100.4-48-150-48m226.7 23.5c24.6-11.8 49-23.5 73.3-23.5zm-76.6 24.5l76.6-24.5c-25.3 12.2-50.7 24.5-76.6 24.5zm-150-66c24.4 0 48.7 11.7 73.3 23.5zm73.3 23.5l76.7 24.5c-25.9 0-51.4-12.3-76.7-24.5zm153.4 0c24.5-11.8 48.9-23.5 73.3-23.5zm-76.7 24.5l76.7-24.5c-25.3 12.2-50.8 24.5-76.7 24.5zm-150-66c24.4 0 48.8 11.7 73.4 23.5zm73.3 23.5l76.7 24.5c-25.9 0-51.4-12.3-76.7-24.5zm153.3 0c24.6-11.8 49-23.5 73.4-23.5zm-76.7 24.5l76.7-24.5c-25.3 12.2-50.8 24.5-76.7 24.5zm-150 6c24.4 0 48.8 11.7 73.3 23.5zm73.3 23.5l76.7 24.5c-25.9 0-51.4-12.3-76.7-24.5zm153.4 0c24.5-11.8 48.9-23.5 73.3-23.5zm-76.7 24.5l76.7-24.5c-25.3 12.2-50.8 24.5-76.7 24.5zm-150-30c24.4 0 48.8 11.7 73.4 23.5zm73.3 23.5l76.7 24.5c-25.9 0-51.4-12.3-76.7-24.5zm153.3 0c24.6-11.8 49-23.5 73.4-23.5zm-76.7 24.5l76.7-24.5c-25.3 12.2-50.8 24.5-76.7 24.5z"/>
	<path id="Layer copy 8" fill-rule="evenodd" class="s0" d="m446.9-3.4c-51 0-100.4-48-150-48m226.7 23.5c24.6-11.8 49-23.5 73.3-23.5zm-76.6 24.5l76.6-24.5c-25.3 12.2-50.7 24.5-76.6 24.5zm-150-66c24.4 0 48.7 11.7 73.3 23.5zm73.3 23.5l76.7 24.5c-25.9 0-51.4-12.3-76.7-24.5zm153.4 0c24.5-11.8 48.9-23.5 73.3-23.5zm-76.7 24.5l76.7-24.5c-25.3 12.2-50.8 24.5-76.7 24.5zm-150-66c24.4 0 48.8 11.7 73.4 23.5zm73.3 23.5l76.7 24.5c-25.9 0-51.4-12.3-76.7-24.5zm153.3 0c24.6-11.8 49-23.5 73.4-23.5zm-76.7 24.5l76.7-24.5c-25.3 12.2-50.8 24.5-76.7 24.5zm-150 6c24.4 0 48.8 11.7 73.3 23.5zm73.3 23.5l76.7 24.5c-25.9 0-51.4-12.3-76.7-24.5zm153.4 0c24.5-11.8 48.9-23.5 73.3-23.5zm-76.7 24.5l76.7-24.5c-25.3 12.2-50.8 24.5-76.7 24.5zm-150-30c24.4 0 48.8 11.7 73.4 23.5zm73.3 23.5l76.7 24.5c-25.9 0-51.4-12.3-76.7-24.5zm153.3 0c24.6-11.8 49-23.5 73.4-23.5zm-76.7 24.5l76.7-24.5c-25.3 12.2-50.8 24.5-76.7 24.5z"/>
	<path id="Layer copy 9" fill-rule="evenodd" class="s0" d="m746.9-3.4c-51 0-100.4-48-150-48m226.7 23.5c24.6-11.8 49-23.5 73.3-23.5zm-76.6 24.5l76.6-24.5c-25.3 12.2-50.7 24.5-76.6 24.5zm-150-66c24.4 0 48.7 11.7 73.3 23.5zm73.3 23.5l76.7 24.5c-25.9 0-51.4-12.3-76.7-24.5zm153.4 0c24.5-11.8 48.9-23.5 73.3-23.5zm-76.7 24.5l76.7-24.5c-25.3 12.2-50.8 24.5-76.7 24.5zm-150-66c24.4 0 48.8 11.7 73.4 23.5zm73.3 23.5l76.7 24.5c-25.9 0-51.4-12.3-76.7-24.5zm153.3 0c24.6-11.8 49-23.5 73.4-23.5zm-76.7 24.5l76.7-24.5c-25.3 12.2-50.8 24.5-76.7 24.5zm-150 6c24.4 0 48.8 11.7 73.3 23.5zm73.3 23.5l76.7 24.5c-25.9 0-51.4-12.3-76.7-24.5zm153.4 0c24.5-11.8 48.9-23.5 73.3-23.5zm-76.7 24.5l76.7-24.5c-25.3 12.2-50.8 24.5-76.7 24.5zm-150-30c24.4 0 48.8 11.7 73.4 23.5zm73.3 23.5l76.7 24.5c-25.9 0-51.4-12.3-76.7-24.5zm153.3 0c24.6-11.8 49-23.5 73.4-23.5zm-76.7 24.5l76.7-24.5c-25.3 12.2-50.8 24.5-76.7 24.5z"/>
	<path id="Layer copy 10" fill-rule="evenodd" class="s0" d="m1046.9-3.4c-51 0-100.4-48-150-48m226.7 23.5c24.6-11.8 49-23.5 73.3-23.5zm-76.6 24.5l76.6-24.5c-25.3 12.2-50.7 24.5-76.6 24.5zm-150-66c24.4 0 48.7 11.7 73.3 23.5zm73.3 23.5l76.7 24.5c-25.9 0-51.4-12.3-76.7-24.5zm153.4 0c24.5-11.8 48.9-23.5 73.3-23.5zm-76.7 24.5l76.7-24.5c-25.3 12.2-50.8 24.5-76.7 24.5zm-150-66c24.4 0 48.8 11.7 73.4 23.5zm73.3 23.5l76.7 24.5c-25.9 0-51.4-12.3-76.7-24.5zm153.3 0c24.6-11.8 49-23.5 73.4-23.5zm-76.7 24.5l76.7-24.5c-25.3 12.2-50.8 24.5-76.7 24.5zm-150 6c24.4 0 48.8 11.7 73.3 23.5zm73.3 23.5l76.7 24.5c-25.9 0-51.4-12.3-76.7-24.5zm153.4 0c24.5-11.8 48.9-23.5 73.3-23.5zm-76.7 24.5l76.7-24.5c-25.3 12.2-50.8 24.5-76.7 24.5zm-150-30c24.4 0 48.8 11.7 73.4 23.5zm73.3 23.5l76.7 24.5c-25.9 0-51.4-12.3-76.7-24.5zm153.3 0c24.6-11.8 49-23.5 73.4-23.5zm-76.7 24.5l76.7-24.5c-25.3 12.2-50.8 24.5-76.7 24.5z"/>
	<path id="Layer copy 11" fill-rule="evenodd" class="s0" d="m1346.9-3.4c-51 0-100.4-48-150-48m226.7 23.5c24.6-11.8 49-23.5 73.3-23.5zm-76.6 24.5l76.6-24.5c-25.3 12.2-50.7 24.5-76.6 24.5zm-150-66c24.4 0 48.7 11.7 73.3 23.5zm73.3 23.5l76.7 24.5c-25.9 0-51.4-12.3-76.7-24.5zm153.4 0c24.5-11.8 48.9-23.5 73.3-23.5zm-76.7 24.5l76.7-24.5c-25.3 12.2-50.8 24.5-76.7 24.5zm-150-66c24.4 0 48.8 11.7 73.4 23.5zm73.3 23.5l76.7 24.5c-25.9 0-51.4-12.3-76.7-24.5zm153.3 0c24.6-11.8 49-23.5 73.4-23.5zm-76.7 24.5l76.7-24.5c-25.3 12.2-50.8 24.5-76.7 24.5zm-150 6c24.4 0 48.8 11.7 73.3 23.5zm73.3 23.5l76.7 24.5c-25.9 0-51.4-12.3-76.7-24.5zm153.4 0c24.5-11.8 48.9-23.5 73.3-23.5zm-76.7 24.5l76.7-24.5c-25.3 12.2-50.8 24.5-76.7 24.5zm-150-30c24.4 0 48.8 11.7 73.4 23.5zm73.3 23.5l76.7 24.5c-25.9 0-51.4-12.3-76.7-24.5zm153.3 0c24.6-11.8 49-23.5 73.4-23.5zm-76.7 24.5l76.7-24.5c-25.3 12.2-50.8 24.5-76.7 24.5z"/>
	<path id="Layer copy 12" fill-rule="evenodd" class="s0" d="m1496.9-51.4c49.6 0 99 48 150 48m150-48c-24.3 0-48.7 11.7-73.3 23.5zm-73.3 23.4l-76.7 24.6c25.9 0 51.4-12.4 76.7-24.6zm-153.4-18c-24.5-11.8-48.9-23.4-73.3-23.4zm76.7 24.5l-76.7-24.5c25.3 12.2 50.8 24.5 76.7 24.5zm150-48c-24.4 0-48.8 11.7-73.3 23.5zm-73.4 23.4l-76.6 24.6c25.8 0 51.3-12.4 76.6-24.6zm-153.3-18c-24.6-11.8-49-23.4-73.3-23.4zm76.6 24.5l-76.6-24.5c25.3 12.2 50.8 24.5 76.6 24.5zm150-48c-24.3 0-48.7 11.7-73.3 23.5zm-73.3 23.4l-76.7 24.6c25.9 0 51.4-12.4 76.7-24.6zm-153.4 54c-24.5-11.8-48.9-23.4-73.3-23.4zm76.7 24.5l-76.7-24.5c25.3 12.2 50.8 24.5 76.7 24.5zm150-48c-24.4 0-48.8 11.7-73.3 23.5zm-73.4 23.4l-76.6 24.6c25.8 0 51.3-12.4 76.6-24.6zm-153.3 18c-24.6-11.8-49-23.4-73.3-23.4zm76.6 24.5l-76.6-24.5c25.3 12.2 50.7 24.5 76.6 24.5zm150-48c-24.4 0-48.7 11.7-73.3 23.5zm-73.3 23.4l-76.7 24.6c25.9 0 51.4-12.4 76.7-24.6z"/>
	<path id="Layer copy 13" fill-rule="evenodd" class="s0" d="m1946.9-3.4c-51 0-100.4-48-150-48m226.7 23.5c24.6-11.8 49-23.5 73.3-23.5zm-76.6 24.5l76.6-24.5c-25.3 12.2-50.7 24.5-76.6 24.5zm-150-66c24.4 0 48.7 11.7 73.3 23.5zm73.3 23.5l76.7 24.5c-25.9 0-51.4-12.3-76.7-24.5zm153.4 0c24.5-11.8 48.9-23.5 73.3-23.5zm-76.7 24.5l76.7-24.5c-25.3 12.2-50.8 24.5-76.7 24.5zm-150-66c24.4 0 48.8 11.7 73.4 23.5zm73.3 23.5l76.7 24.5c-25.9 0-51.4-12.3-76.7-24.5zm153.3 0c24.6-11.8 49-23.5 73.4-23.5zm-76.7 24.5l76.7-24.5c-25.3 12.2-50.8 24.5-76.7 24.5zm-150 6c24.4 0 48.8 11.7 73.3 23.5zm73.3 23.5l76.7 24.5c-25.9 0-51.4-12.3-76.7-24.5zm153.4 0c24.5-11.8 48.9-23.5 73.3-23.5zm-76.7 24.5l76.7-24.5c-25.3 12.2-50.8 24.5-76.7 24.5zm-150-30c24.4 0 48.8 11.7 73.4 23.5zm73.3 23.5l76.7 24.5c-25.9 0-51.4-12.3-76.7-24.5zm153.3 0c24.6-11.8 49-23.5 73.4-23.5zm-76.7 24.5l76.7-24.5c-25.3 12.2-50.8 24.5-76.7 24.5z"/>
	<path id="Layer copy 14" fill-rule="evenodd" class="s0" d="m146.9 261.6c-51 0-100.4-48-150-48m226.7 23.5c24.6-11.8 49-23.5 73.3-23.5zm-76.6 24.5l76.6-24.5c-25.3 12.2-50.7 24.5-76.6 24.5zm-150-66c24.4 0 48.7 11.7 73.3 23.5zm73.3 23.5l76.7 24.5c-25.9 0-51.4-12.3-76.7-24.5zm153.4 0c24.5-11.8 48.9-23.5 73.3-23.5zm-76.7 24.5l76.7-24.5c-25.3 12.2-50.8 24.5-76.7 24.5zm-150-66c24.4 0 48.8 11.7 73.4 23.5zm73.3 23.5l76.7 24.5c-25.9 0-51.4-12.3-76.7-24.5zm153.3 0c24.6-11.8 49-23.5 73.4-23.5zm-76.7 24.5l76.7-24.5c-25.3 12.2-50.8 24.5-76.7 24.5zm-150 6c24.4 0 48.8 11.7 73.3 23.5zm73.3 23.5l76.7 24.5c-25.9 0-51.4-12.3-76.7-24.5zm153.4 0c24.5-11.8 48.9-23.5 73.3-23.5zm-76.7 24.5l76.7-24.5c-25.3 12.2-50.8 24.5-76.7 24.5zm-150-30c24.4 0 48.8 11.7 73.4 23.5zm73.3 23.5l76.7 24.5c-25.9 0-51.4-12.3-76.7-24.5zm153.3 0c24.6-11.8 49-23.5 73.4-23.5zm-76.7 24.5l76.7-24.5c-25.3 12.2-50.8 24.5-76.7 24.5z"/>
	<path id="Layer copy 15" fill-rule="evenodd" class="s0" d="m446.9 261.6c-51 0-100.4-48-150-48m226.7 23.5c24.6-11.8 49-23.5 73.3-23.5zm-76.6 24.5l76.6-24.5c-25.3 12.2-50.7 24.5-76.6 24.5zm-150-66c24.4 0 48.7 11.7 73.3 23.5zm73.3 23.5l76.7 24.5c-25.9 0-51.4-12.3-76.7-24.5zm153.4 0c24.5-11.8 48.9-23.5 73.3-23.5zm-76.7 24.5l76.7-24.5c-25.3 12.2-50.8 24.5-76.7 24.5zm-150-66c24.4 0 48.8 11.7 73.4 23.5zm73.3 23.5l76.7 24.5c-25.9 0-51.4-12.3-76.7-24.5zm153.3 0c24.6-11.8 49-23.5 73.4-23.5zm-76.7 24.5l76.7-24.5c-25.3 12.2-50.8 24.5-76.7 24.5zm-150 6c24.4 0 48.8 11.7 73.3 23.5zm73.3 23.5l76.7 24.5c-25.9 0-51.4-12.3-76.7-24.5zm153.4 0c24.5-11.8 48.9-23.5 73.3-23.5zm-76.7 24.5l76.7-24.5c-25.3 12.2-50.8 24.5-76.7 24.5zm-150-30c24.4 0 48.8 11.7 73.4 23.5zm73.3 23.5l76.7 24.5c-25.9 0-51.4-12.3-76.7-24.5zm153.3 0c24.6-11.8 49-23.5 73.4-23.5zm-76.7 24.5l76.7-24.5c-25.3 12.2-50.8 24.5-76.7 24.5z"/>
	<path id="Layer copy 16" fill-rule="evenodd" class="s0" d="m746.9 261.6c-51 0-100.4-48-150-48m226.7 23.5c24.6-11.8 49-23.5 73.3-23.5zm-76.6 24.5l76.6-24.5c-25.3 12.2-50.7 24.5-76.6 24.5zm-150-66c24.4 0 48.7 11.7 73.3 23.5zm73.3 23.5l76.7 24.5c-25.9 0-51.4-12.3-76.7-24.5zm153.4 0c24.5-11.8 48.9-23.5 73.3-23.5zm-76.7 24.5l76.7-24.5c-25.3 12.2-50.8 24.5-76.7 24.5zm-150-66c24.4 0 48.8 11.7 73.4 23.5zm73.3 23.5l76.7 24.5c-25.9 0-51.4-12.3-76.7-24.5zm153.3 0c24.6-11.8 49-23.5 73.4-23.5zm-76.7 24.5l76.7-24.5c-25.3 12.2-50.8 24.5-76.7 24.5zm-150 6c24.4 0 48.8 11.7 73.3 23.5zm73.3 23.5l76.7 24.5c-25.9 0-51.4-12.3-76.7-24.5zm153.4 0c24.5-11.8 48.9-23.5 73.3-23.5zm-76.7 24.5l76.7-24.5c-25.3 12.2-50.8 24.5-76.7 24.5zm-150-30c24.4 0 48.8 11.7 73.4 23.5zm73.3 23.5l76.7 24.5c-25.9 0-51.4-12.3-76.7-24.5zm153.3 0c24.6-11.8 49-23.5 73.4-23.5zm-76.7 24.5l76.7-24.5c-25.3 12.2-50.8 24.5-76.7 24.5z"/>
	<path id="Layer copy 17" fill-rule="evenodd" class="s0" d="m1046.9 261.6c-51 0-100.4-48-150-48m226.7 23.5c24.6-11.8 49-23.5 73.3-23.5zm-76.6 24.5l76.6-24.5c-25.3 12.2-50.7 24.5-76.6 24.5zm-150-66c24.4 0 48.7 11.7 73.3 23.5zm73.3 23.5l76.7 24.5c-25.9 0-51.4-12.3-76.7-24.5zm153.4 0c24.5-11.8 48.9-23.5 73.3-23.5zm-76.7 24.5l76.7-24.5c-25.3 12.2-50.8 24.5-76.7 24.5zm-150-66c24.4 0 48.8 11.7 73.4 23.5zm73.3 23.5l76.7 24.5c-25.9 0-51.4-12.3-76.7-24.5zm153.3 0c24.6-11.8 49-23.5 73.4-23.5zm-76.7 24.5l76.7-24.5c-25.3 12.2-50.8 24.5-76.7 24.5zm-150 6c24.4 0 48.8 11.7 73.3 23.5zm73.3 23.5l76.7 24.5c-25.9 0-51.4-12.3-76.7-24.5zm153.4 0c24.5-11.8 48.9-23.5 73.3-23.5zm-76.7 24.5l76.7-24.5c-25.3 12.2-50.8 24.5-76.7 24.5zm-150-30c24.4 0 48.8 11.7 73.4 23.5zm73.3 23.5l76.7 24.5c-25.9 0-51.4-12.3-76.7-24.5zm153.3 0c24.6-11.8 49-23.5 73.4-23.5zm-76.7 24.5l76.7-24.5c-25.3 12.2-50.8 24.5-76.7 24.5z"/>
	<path id="Layer copy 18" fill-rule="evenodd" class="s0" d="m1346.9 261.6c-51 0-100.4-48-150-48m226.7 23.5c24.6-11.8 49-23.5 73.3-23.5zm-76.6 24.5l76.6-24.5c-25.3 12.2-50.7 24.5-76.6 24.5zm-150-66c24.4 0 48.7 11.7 73.3 23.5zm73.3 23.5l76.7 24.5c-25.9 0-51.4-12.3-76.7-24.5zm153.4 0c24.5-11.8 48.9-23.5 73.3-23.5zm-76.7 24.5l76.7-24.5c-25.3 12.2-50.8 24.5-76.7 24.5zm-150-66c24.4 0 48.8 11.7 73.4 23.5zm73.3 23.5l76.7 24.5c-25.9 0-51.4-12.3-76.7-24.5zm153.3 0c24.6-11.8 49-23.5 73.4-23.5zm-76.7 24.5l76.7-24.5c-25.3 12.2-50.8 24.5-76.7 24.5zm-150 6c24.4 0 48.8 11.7 73.3 23.5zm73.3 23.5l76.7 24.5c-25.9 0-51.4-12.3-76.7-24.5zm153.4 0c24.5-11.8 48.9-23.5 73.3-23.5zm-76.7 24.5l76.7-24.5c-25.3 12.2-50.8 24.5-76.7 24.5zm-150-30c24.4 0 48.8 11.7 73.4 23.5zm73.3 23.5l76.7 24.5c-25.9 0-51.4-12.3-76.7-24.5zm153.3 0c24.6-11.8 49-23.5 73.4-23.5zm-76.7 24.5l76.7-24.5c-25.3 12.2-50.8 24.5-76.7 24.5z"/>
	<path id="Layer copy 19" fill-rule="evenodd" class="s0" d="m1646.9 261.6c-51 0-100.4-48-150-48m226.7 23.5c24.6-11.8 49-23.5 73.3-23.5zm-76.6 24.5l76.6-24.5c-25.3 12.2-50.7 24.5-76.6 24.5zm-150-66c24.4 0 48.7 11.7 73.3 23.5zm73.3 23.5l76.7 24.5c-25.9 0-51.4-12.3-76.7-24.5zm153.4 0c24.5-11.8 48.9-23.5 73.3-23.5zm-76.7 24.5l76.7-24.5c-25.3 12.2-50.8 24.5-76.7 24.5zm-150-66c24.4 0 48.8 11.7 73.4 23.5zm73.3 23.5l76.7 24.5c-25.9 0-51.4-12.3-76.7-24.5zm153.3 0c24.6-11.8 49-23.5 73.4-23.5zm-76.7 24.5l76.7-24.5c-25.3 12.2-50.8 24.5-76.7 24.5zm-150 6c24.4 0 48.8 11.7 73.3 23.5zm73.3 23.5l76.7 24.5c-25.9 0-51.4-12.3-76.7-24.5zm153.4 0c24.5-11.8 48.9-23.5 73.3-23.5zm-76.7 24.5l76.7-24.5c-25.3 12.2-50.8 24.5-76.7 24.5zm-150-30c24.4 0 48.8 11.7 73.4 23.5zm73.3 23.5l76.7 24.5c-25.9 0-51.4-12.3-76.7-24.5zm153.3 0c24.6-11.8 49-23.5 73.4-23.5zm-76.7 24.5l76.7-24.5c-25.3 12.2-50.8 24.5-76.7 24.5z"/>
	<path id="Layer copy 20" fill-rule="evenodd" class="s0" d="m1796.9 213.6c49.6 0 99 48 150 48m150-48c-24.3 0-48.7 11.7-73.3 23.5zm-73.3 23.4l-76.7 24.6c25.9 0 51.4-12.4 76.7-24.6zm-153.4-18c-24.5-11.8-48.9-23.4-73.3-23.4zm76.7 24.5l-76.7-24.5c25.3 12.2 50.8 24.5 76.7 24.5zm150-48c-24.4 0-48.8 11.7-73.3 23.5zm-73.4 23.4l-76.6 24.6c25.8 0 51.3-12.4 76.6-24.6zm-153.3-18c-24.6-11.8-49-23.4-73.3-23.4zm76.6 24.5l-76.6-24.5c25.3 12.2 50.8 24.5 76.6 24.5zm150-48c-24.3 0-48.7 11.7-73.3 23.5zm-73.3 23.4l-76.7 24.6c25.9 0 51.4-12.4 76.7-24.6zm-153.4 54c-24.5-11.8-48.9-23.4-73.3-23.4zm76.7 24.5l-76.7-24.5c25.3 12.2 50.8 24.5 76.7 24.5zm150-48c-24.4 0-48.8 11.7-73.3 23.5zm-73.4 23.4l-76.6 24.6c25.8 0 51.3-12.4 76.6-24.6zm-153.3 18c-24.6-11.8-49-23.4-73.3-23.4zm76.6 24.5l-76.6-24.5c25.3 12.2 50.7 24.5 76.6 24.5zm150-48c-24.4 0-48.7 11.7-73.3 23.5zm-73.3 23.4l-76.7 24.6c25.9 0 51.4-12.4 76.7-24.6z"/>
	<path id="Layer copy 21" fill-rule="evenodd" class="s0" d="m146.9 174.6c-51 0-100.4-48-150-48m226.7 23.5c24.6-11.8 49-23.5 73.3-23.5zm-76.6 24.5l76.6-24.5c-25.3 12.2-50.7 24.5-76.6 24.5zm-150-66c24.4 0 48.7 11.7 73.3 23.5zm73.3 23.5l76.7 24.5c-25.9 0-51.4-12.3-76.7-24.5zm153.4 0c24.5-11.8 48.9-23.5 73.3-23.5zm-76.7 24.5l76.7-24.5c-25.3 12.2-50.8 24.5-76.7 24.5zm-150-66c24.4 0 48.8 11.7 73.4 23.5zm73.3 23.5l76.7 24.5c-25.9 0-51.4-12.3-76.7-24.5zm153.3 0c24.6-11.8 49-23.5 73.4-23.5zm-76.7 24.5l76.7-24.5c-25.3 12.2-50.8 24.5-76.7 24.5zm-150 6c24.4 0 48.8 11.7 73.3 23.5zm73.3 23.5l76.7 24.5c-25.9 0-51.4-12.3-76.7-24.5zm153.4 0c24.5-11.8 48.9-23.5 73.3-23.5zm-76.7 24.5l76.7-24.5c-25.3 12.2-50.8 24.5-76.7 24.5zm-150-30c24.4 0 48.8 11.7 73.4 23.5zm73.3 23.5l76.7 24.5c-25.9 0-51.4-12.3-76.7-24.5zm153.3 0c24.6-11.8 49-23.5 73.4-23.5zm-76.7 24.5l76.7-24.5c-25.3 12.2-50.8 24.5-76.7 24.5z"/>
	<path id="Layer copy 22" fill-rule="evenodd" class="s0" d="m446.9 174.6c-51 0-100.4-48-150-48m226.7 23.5c24.6-11.8 49-23.5 73.3-23.5zm-76.6 24.5l76.6-24.5c-25.3 12.2-50.7 24.5-76.6 24.5zm-150-66c24.4 0 48.7 11.7 73.3 23.5zm73.3 23.5l76.7 24.5c-25.9 0-51.4-12.3-76.7-24.5zm153.4 0c24.5-11.8 48.9-23.5 73.3-23.5zm-76.7 24.5l76.7-24.5c-25.3 12.2-50.8 24.5-76.7 24.5zm-150-66c24.4 0 48.8 11.7 73.4 23.5zm73.3 23.5l76.7 24.5c-25.9 0-51.4-12.3-76.7-24.5zm153.3 0c24.6-11.8 49-23.5 73.4-23.5zm-76.7 24.5l76.7-24.5c-25.3 12.2-50.8 24.5-76.7 24.5zm-150 6c24.4 0 48.8 11.7 73.3 23.5zm73.3 23.5l76.7 24.5c-25.9 0-51.4-12.3-76.7-24.5zm153.4 0c24.5-11.8 48.9-23.5 73.3-23.5zm-76.7 24.5l76.7-24.5c-25.3 12.2-50.8 24.5-76.7 24.5zm-150-30c24.4 0 48.8 11.7 73.4 23.5zm73.3 23.5l76.7 24.5c-25.9 0-51.4-12.3-76.7-24.5zm153.3 0c24.6-11.8 49-23.5 73.4-23.5zm-76.7 24.5l76.7-24.5c-25.3 12.2-50.8 24.5-76.7 24.5z"/>
	<path id="Layer copy 23" fill-rule="evenodd" class="s0" d="m746.9 174.6c-51 0-100.4-48-150-48m226.7 23.5c24.6-11.8 49-23.5 73.3-23.5zm-76.6 24.5l76.6-24.5c-25.3 12.2-50.7 24.5-76.6 24.5zm-150-66c24.4 0 48.7 11.7 73.3 23.5zm73.3 23.5l76.7 24.5c-25.9 0-51.4-12.3-76.7-24.5zm153.4 0c24.5-11.8 48.9-23.5 73.3-23.5zm-76.7 24.5l76.7-24.5c-25.3 12.2-50.8 24.5-76.7 24.5zm-150-66c24.4 0 48.8 11.7 73.4 23.5zm73.3 23.5l76.7 24.5c-25.9 0-51.4-12.3-76.7-24.5zm153.3 0c24.6-11.8 49-23.5 73.4-23.5zm-76.7 24.5l76.7-24.5c-25.3 12.2-50.8 24.5-76.7 24.5zm-150 6c24.4 0 48.8 11.7 73.3 23.5zm73.3 23.5l76.7 24.5c-25.9 0-51.4-12.3-76.7-24.5zm153.4 0c24.5-11.8 48.9-23.5 73.3-23.5zm-76.7 24.5l76.7-24.5c-25.3 12.2-50.8 24.5-76.7 24.5zm-150-30c24.4 0 48.8 11.7 73.4 23.5zm73.3 23.5l76.7 24.5c-25.9 0-51.4-12.3-76.7-24.5zm153.3 0c24.6-11.8 49-23.5 73.4-23.5zm-76.7 24.5l76.7-24.5c-25.3 12.2-50.8 24.5-76.7 24.5z"/>
	<path id="Layer copy 24" fill-rule="evenodd" class="s0" d="m1046.9 174.6c-51 0-100.4-48-150-48m226.7 23.5c24.6-11.8 49-23.5 73.3-23.5zm-76.6 24.5l76.6-24.5c-25.3 12.2-50.7 24.5-76.6 24.5zm-150-66c24.4 0 48.7 11.7 73.3 23.5zm73.3 23.5l76.7 24.5c-25.9 0-51.4-12.3-76.7-24.5zm153.4 0c24.5-11.8 48.9-23.5 73.3-23.5zm-76.7 24.5l76.7-24.5c-25.3 12.2-50.8 24.5-76.7 24.5zm-150-66c24.4 0 48.8 11.7 73.4 23.5zm73.3 23.5l76.7 24.5c-25.9 0-51.4-12.3-76.7-24.5zm153.3 0c24.6-11.8 49-23.5 73.4-23.5zm-76.7 24.5l76.7-24.5c-25.3 12.2-50.8 24.5-76.7 24.5zm-150 6c24.4 0 48.8 11.7 73.3 23.5zm73.3 23.5l76.7 24.5c-25.9 0-51.4-12.3-76.7-24.5zm153.4 0c24.5-11.8 48.9-23.5 73.3-23.5zm-76.7 24.5l76.7-24.5c-25.3 12.2-50.8 24.5-76.7 24.5zm-150-30c24.4 0 48.8 11.7 73.4 23.5zm73.3 23.5l76.7 24.5c-25.9 0-51.4-12.3-76.7-24.5zm153.3 0c24.6-11.8 49-23.5 73.4-23.5zm-76.7 24.5l76.7-24.5c-25.3 12.2-50.8 24.5-76.7 24.5z"/>
	<path id="Layer copy 25" fill-rule="evenodd" class="s0" d="m1346.9 174.6c-51 0-100.4-48-150-48m226.7 23.5c24.6-11.8 49-23.5 73.3-23.5zm-76.6 24.5l76.6-24.5c-25.3 12.2-50.7 24.5-76.6 24.5zm-150-66c24.4 0 48.7 11.7 73.3 23.5zm73.3 23.5l76.7 24.5c-25.9 0-51.4-12.3-76.7-24.5zm153.4 0c24.5-11.8 48.9-23.5 73.3-23.5zm-76.7 24.5l76.7-24.5c-25.3 12.2-50.8 24.5-76.7 24.5zm-150-66c24.4 0 48.8 11.7 73.4 23.5zm73.3 23.5l76.7 24.5c-25.9 0-51.4-12.3-76.7-24.5zm153.3 0c24.6-11.8 49-23.5 73.4-23.5zm-76.7 24.5l76.7-24.5c-25.3 12.2-50.8 24.5-76.7 24.5zm-150 6c24.4 0 48.8 11.7 73.3 23.5zm73.3 23.5l76.7 24.5c-25.9 0-51.4-12.3-76.7-24.5zm153.4 0c24.5-11.8 48.9-23.5 73.3-23.5zm-76.7 24.5l76.7-24.5c-25.3 12.2-50.8 24.5-76.7 24.5zm-150-30c24.4 0 48.8 11.7 73.4 23.5zm73.3 23.5l76.7 24.5c-25.9 0-51.4-12.3-76.7-24.5zm153.3 0c24.6-11.8 49-23.5 73.4-23.5zm-76.7 24.5l76.7-24.5c-25.3 12.2-50.8 24.5-76.7 24.5z"/>
	<path id="Layer copy 26" fill-rule="evenodd" class="s0" d="m1646.9 174.6c-51 0-100.4-48-150-48m226.7 23.5c24.6-11.8 49-23.5 73.3-23.5zm-76.6 24.5l76.6-24.5c-25.3 12.2-50.7 24.5-76.6 24.5zm-150-66c24.4 0 48.7 11.7 73.3 23.5zm73.3 23.5l76.7 24.5c-25.9 0-51.4-12.3-76.7-24.5zm153.4 0c24.5-11.8 48.9-23.5 73.3-23.5zm-76.7 24.5l76.7-24.5c-25.3 12.2-50.8 24.5-76.7 24.5zm-150-66c24.4 0 48.8 11.7 73.4 23.5zm73.3 23.5l76.7 24.5c-25.9 0-51.4-12.3-76.7-24.5zm153.3 0c24.6-11.8 49-23.5 73.4-23.5zm-76.7 24.5l76.7-24.5c-25.3 12.2-50.8 24.5-76.7 24.5zm-150 6c24.4 0 48.8 11.7 73.3 23.5zm73.3 23.5l76.7 24.5c-25.9 0-51.4-12.3-76.7-24.5zm153.4 0c24.5-11.8 48.9-23.5 73.3-23.5zm-76.7 24.5l76.7-24.5c-25.3 12.2-50.8 24.5-76.7 24.5zm-150-30c24.4 0 48.8 11.7 73.4 23.5zm73.3 23.5l76.7 24.5c-25.9 0-51.4-12.3-76.7-24.5zm153.3 0c24.6-11.8 49-23.5 73.4-23.5zm-76.7 24.5l76.7-24.5c-25.3 12.2-50.8 24.5-76.7 24.5z"/>
	<path id="Layer copy 27" fill-rule="evenodd" class="s0" d="m1796.9 126.6c49.6 0 99 48 150 48m150-48c-24.3 0-48.7 11.7-73.3 23.5zm-73.3 23.4l-76.7 24.6c25.9 0 51.4-12.4 76.7-24.6zm-153.4-18c-24.5-11.8-48.9-23.4-73.3-23.4zm76.7 24.5l-76.7-24.5c25.3 12.2 50.8 24.5 76.7 24.5zm150-48c-24.4 0-48.8 11.7-73.3 23.5zm-73.4 23.4l-76.6 24.6c25.8 0 51.3-12.4 76.6-24.6zm-153.3-18c-24.6-11.8-49-23.4-73.3-23.4zm76.6 24.5l-76.6-24.5c25.3 12.2 50.8 24.5 76.6 24.5zm150-48c-24.3 0-48.7 11.7-73.3 23.5zm-73.3 23.4l-76.7 24.6c25.9 0 51.4-12.4 76.7-24.6zm-153.4 54c-24.5-11.8-48.9-23.4-73.3-23.4zm76.7 24.5l-76.7-24.5c25.3 12.2 50.8 24.5 76.7 24.5zm150-48c-24.4 0-48.8 11.7-73.3 23.5zm-73.4 23.4l-76.6 24.6c25.8 0 51.3-12.4 76.6-24.6zm-153.3 18c-24.6-11.8-49-23.4-73.3-23.4zm76.6 24.5l-76.6-24.5c25.3 12.2 50.7 24.5 76.6 24.5zm150-48c-24.4 0-48.7 11.7-73.3 23.5zm-73.3 23.4l-76.7 24.6c25.9 0 51.4-12.4 76.7-24.6z"/>
	<path id="Layer copy 28" fill-rule="evenodd" class="s0" d="m146.9 439.6c-51 0-100.4-48-150-48m226.7 23.5c24.6-11.8 49-23.5 73.3-23.5zm-76.6 24.5l76.6-24.5c-25.3 12.2-50.7 24.5-76.6 24.5zm-150-66c24.4 0 48.7 11.7 73.3 23.5zm73.3 23.5l76.7 24.5c-25.9 0-51.4-12.3-76.7-24.5zm153.4 0c24.5-11.8 48.9-23.5 73.3-23.5zm-76.7 24.5l76.7-24.5c-25.3 12.2-50.8 24.5-76.7 24.5zm-150-66c24.4 0 48.8 11.7 73.4 23.5zm73.3 23.5l76.7 24.5c-25.9 0-51.4-12.3-76.7-24.5zm153.3 0c24.6-11.8 49-23.5 73.4-23.5zm-76.7 24.5l76.7-24.5c-25.3 12.2-50.8 24.5-76.7 24.5zm-150 6c24.4 0 48.8 11.7 73.3 23.5zm73.3 23.5l76.7 24.5c-25.9 0-51.4-12.3-76.7-24.5zm153.4 0c24.5-11.8 48.9-23.5 73.3-23.5zm-76.7 24.5l76.7-24.5c-25.3 12.2-50.8 24.5-76.7 24.5zm-150-30c24.4 0 48.8 11.7 73.4 23.5zm73.3 23.5l76.7 24.5c-25.9 0-51.4-12.3-76.7-24.5zm153.3 0c24.6-11.8 49-23.5 73.4-23.5zm-76.7 24.5l76.7-24.5c-25.3 12.2-50.8 24.5-76.7 24.5z"/>
	<path id="Layer copy 29" fill-rule="evenodd" class="s0" d="m296.9 391.6c49.6 0 99 48 150 48m150-48c-24.3 0-48.7 11.7-73.3 23.5zm-73.3 23.4l-76.7 24.6c25.9 0 51.4-12.4 76.7-24.6zm-153.4-18c-24.5-11.8-48.9-23.4-73.3-23.4zm76.7 24.5l-76.7-24.5c25.3 12.2 50.8 24.5 76.7 24.5zm150-48c-24.4 0-48.8 11.7-73.3 23.5zm-73.4 23.4l-76.6 24.6c25.8 0 51.3-12.4 76.6-24.6zm-153.3-18c-24.6-11.8-49-23.4-73.3-23.4zm76.6 24.5l-76.6-24.5c25.3 12.2 50.8 24.5 76.6 24.5zm150-48c-24.3 0-48.7 11.7-73.3 23.5zm-73.3 23.4l-76.7 24.6c25.9 0 51.4-12.4 76.7-24.6zm-153.4 54c-24.5-11.8-48.9-23.4-73.3-23.4zm76.7 24.5l-76.7-24.5c25.3 12.2 50.8 24.5 76.7 24.5zm150-48c-24.4 0-48.8 11.7-73.3 23.5zm-73.4 23.4l-76.6 24.6c25.8 0 51.3-12.4 76.6-24.6zm-153.3 18c-24.6-11.8-49-23.4-73.3-23.4zm76.6 24.5l-76.6-24.5c25.3 12.2 50.7 24.5 76.6 24.5zm150-48c-24.4 0-48.7 11.7-73.3 23.5zm-73.3 23.4l-76.7 24.6c25.9 0 51.4-12.4 76.7-24.6z"/>
	<path id="Layer copy 30" fill-rule="evenodd" class="s0" d="m596.9 391.6c49.6 0 99 48 150 48m150-48c-24.3 0-48.7 11.7-73.3 23.5zm-73.3 23.4l-76.7 24.6c25.9 0 51.4-12.4 76.7-24.6zm-153.4-18c-24.5-11.8-48.9-23.4-73.3-23.4zm76.7 24.5l-76.7-24.5c25.3 12.2 50.8 24.5 76.7 24.5zm150-48c-24.4 0-48.8 11.7-73.3 23.5zm-73.4 23.4l-76.6 24.6c25.8 0 51.3-12.4 76.6-24.6zm-153.3-18c-24.6-11.8-49-23.4-73.3-23.4zm76.6 24.5l-76.6-24.5c25.3 12.2 50.8 24.5 76.6 24.5zm150-48c-24.3 0-48.7 11.7-73.3 23.5zm-73.3 23.4l-76.7 24.6c25.9 0 51.4-12.4 76.7-24.6zm-153.4 54c-24.5-11.8-48.9-23.4-73.3-23.4zm76.7 24.5l-76.7-24.5c25.3 12.2 50.8 24.5 76.7 24.5zm150-48c-24.4 0-48.8 11.7-73.3 23.5zm-73.4 23.4l-76.6 24.6c25.8 0 51.3-12.4 76.6-24.6zm-153.3 18c-24.6-11.8-49-23.4-73.3-23.4zm76.6 24.5l-76.6-24.5c25.3 12.2 50.7 24.5 76.6 24.5zm150-48c-24.4 0-48.7 11.7-73.3 23.5zm-73.3 23.4l-76.7 24.6c25.9 0 51.4-12.4 76.7-24.6z"/>
	<path id="Layer copy 31" fill-rule="evenodd" class="s0" d="m896.9 391.6c49.6 0 99 48 150 48m150-48c-24.3 0-48.7 11.7-73.3 23.5zm-73.3 23.4l-76.7 24.6c25.9 0 51.4-12.4 76.7-24.6zm-153.4-18c-24.5-11.8-48.9-23.4-73.3-23.4zm76.7 24.5l-76.7-24.5c25.3 12.2 50.8 24.5 76.7 24.5zm150-48c-24.4 0-48.8 11.7-73.3 23.5zm-73.4 23.4l-76.6 24.6c25.8 0 51.3-12.4 76.6-24.6zm-153.3-18c-24.6-11.8-49-23.4-73.3-23.4zm76.6 24.5l-76.6-24.5c25.3 12.2 50.8 24.5 76.6 24.5zm150-48c-24.3 0-48.7 11.7-73.3 23.5zm-73.3 23.4l-76.7 24.6c25.9 0 51.4-12.4 76.7-24.6zm-153.4 54c-24.5-11.8-48.9-23.4-73.3-23.4zm76.7 24.5l-76.7-24.5c25.3 12.2 50.8 24.5 76.7 24.5zm150-48c-24.4 0-48.8 11.7-73.3 23.5zm-73.4 23.4l-76.6 24.6c25.8 0 51.3-12.4 76.6-24.6zm-153.3 18c-24.6-11.8-49-23.4-73.3-23.4zm76.6 24.5l-76.6-24.5c25.3 12.2 50.7 24.5 76.6 24.5zm150-48c-24.4 0-48.7 11.7-73.3 23.5zm-73.3 23.4l-76.7 24.6c25.9 0 51.4-12.4 76.7-24.6z"/>
	<path id="Layer copy 32" fill-rule="evenodd" class="s0" d="m1346.9 439.6c-51 0-100.4-48-150-48m226.7 23.5c24.6-11.8 49-23.5 73.3-23.5zm-76.6 24.5l76.6-24.5c-25.3 12.2-50.7 24.5-76.6 24.5zm-150-66c24.4 0 48.7 11.7 73.3 23.5zm73.3 23.5l76.7 24.5c-25.9 0-51.4-12.3-76.7-24.5zm153.4 0c24.5-11.8 48.9-23.5 73.3-23.5zm-76.7 24.5l76.7-24.5c-25.3 12.2-50.8 24.5-76.7 24.5zm-150-66c24.4 0 48.8 11.7 73.4 23.5zm73.3 23.5l76.7 24.5c-25.9 0-51.4-12.3-76.7-24.5zm153.3 0c24.6-11.8 49-23.5 73.4-23.5zm-76.7 24.5l76.7-24.5c-25.3 12.2-50.8 24.5-76.7 24.5zm-150 6c24.4 0 48.8 11.7 73.3 23.5zm73.3 23.5l76.7 24.5c-25.9 0-51.4-12.3-76.7-24.5zm153.4 0c24.5-11.8 48.9-23.5 73.3-23.5zm-76.7 24.5l76.7-24.5c-25.3 12.2-50.8 24.5-76.7 24.5zm-150-30c24.4 0 48.8 11.7 73.4 23.5zm73.3 23.5l76.7 24.5c-25.9 0-51.4-12.3-76.7-24.5zm153.3 0c24.6-11.8 49-23.5 73.4-23.5zm-76.7 24.5l76.7-24.5c-25.3 12.2-50.8 24.5-76.7 24.5z"/>
	<path id="Layer copy 33" fill-rule="evenodd" class="s0" d="m1646.9 439.6c-51 0-100.4-48-150-48m226.7 23.5c24.6-11.8 49-23.5 73.3-23.5zm-76.6 24.5l76.6-24.5c-25.3 12.2-50.7 24.5-76.6 24.5zm-150-66c24.4 0 48.7 11.7 73.3 23.5zm73.3 23.5l76.7 24.5c-25.9 0-51.4-12.3-76.7-24.5zm153.4 0c24.5-11.8 48.9-23.5 73.3-23.5zm-76.7 24.5l76.7-24.5c-25.3 12.2-50.8 24.5-76.7 24.5zm-150-66c24.4 0 48.8 11.7 73.4 23.5zm73.3 23.5l76.7 24.5c-25.9 0-51.4-12.3-76.7-24.5zm153.3 0c24.6-11.8 49-23.5 73.4-23.5zm-76.7 24.5l76.7-24.5c-25.3 12.2-50.8 24.5-76.7 24.5zm-150 6c24.4 0 48.8 11.7 73.3 23.5zm73.3 23.5l76.7 24.5c-25.9 0-51.4-12.3-76.7-24.5zm153.4 0c24.5-11.8 48.9-23.5 73.3-23.5zm-76.7 24.5l76.7-24.5c-25.3 12.2-50.8 24.5-76.7 24.5zm-150-30c24.4 0 48.8 11.7 73.4 23.5zm73.3 23.5l76.7 24.5c-25.9 0-51.4-12.3-76.7-24.5zm153.3 0c24.6-11.8 49-23.5 73.4-23.5zm-76.7 24.5l76.7-24.5c-25.3 12.2-50.8 24.5-76.7 24.5z"/>
	<path id="Layer copy 34" fill-rule="evenodd" class="s0" d="m1946.9 439.6c-51 0-100.4-48-150-48m226.7 23.5c24.6-11.8 49-23.5 73.3-23.5zm-76.6 24.5l76.6-24.5c-25.3 12.2-50.7 24.5-76.6 24.5zm-150-66c24.4 0 48.7 11.7 73.3 23.5zm73.3 23.5l76.7 24.5c-25.9 0-51.4-12.3-76.7-24.5zm153.4 0c24.5-11.8 48.9-23.5 73.3-23.5zm-76.7 24.5l76.7-24.5c-25.3 12.2-50.8 24.5-76.7 24.5zm-150-66c24.4 0 48.8 11.7 73.4 23.5zm73.3 23.5l76.7 24.5c-25.9 0-51.4-12.3-76.7-24.5zm153.3 0c24.6-11.8 49-23.5 73.4-23.5zm-76.7 24.5l76.7-24.5c-25.3 12.2-50.8 24.5-76.7 24.5zm-150 6c24.4 0 48.8 11.7 73.3 23.5zm73.3 23.5l76.7 24.5c-25.9 0-51.4-12.3-76.7-24.5zm153.4 0c24.5-11.8 48.9-23.5 73.3-23.5zm-76.7 24.5l76.7-24.5c-25.3 12.2-50.8 24.5-76.7 24.5zm-150-30c24.4 0 48.8 11.7 73.4 23.5zm73.3 23.5l76.7 24.5c-25.9 0-51.4-12.3-76.7-24.5zm153.3 0c24.6-11.8 49-23.5 73.4-23.5zm-76.7 24.5l76.7-24.5c-25.3 12.2-50.8 24.5-76.7 24.5z"/>
	<path id="Layer copy 35" fill-rule="evenodd" class="s0" d="m146.9 352.6c-51 0-100.4-48-150-48m226.7 23.5c24.6-11.8 49-23.5 73.3-23.5zm-76.6 24.5l76.6-24.5c-25.3 12.2-50.7 24.5-76.6 24.5zm-150-66c24.4 0 48.7 11.7 73.3 23.5zm73.3 23.5l76.7 24.5c-25.9 0-51.4-12.3-76.7-24.5zm153.4 0c24.5-11.8 48.9-23.5 73.3-23.5zm-76.7 24.5l76.7-24.5c-25.3 12.2-50.8 24.5-76.7 24.5zm-150-66c24.4 0 48.8 11.7 73.4 23.5zm73.3 23.5l76.7 24.5c-25.9 0-51.4-12.3-76.7-24.5zm153.3 0c24.6-11.8 49-23.5 73.4-23.5zm-76.7 24.5l76.7-24.5c-25.3 12.2-50.8 24.5-76.7 24.5zm-150 6c24.4 0 48.8 11.7 73.3 23.5zm73.3 23.5l76.7 24.5c-25.9 0-51.4-12.3-76.7-24.5zm153.4 0c24.5-11.8 48.9-23.5 73.3-23.5zm-76.7 24.5l76.7-24.5c-25.3 12.2-50.8 24.5-76.7 24.5zm-150-30c24.4 0 48.8 11.7 73.4 23.5zm73.3 23.5l76.7 24.5c-25.9 0-51.4-12.3-76.7-24.5zm153.3 0c24.6-11.8 49-23.5 73.4-23.5zm-76.7 24.5l76.7-24.5c-25.3 12.2-50.8 24.5-76.7 24.5z"/>
	<path id="Layer copy 36" fill-rule="evenodd" class="s0" d="m446.9 352.6c-51 0-100.4-48-150-48m226.7 23.5c24.6-11.8 49-23.5 73.3-23.5zm-76.6 24.5l76.6-24.5c-25.3 12.2-50.7 24.5-76.6 24.5zm-150-66c24.4 0 48.7 11.7 73.3 23.5zm73.3 23.5l76.7 24.5c-25.9 0-51.4-12.3-76.7-24.5zm153.4 0c24.5-11.8 48.9-23.5 73.3-23.5zm-76.7 24.5l76.7-24.5c-25.3 12.2-50.8 24.5-76.7 24.5zm-150-66c24.4 0 48.8 11.7 73.4 23.5zm73.3 23.5l76.7 24.5c-25.9 0-51.4-12.3-76.7-24.5zm153.3 0c24.6-11.8 49-23.5 73.4-23.5zm-76.7 24.5l76.7-24.5c-25.3 12.2-50.8 24.5-76.7 24.5zm-150 6c24.4 0 48.8 11.7 73.3 23.5zm73.3 23.5l76.7 24.5c-25.9 0-51.4-12.3-76.7-24.5zm153.4 0c24.5-11.8 48.9-23.5 73.3-23.5zm-76.7 24.5l76.7-24.5c-25.3 12.2-50.8 24.5-76.7 24.5zm-150-30c24.4 0 48.8 11.7 73.4 23.5zm73.3 23.5l76.7 24.5c-25.9 0-51.4-12.3-76.7-24.5zm153.3 0c24.6-11.8 49-23.5 73.4-23.5zm-76.7 24.5l76.7-24.5c-25.3 12.2-50.8 24.5-76.7 24.5z"/>
	<path id="Layer copy 37" fill-rule="evenodd" class="s0" d="m746.9 352.6c-51 0-100.4-48-150-48m226.7 23.5c24.6-11.8 49-23.5 73.3-23.5zm-76.6 24.5l76.6-24.5c-25.3 12.2-50.7 24.5-76.6 24.5zm-150-66c24.4 0 48.7 11.7 73.3 23.5zm73.3 23.5l76.7 24.5c-25.9 0-51.4-12.3-76.7-24.5zm153.4 0c24.5-11.8 48.9-23.5 73.3-23.5zm-76.7 24.5l76.7-24.5c-25.3 12.2-50.8 24.5-76.7 24.5zm-150-66c24.4 0 48.8 11.7 73.4 23.5zm73.3 23.5l76.7 24.5c-25.9 0-51.4-12.3-76.7-24.5zm153.3 0c24.6-11.8 49-23.5 73.4-23.5zm-76.7 24.5l76.7-24.5c-25.3 12.2-50.8 24.5-76.7 24.5zm-150 6c24.4 0 48.8 11.7 73.3 23.5zm73.3 23.5l76.7 24.5c-25.9 0-51.4-12.3-76.7-24.5zm153.4 0c24.5-11.8 48.9-23.5 73.3-23.5zm-76.7 24.5l76.7-24.5c-25.3 12.2-50.8 24.5-76.7 24.5zm-150-30c24.4 0 48.8 11.7 73.4 23.5zm73.3 23.5l76.7 24.5c-25.9 0-51.4-12.3-76.7-24.5zm153.3 0c24.6-11.8 49-23.5 73.4-23.5zm-76.7 24.5l76.7-24.5c-25.3 12.2-50.8 24.5-76.7 24.5z"/>
	<path id="Layer copy 38" fill-rule="evenodd" class="s0" d="m896.9 304.6c49.6 0 99 48 150 48m150-48c-24.3 0-48.7 11.7-73.3 23.5zm-73.3 23.4l-76.7 24.6c25.9 0 51.4-12.4 76.7-24.6zm-153.4-18c-24.5-11.8-48.9-23.4-73.3-23.4zm76.7 24.5l-76.7-24.5c25.3 12.2 50.8 24.5 76.7 24.5zm150-48c-24.4 0-48.8 11.7-73.3 23.5zm-73.4 23.4l-76.6 24.6c25.8 0 51.3-12.4 76.6-24.6zm-153.3-18c-24.6-11.8-49-23.4-73.3-23.4zm76.6 24.5l-76.6-24.5c25.3 12.2 50.8 24.5 76.6 24.5zm150-48c-24.3 0-48.7 11.7-73.3 23.5zm-73.3 23.4l-76.7 24.6c25.9 0 51.4-12.4 76.7-24.6zm-153.4 54c-24.5-11.8-48.9-23.4-73.3-23.4zm76.7 24.5l-76.7-24.5c25.3 12.2 50.8 24.5 76.7 24.5zm150-48c-24.4 0-48.8 11.7-73.3 23.5zm-73.4 23.4l-76.6 24.6c25.8 0 51.3-12.4 76.6-24.6zm-153.3 18c-24.6-11.8-49-23.4-73.3-23.4zm76.6 24.5l-76.6-24.5c25.3 12.2 50.7 24.5 76.6 24.5zm150-48c-24.4 0-48.7 11.7-73.3 23.5zm-73.3 23.4l-76.7 24.6c25.9 0 51.4-12.4 76.7-24.6z"/>
	<path id="Layer copy 39" fill-rule="evenodd" class="s0" d="m1346.9 352.6c-51 0-100.4-48-150-48m226.7 23.5c24.6-11.8 49-23.5 73.3-23.5zm-76.6 24.5l76.6-24.5c-25.3 12.2-50.7 24.5-76.6 24.5zm-150-66c24.4 0 48.7 11.7 73.3 23.5zm73.3 23.5l76.7 24.5c-25.9 0-51.4-12.3-76.7-24.5zm153.4 0c24.5-11.8 48.9-23.5 73.3-23.5zm-76.7 24.5l76.7-24.5c-25.3 12.2-50.8 24.5-76.7 24.5zm-150-66c24.4 0 48.8 11.7 73.4 23.5zm73.3 23.5l76.7 24.5c-25.9 0-51.4-12.3-76.7-24.5zm153.3 0c24.6-11.8 49-23.5 73.4-23.5zm-76.7 24.5l76.7-24.5c-25.3 12.2-50.8 24.5-76.7 24.5zm-150 6c24.4 0 48.8 11.7 73.3 23.5zm73.3 23.5l76.7 24.5c-25.9 0-51.4-12.3-76.7-24.5zm153.4 0c24.5-11.8 48.9-23.5 73.3-23.5zm-76.7 24.5l76.7-24.5c-25.3 12.2-50.8 24.5-76.7 24.5zm-150-30c24.4 0 48.8 11.7 73.4 23.5zm73.3 23.5l76.7 24.5c-25.9 0-51.4-12.3-76.7-24.5zm153.3 0c24.6-11.8 49-23.5 73.4-23.5zm-76.7 24.5l76.7-24.5c-25.3 12.2-50.8 24.5-76.7 24.5z"/>
	<path id="Layer copy 40" fill-rule="evenodd" class="s0" d="m1496.9 304.6c49.6 0 99 48 150 48m150-48c-24.3 0-48.7 11.7-73.3 23.5zm-73.3 23.4l-76.7 24.6c25.9 0 51.4-12.4 76.7-24.6zm-153.4-18c-24.5-11.8-48.9-23.4-73.3-23.4zm76.7 24.5l-76.7-24.5c25.3 12.2 50.8 24.5 76.7 24.5zm150-48c-24.4 0-48.8 11.7-73.3 23.5zm-73.4 23.4l-76.6 24.6c25.8 0 51.3-12.4 76.6-24.6zm-153.3-18c-24.6-11.8-49-23.4-73.3-23.4zm76.6 24.5l-76.6-24.5c25.3 12.2 50.8 24.5 76.6 24.5zm150-48c-24.3 0-48.7 11.7-73.3 23.5zm-73.3 23.4l-76.7 24.6c25.9 0 51.4-12.4 76.7-24.6zm-153.4 54c-24.5-11.8-48.9-23.4-73.3-23.4zm76.7 24.5l-76.7-24.5c25.3 12.2 50.8 24.5 76.7 24.5zm150-48c-24.4 0-48.8 11.7-73.3 23.5zm-73.4 23.4l-76.6 24.6c25.8 0 51.3-12.4 76.6-24.6zm-153.3 18c-24.6-11.8-49-23.4-73.3-23.4zm76.6 24.5l-76.6-24.5c25.3 12.2 50.7 24.5 76.6 24.5zm150-48c-24.4 0-48.7 11.7-73.3 23.5zm-73.3 23.4l-76.7 24.6c25.9 0 51.4-12.4 76.7-24.6z"/>
	<path id="Layer copy 41" fill-rule="evenodd" class="s0" d="m1946.9 352.6c-51 0-100.4-48-150-48m226.7 23.5c24.6-11.8 49-23.5 73.3-23.5zm-76.6 24.5l76.6-24.5c-25.3 12.2-50.7 24.5-76.6 24.5zm-150-66c24.4 0 48.7 11.7 73.3 23.5zm73.3 23.5l76.7 24.5c-25.9 0-51.4-12.3-76.7-24.5zm153.4 0c24.5-11.8 48.9-23.5 73.3-23.5zm-76.7 24.5l76.7-24.5c-25.3 12.2-50.8 24.5-76.7 24.5zm-150-66c24.4 0 48.8 11.7 73.4 23.5zm73.3 23.5l76.7 24.5c-25.9 0-51.4-12.3-76.7-24.5zm153.3 0c24.6-11.8 49-23.5 73.4-23.5zm-76.7 24.5l76.7-24.5c-25.3 12.2-50.8 24.5-76.7 24.5zm-150 6c24.4 0 48.8 11.7 73.3 23.5zm73.3 23.5l76.7 24.5c-25.9 0-51.4-12.3-76.7-24.5zm153.4 0c24.5-11.8 48.9-23.5 73.3-23.5zm-76.7 24.5l76.7-24.5c-25.3 12.2-50.8 24.5-76.7 24.5zm-150-30c24.4 0 48.8 11.7 73.4 23.5zm73.3 23.5l76.7 24.5c-25.9 0-51.4-12.3-76.7-24.5zm153.3 0c24.6-11.8 49-23.5 73.4-23.5zm-76.7 24.5l76.7-24.5c-25.3 12.2-50.8 24.5-76.7 24.5z"/>
	<path id="Layer copy 42" fill-rule="evenodd" class="s0" d="m-3.1 569.6c49.6 0 99 48 150 48m150-48c-24.3 0-48.7 11.7-73.3 23.5zm-73.3 23.4l-76.7 24.6c25.9 0 51.4-12.4 76.7-24.6zm-153.4-18c-24.5-11.8-48.9-23.4-73.3-23.4zm76.7 24.5l-76.7-24.5c25.3 12.2 50.8 24.5 76.7 24.5zm150-48c-24.4 0-48.8 11.7-73.3 23.5zm-73.4 23.4l-76.6 24.6c25.8 0 51.3-12.4 76.6-24.6zm-153.3-18c-24.6-11.8-49-23.4-73.3-23.4zm76.6 24.5l-76.6-24.5c25.3 12.2 50.8 24.5 76.6 24.5zm150-48c-24.3 0-48.7 11.7-73.3 23.5zm-73.3 23.4l-76.7 24.6c25.9 0 51.4-12.4 76.7-24.6zm-153.4 54c-24.5-11.8-48.9-23.4-73.3-23.4zm76.7 24.5l-76.7-24.5c25.3 12.2 50.8 24.5 76.7 24.5zm150-48c-24.4 0-48.8 11.7-73.3 23.5zm-73.4 23.4l-76.6 24.6c25.8 0 51.3-12.4 76.6-24.6zm-153.3 18c-24.6-11.8-49-23.4-73.3-23.4zm76.6 24.5l-76.6-24.5c25.3 12.2 50.7 24.5 76.6 24.5zm150-48c-24.4 0-48.7 11.7-73.3 23.5zm-73.3 23.4l-76.7 24.6c25.9 0 51.4-12.4 76.7-24.6z"/>
	<path id="Layer copy 43" fill-rule="evenodd" class="s0" d="m446.9 617.6c-51 0-100.4-48-150-48m226.7 23.5c24.6-11.8 49-23.5 73.3-23.5zm-76.6 24.5l76.6-24.5c-25.3 12.2-50.7 24.5-76.6 24.5zm-150-66c24.4 0 48.7 11.7 73.3 23.5zm73.3 23.5l76.7 24.5c-25.9 0-51.4-12.3-76.7-24.5zm153.4 0c24.5-11.8 48.9-23.5 73.3-23.5zm-76.7 24.5l76.7-24.5c-25.3 12.2-50.8 24.5-76.7 24.5zm-150-66c24.4 0 48.8 11.7 73.4 23.5zm73.3 23.5l76.7 24.5c-25.9 0-51.4-12.3-76.7-24.5zm153.3 0c24.6-11.8 49-23.5 73.4-23.5zm-76.7 24.5l76.7-24.5c-25.3 12.2-50.8 24.5-76.7 24.5zm-150 6c24.4 0 48.8 11.7 73.3 23.5zm73.3 23.5l76.7 24.5c-25.9 0-51.4-12.3-76.7-24.5zm153.4 0c24.5-11.8 48.9-23.5 73.3-23.5zm-76.7 24.5l76.7-24.5c-25.3 12.2-50.8 24.5-76.7 24.5zm-150-30c24.4 0 48.8 11.7 73.4 23.5zm73.3 23.5l76.7 24.5c-25.9 0-51.4-12.3-76.7-24.5zm153.3 0c24.6-11.8 49-23.5 73.4-23.5zm-76.7 24.5l76.7-24.5c-25.3 12.2-50.8 24.5-76.7 24.5z"/>
	<path id="Layer copy 44" fill-rule="evenodd" class="s0" d="m746.9 617.6c-51 0-100.4-48-150-48m226.7 23.5c24.6-11.8 49-23.5 73.3-23.5zm-76.6 24.5l76.6-24.5c-25.3 12.2-50.7 24.5-76.6 24.5zm-150-66c24.4 0 48.7 11.7 73.3 23.5zm73.3 23.5l76.7 24.5c-25.9 0-51.4-12.3-76.7-24.5zm153.4 0c24.5-11.8 48.9-23.5 73.3-23.5zm-76.7 24.5l76.7-24.5c-25.3 12.2-50.8 24.5-76.7 24.5zm-150-66c24.4 0 48.8 11.7 73.4 23.5zm73.3 23.5l76.7 24.5c-25.9 0-51.4-12.3-76.7-24.5zm153.3 0c24.6-11.8 49-23.5 73.4-23.5zm-76.7 24.5l76.7-24.5c-25.3 12.2-50.8 24.5-76.7 24.5zm-150 6c24.4 0 48.8 11.7 73.3 23.5zm73.3 23.5l76.7 24.5c-25.9 0-51.4-12.3-76.7-24.5zm153.4 0c24.5-11.8 48.9-23.5 73.3-23.5zm-76.7 24.5l76.7-24.5c-25.3 12.2-50.8 24.5-76.7 24.5zm-150-30c24.4 0 48.8 11.7 73.4 23.5zm73.3 23.5l76.7 24.5c-25.9 0-51.4-12.3-76.7-24.5zm153.3 0c24.6-11.8 49-23.5 73.4-23.5zm-76.7 24.5l76.7-24.5c-25.3 12.2-50.8 24.5-76.7 24.5z"/>
	<path id="Layer copy 45" fill-rule="evenodd" class="s0" d="m1046.9 617.6c-51 0-100.4-48-150-48m226.7 23.5c24.6-11.8 49-23.5 73.3-23.5zm-76.6 24.5l76.6-24.5c-25.3 12.2-50.7 24.5-76.6 24.5zm-150-66c24.4 0 48.7 11.7 73.3 23.5zm73.3 23.5l76.7 24.5c-25.9 0-51.4-12.3-76.7-24.5zm153.4 0c24.5-11.8 48.9-23.5 73.3-23.5zm-76.7 24.5l76.7-24.5c-25.3 12.2-50.8 24.5-76.7 24.5zm-150-66c24.4 0 48.8 11.7 73.4 23.5zm73.3 23.5l76.7 24.5c-25.9 0-51.4-12.3-76.7-24.5zm153.3 0c24.6-11.8 49-23.5 73.4-23.5zm-76.7 24.5l76.7-24.5c-25.3 12.2-50.8 24.5-76.7 24.5zm-150 6c24.4 0 48.8 11.7 73.3 23.5zm73.3 23.5l76.7 24.5c-25.9 0-51.4-12.3-76.7-24.5zm153.4 0c24.5-11.8 48.9-23.5 73.3-23.5zm-76.7 24.5l76.7-24.5c-25.3 12.2-50.8 24.5-76.7 24.5zm-150-30c24.4 0 48.8 11.7 73.4 23.5zm73.3 23.5l76.7 24.5c-25.9 0-51.4-12.3-76.7-24.5zm153.3 0c24.6-11.8 49-23.5 73.4-23.5zm-76.7 24.5l76.7-24.5c-25.3 12.2-50.8 24.5-76.7 24.5z"/>
	<path id="Layer copy 46" fill-rule="evenodd" class="s0" d="m1346.9 617.6c-51 0-100.4-48-150-48m226.7 23.5c24.6-11.8 49-23.5 73.3-23.5zm-76.6 24.5l76.6-24.5c-25.3 12.2-50.7 24.5-76.6 24.5zm-150-66c24.4 0 48.7 11.7 73.3 23.5zm73.3 23.5l76.7 24.5c-25.9 0-51.4-12.3-76.7-24.5zm153.4 0c24.5-11.8 48.9-23.5 73.3-23.5zm-76.7 24.5l76.7-24.5c-25.3 12.2-50.8 24.5-76.7 24.5zm-150-66c24.4 0 48.8 11.7 73.4 23.5zm73.3 23.5l76.7 24.5c-25.9 0-51.4-12.3-76.7-24.5zm153.3 0c24.6-11.8 49-23.5 73.4-23.5zm-76.7 24.5l76.7-24.5c-25.3 12.2-50.8 24.5-76.7 24.5zm-150 6c24.4 0 48.8 11.7 73.3 23.5zm73.3 23.5l76.7 24.5c-25.9 0-51.4-12.3-76.7-24.5zm153.4 0c24.5-11.8 48.9-23.5 73.3-23.5zm-76.7 24.5l76.7-24.5c-25.3 12.2-50.8 24.5-76.7 24.5zm-150-30c24.4 0 48.8 11.7 73.4 23.5zm73.3 23.5l76.7 24.5c-25.9 0-51.4-12.3-76.7-24.5zm153.3 0c24.6-11.8 49-23.5 73.4-23.5zm-76.7 24.5l76.7-24.5c-25.3 12.2-50.8 24.5-76.7 24.5z"/>
	<path id="Layer copy 47" fill-rule="evenodd" class="s0" d="m1646.9 617.6c-51 0-100.4-48-150-48m226.7 23.5c24.6-11.8 49-23.5 73.3-23.5zm-76.6 24.5l76.6-24.5c-25.3 12.2-50.7 24.5-76.6 24.5zm-150-66c24.4 0 48.7 11.7 73.3 23.5zm73.3 23.5l76.7 24.5c-25.9 0-51.4-12.3-76.7-24.5zm153.4 0c24.5-11.8 48.9-23.5 73.3-23.5zm-76.7 24.5l76.7-24.5c-25.3 12.2-50.8 24.5-76.7 24.5zm-150-66c24.4 0 48.8 11.7 73.4 23.5zm73.3 23.5l76.7 24.5c-25.9 0-51.4-12.3-76.7-24.5zm153.3 0c24.6-11.8 49-23.5 73.4-23.5zm-76.7 24.5l76.7-24.5c-25.3 12.2-50.8 24.5-76.7 24.5zm-150 6c24.4 0 48.8 11.7 73.3 23.5zm73.3 23.5l76.7 24.5c-25.9 0-51.4-12.3-76.7-24.5zm153.4 0c24.5-11.8 48.9-23.5 73.3-23.5zm-76.7 24.5l76.7-24.5c-25.3 12.2-50.8 24.5-76.7 24.5zm-150-30c24.4 0 48.8 11.7 73.4 23.5zm73.3 23.5l76.7 24.5c-25.9 0-51.4-12.3-76.7-24.5zm153.3 0c24.6-11.8 49-23.5 73.4-23.5zm-76.7 24.5l76.7-24.5c-25.3 12.2-50.8 24.5-76.7 24.5z"/>
	<path id="Layer copy 48" fill-rule="evenodd" class="s0" d="m1946.9 617.6c-51 0-100.4-48-150-48m226.7 23.5c24.6-11.8 49-23.5 73.3-23.5zm-76.6 24.5l76.6-24.5c-25.3 12.2-50.7 24.5-76.6 24.5zm-150-66c24.4 0 48.7 11.7 73.3 23.5zm73.3 23.5l76.7 24.5c-25.9 0-51.4-12.3-76.7-24.5zm153.4 0c24.5-11.8 48.9-23.5 73.3-23.5zm-76.7 24.5l76.7-24.5c-25.3 12.2-50.8 24.5-76.7 24.5zm-150-66c24.4 0 48.8 11.7 73.4 23.5zm73.3 23.5l76.7 24.5c-25.9 0-51.4-12.3-76.7-24.5zm153.3 0c24.6-11.8 49-23.5 73.4-23.5zm-76.7 24.5l76.7-24.5c-25.3 12.2-50.8 24.5-76.7 24.5zm-150 6c24.4 0 48.8 11.7 73.3 23.5zm73.3 23.5l76.7 24.5c-25.9 0-51.4-12.3-76.7-24.5zm153.4 0c24.5-11.8 48.9-23.5 73.3-23.5zm-76.7 24.5l76.7-24.5c-25.3 12.2-50.8 24.5-76.7 24.5zm-150-30c24.4 0 48.8 11.7 73.4 23.5zm73.3 23.5l76.7 24.5c-25.9 0-51.4-12.3-76.7-24.5zm153.3 0c24.6-11.8 49-23.5 73.4-23.5zm-76.7 24.5l76.7-24.5c-25.3 12.2-50.8 24.5-76.7 24.5z"/>
	<path id="Layer copy 49" fill-rule="evenodd" class="s0" d="m146.9 530.6c-51 0-100.4-48-150-48m226.7 23.5c24.6-11.8 49-23.5 73.3-23.5zm-76.6 24.5l76.6-24.5c-25.3 12.2-50.7 24.5-76.6 24.5zm-150-66c24.4 0 48.7 11.7 73.3 23.5zm73.3 23.5l76.7 24.5c-25.9 0-51.4-12.3-76.7-24.5zm153.4 0c24.5-11.8 48.9-23.5 73.3-23.5zm-76.7 24.5l76.7-24.5c-25.3 12.2-50.8 24.5-76.7 24.5zm-150-66c24.4 0 48.8 11.7 73.4 23.5zm73.3 23.5l76.7 24.5c-25.9 0-51.4-12.3-76.7-24.5zm153.3 0c24.6-11.8 49-23.5 73.4-23.5zm-76.7 24.5l76.7-24.5c-25.3 12.2-50.8 24.5-76.7 24.5zm-150 6c24.4 0 48.8 11.7 73.3 23.5zm73.3 23.5l76.7 24.5c-25.9 0-51.4-12.3-76.7-24.5zm153.4 0c24.5-11.8 48.9-23.5 73.3-23.5zm-76.7 24.5l76.7-24.5c-25.3 12.2-50.8 24.5-76.7 24.5zm-150-30c24.4 0 48.8 11.7 73.4 23.5zm73.3 23.5l76.7 24.5c-25.9 0-51.4-12.3-76.7-24.5zm153.3 0c24.6-11.8 49-23.5 73.4-23.5zm-76.7 24.5l76.7-24.5c-25.3 12.2-50.8 24.5-76.7 24.5z"/>
	<path id="Layer copy 50" fill-rule="evenodd" class="s0" d="m446.9 530.6c-51 0-100.4-48-150-48m226.7 23.5c24.6-11.8 49-23.5 73.3-23.5zm-76.6 24.5l76.6-24.5c-25.3 12.2-50.7 24.5-76.6 24.5zm-150-66c24.4 0 48.7 11.7 73.3 23.5zm73.3 23.5l76.7 24.5c-25.9 0-51.4-12.3-76.7-24.5zm153.4 0c24.5-11.8 48.9-23.5 73.3-23.5zm-76.7 24.5l76.7-24.5c-25.3 12.2-50.8 24.5-76.7 24.5zm-150-66c24.4 0 48.8 11.7 73.4 23.5zm73.3 23.5l76.7 24.5c-25.9 0-51.4-12.3-76.7-24.5zm153.3 0c24.6-11.8 49-23.5 73.4-23.5zm-76.7 24.5l76.7-24.5c-25.3 12.2-50.8 24.5-76.7 24.5zm-150 6c24.4 0 48.8 11.7 73.3 23.5zm73.3 23.5l76.7 24.5c-25.9 0-51.4-12.3-76.7-24.5zm153.4 0c24.5-11.8 48.9-23.5 73.3-23.5zm-76.7 24.5l76.7-24.5c-25.3 12.2-50.8 24.5-76.7 24.5zm-150-30c24.4 0 48.8 11.7 73.4 23.5zm73.3 23.5l76.7 24.5c-25.9 0-51.4-12.3-76.7-24.5zm153.3 0c24.6-11.8 49-23.5 73.4-23.5zm-76.7 24.5l76.7-24.5c-25.3 12.2-50.8 24.5-76.7 24.5z"/>
	<path id="Layer copy 51" fill-rule="evenodd" class="s0" d="m746.9 530.6c-51 0-100.4-48-150-48m226.7 23.5c24.6-11.8 49-23.5 73.3-23.5zm-76.6 24.5l76.6-24.5c-25.3 12.2-50.7 24.5-76.6 24.5zm-150-66c24.4 0 48.7 11.7 73.3 23.5zm73.3 23.5l76.7 24.5c-25.9 0-51.4-12.3-76.7-24.5zm153.4 0c24.5-11.8 48.9-23.5 73.3-23.5zm-76.7 24.5l76.7-24.5c-25.3 12.2-50.8 24.5-76.7 24.5zm-150-66c24.4 0 48.8 11.7 73.4 23.5zm73.3 23.5l76.7 24.5c-25.9 0-51.4-12.3-76.7-24.5zm153.3 0c24.6-11.8 49-23.5 73.4-23.5zm-76.7 24.5l76.7-24.5c-25.3 12.2-50.8 24.5-76.7 24.5zm-150 6c24.4 0 48.8 11.7 73.3 23.5zm73.3 23.5l76.7 24.5c-25.9 0-51.4-12.3-76.7-24.5zm153.4 0c24.5-11.8 48.9-23.5 73.3-23.5zm-76.7 24.5l76.7-24.5c-25.3 12.2-50.8 24.5-76.7 24.5zm-150-30c24.4 0 48.8 11.7 73.4 23.5zm73.3 23.5l76.7 24.5c-25.9 0-51.4-12.3-76.7-24.5zm153.3 0c24.6-11.8 49-23.5 73.4-23.5zm-76.7 24.5l76.7-24.5c-25.3 12.2-50.8 24.5-76.7 24.5z"/>
	<path id="Layer copy 52" fill-rule="evenodd" class="s0" d="m1046.9 530.6c-51 0-100.4-48-150-48m226.7 23.5c24.6-11.8 49-23.5 73.3-23.5zm-76.6 24.5l76.6-24.5c-25.3 12.2-50.7 24.5-76.6 24.5zm-150-66c24.4 0 48.7 11.7 73.3 23.5zm73.3 23.5l76.7 24.5c-25.9 0-51.4-12.3-76.7-24.5zm153.4 0c24.5-11.8 48.9-23.5 73.3-23.5zm-76.7 24.5l76.7-24.5c-25.3 12.2-50.8 24.5-76.7 24.5zm-150-66c24.4 0 48.8 11.7 73.4 23.5zm73.3 23.5l76.7 24.5c-25.9 0-51.4-12.3-76.7-24.5zm153.3 0c24.6-11.8 49-23.5 73.4-23.5zm-76.7 24.5l76.7-24.5c-25.3 12.2-50.8 24.5-76.7 24.5zm-150 6c24.4 0 48.8 11.7 73.3 23.5zm73.3 23.5l76.7 24.5c-25.9 0-51.4-12.3-76.7-24.5zm153.4 0c24.5-11.8 48.9-23.5 73.3-23.5zm-76.7 24.5l76.7-24.5c-25.3 12.2-50.8 24.5-76.7 24.5zm-150-30c24.4 0 48.8 11.7 73.4 23.5zm73.3 23.5l76.7 24.5c-25.9 0-51.4-12.3-76.7-24.5zm153.3 0c24.6-11.8 49-23.5 73.4-23.5zm-76.7 24.5l76.7-24.5c-25.3 12.2-50.8 24.5-76.7 24.5z"/>
	<path id="Layer copy 53" fill-rule="evenodd" class="s0" d="m1346.9 530.6c-51 0-100.4-48-150-48m226.7 23.5c24.6-11.8 49-23.5 73.3-23.5zm-76.6 24.5l76.6-24.5c-25.3 12.2-50.7 24.5-76.6 24.5zm-150-66c24.4 0 48.7 11.7 73.3 23.5zm73.3 23.5l76.7 24.5c-25.9 0-51.4-12.3-76.7-24.5zm153.4 0c24.5-11.8 48.9-23.5 73.3-23.5zm-76.7 24.5l76.7-24.5c-25.3 12.2-50.8 24.5-76.7 24.5zm-150-66c24.4 0 48.8 11.7 73.4 23.5zm73.3 23.5l76.7 24.5c-25.9 0-51.4-12.3-76.7-24.5zm153.3 0c24.6-11.8 49-23.5 73.4-23.5zm-76.7 24.5l76.7-24.5c-25.3 12.2-50.8 24.5-76.7 24.5zm-150 6c24.4 0 48.8 11.7 73.3 23.5zm73.3 23.5l76.7 24.5c-25.9 0-51.4-12.3-76.7-24.5zm153.4 0c24.5-11.8 48.9-23.5 73.3-23.5zm-76.7 24.5l76.7-24.5c-25.3 12.2-50.8 24.5-76.7 24.5zm-150-30c24.4 0 48.8 11.7 73.4 23.5zm73.3 23.5l76.7 24.5c-25.9 0-51.4-12.3-76.7-24.5zm153.3 0c24.6-11.8 49-23.5 73.4-23.5zm-76.7 24.5l76.7-24.5c-25.3 12.2-50.8 24.5-76.7 24.5z"/>
	<path id="Layer copy 54" fill-rule="evenodd" class="s0" d="m1646.9 530.6c-51 0-100.4-48-150-48m226.7 23.5c24.6-11.8 49-23.5 73.3-23.5zm-76.6 24.5l76.6-24.5c-25.3 12.2-50.7 24.5-76.6 24.5zm-150-66c24.4 0 48.7 11.7 73.3 23.5zm73.3 23.5l76.7 24.5c-25.9 0-51.4-12.3-76.7-24.5zm153.4 0c24.5-11.8 48.9-23.5 73.3-23.5zm-76.7 24.5l76.7-24.5c-25.3 12.2-50.8 24.5-76.7 24.5zm-150-66c24.4 0 48.8 11.7 73.4 23.5zm73.3 23.5l76.7 24.5c-25.9 0-51.4-12.3-76.7-24.5zm153.3 0c24.6-11.8 49-23.5 73.4-23.5zm-76.7 24.5l76.7-24.5c-25.3 12.2-50.8 24.5-76.7 24.5zm-150 6c24.4 0 48.8 11.7 73.3 23.5zm73.3 23.5l76.7 24.5c-25.9 0-51.4-12.3-76.7-24.5zm153.4 0c24.5-11.8 48.9-23.5 73.3-23.5zm-76.7 24.5l76.7-24.5c-25.3 12.2-50.8 24.5-76.7 24.5zm-150-30c24.4 0 48.8 11.7 73.4 23.5zm73.3 23.5l76.7 24.5c-25.9 0-51.4-12.3-76.7-24.5zm153.3 0c24.6-11.8 49-23.5 73.4-23.5zm-76.7 24.5l76.7-24.5c-25.3 12.2-50.8 24.5-76.7 24.5z"/>
	<path id="Layer copy 55" fill-rule="evenodd" class="s0" d="m1946.9 530.6c-51 0-100.4-48-150-48m226.7 23.5c24.6-11.8 49-23.5 73.3-23.5zm-76.6 24.5l76.6-24.5c-25.3 12.2-50.7 24.5-76.6 24.5zm-150-66c24.4 0 48.7 11.7 73.3 23.5zm73.3 23.5l76.7 24.5c-25.9 0-51.4-12.3-76.7-24.5zm153.4 0c24.5-11.8 48.9-23.5 73.3-23.5zm-76.7 24.5l76.7-24.5c-25.3 12.2-50.8 24.5-76.7 24.5zm-150-66c24.4 0 48.8 11.7 73.4 23.5zm73.3 23.5l76.7 24.5c-25.9 0-51.4-12.3-76.7-24.5zm153.3 0c24.6-11.8 49-23.5 73.4-23.5zm-76.7 24.5l76.7-24.5c-25.3 12.2-50.8 24.5-76.7 24.5zm-150 6c24.4 0 48.8 11.7 73.3 23.5zm73.3 23.5l76.7 24.5c-25.9 0-51.4-12.3-76.7-24.5zm153.4 0c24.5-11.8 48.9-23.5 73.3-23.5zm-76.7 24.5l76.7-24.5c-25.3 12.2-50.8 24.5-76.7 24.5zm-150-30c24.4 0 48.8 11.7 73.4 23.5zm73.3 23.5l76.7 24.5c-25.9 0-51.4-12.3-76.7-24.5zm153.3 0c24.6-11.8 49-23.5 73.4-23.5zm-76.7 24.5l76.7-24.5c-25.3 12.2-50.8 24.5-76.7 24.5z"/>
	<path id="Layer copy 56" fill-rule="evenodd" class="s0" d="m-3.1 749.6c49.6 0 99 48 150 48m150-48c-24.3 0-48.7 11.7-73.3 23.5zm-73.3 23.4l-76.7 24.6c25.9 0 51.4-12.4 76.7-24.6zm-153.4-18c-24.5-11.8-48.9-23.4-73.3-23.4zm76.7 24.5l-76.7-24.5c25.3 12.2 50.8 24.5 76.7 24.5zm150-48c-24.4 0-48.8 11.7-73.3 23.5zm-73.4 23.4l-76.6 24.6c25.8 0 51.3-12.4 76.6-24.6zm-153.3-18c-24.6-11.8-49-23.4-73.3-23.4zm76.6 24.5l-76.6-24.5c25.3 12.2 50.8 24.5 76.6 24.5zm150-48c-24.3 0-48.7 11.7-73.3 23.5zm-73.3 23.4l-76.7 24.6c25.9 0 51.4-12.4 76.7-24.6zm-153.4 54c-24.5-11.8-48.9-23.4-73.3-23.4zm76.7 24.5l-76.7-24.5c25.3 12.2 50.8 24.5 76.7 24.5zm150-48c-24.4 0-48.8 11.7-73.3 23.5zm-73.4 23.4l-76.6 24.6c25.8 0 51.3-12.4 76.6-24.6zm-153.3 18c-24.6-11.8-49-23.4-73.3-23.4zm76.6 24.5l-76.6-24.5c25.3 12.2 50.7 24.5 76.6 24.5zm150-48c-24.4 0-48.7 11.7-73.3 23.5zm-73.3 23.4l-76.7 24.6c25.9 0 51.4-12.4 76.7-24.6z"/>
	<path id="Layer copy 57" fill-rule="evenodd" class="s0" d="m446.9 797.6c-51 0-100.4-48-150-48m226.7 23.5c24.6-11.8 49-23.5 73.3-23.5zm-76.6 24.5l76.6-24.5c-25.3 12.2-50.7 24.5-76.6 24.5zm-150-66c24.4 0 48.7 11.7 73.3 23.5zm73.3 23.5l76.7 24.5c-25.9 0-51.4-12.3-76.7-24.5zm153.4 0c24.5-11.8 48.9-23.5 73.3-23.5zm-76.7 24.5l76.7-24.5c-25.3 12.2-50.8 24.5-76.7 24.5zm-150-66c24.4 0 48.8 11.7 73.4 23.5zm73.3 23.5l76.7 24.5c-25.9 0-51.4-12.3-76.7-24.5zm153.3 0c24.6-11.8 49-23.5 73.4-23.5zm-76.7 24.5l76.7-24.5c-25.3 12.2-50.8 24.5-76.7 24.5zm-150 6c24.4 0 48.8 11.7 73.3 23.5zm73.3 23.5l76.7 24.5c-25.9 0-51.4-12.3-76.7-24.5zm153.4 0c24.5-11.8 48.9-23.5 73.3-23.5zm-76.7 24.5l76.7-24.5c-25.3 12.2-50.8 24.5-76.7 24.5zm-150-30c24.4 0 48.8 11.7 73.4 23.5zm73.3 23.5l76.7 24.5c-25.9 0-51.4-12.3-76.7-24.5zm153.3 0c24.6-11.8 49-23.5 73.4-23.5zm-76.7 24.5l76.7-24.5c-25.3 12.2-50.8 24.5-76.7 24.5z"/>
	<path id="Layer copy 58" fill-rule="evenodd" class="s0" d="m746.9 797.6c-51 0-100.4-48-150-48m226.7 23.5c24.6-11.8 49-23.5 73.3-23.5zm-76.6 24.5l76.6-24.5c-25.3 12.2-50.7 24.5-76.6 24.5zm-150-66c24.4 0 48.7 11.7 73.3 23.5zm73.3 23.5l76.7 24.5c-25.9 0-51.4-12.3-76.7-24.5zm153.4 0c24.5-11.8 48.9-23.5 73.3-23.5zm-76.7 24.5l76.7-24.5c-25.3 12.2-50.8 24.5-76.7 24.5zm-150-66c24.4 0 48.8 11.7 73.4 23.5zm73.3 23.5l76.7 24.5c-25.9 0-51.4-12.3-76.7-24.5zm153.3 0c24.6-11.8 49-23.5 73.4-23.5zm-76.7 24.5l76.7-24.5c-25.3 12.2-50.8 24.5-76.7 24.5zm-150 6c24.4 0 48.8 11.7 73.3 23.5zm73.3 23.5l76.7 24.5c-25.9 0-51.4-12.3-76.7-24.5zm153.4 0c24.5-11.8 48.9-23.5 73.3-23.5zm-76.7 24.5l76.7-24.5c-25.3 12.2-50.8 24.5-76.7 24.5zm-150-30c24.4 0 48.8 11.7 73.4 23.5zm73.3 23.5l76.7 24.5c-25.9 0-51.4-12.3-76.7-24.5zm153.3 0c24.6-11.8 49-23.5 73.4-23.5zm-76.7 24.5l76.7-24.5c-25.3 12.2-50.8 24.5-76.7 24.5z"/>
	<path id="Layer copy 59" fill-rule="evenodd" class="s0" d="m1046.9 797.6c-51 0-100.4-48-150-48m226.7 23.5c24.6-11.8 49-23.5 73.3-23.5zm-76.6 24.5l76.6-24.5c-25.3 12.2-50.7 24.5-76.6 24.5zm-150-66c24.4 0 48.7 11.7 73.3 23.5zm73.3 23.5l76.7 24.5c-25.9 0-51.4-12.3-76.7-24.5zm153.4 0c24.5-11.8 48.9-23.5 73.3-23.5zm-76.7 24.5l76.7-24.5c-25.3 12.2-50.8 24.5-76.7 24.5zm-150-66c24.4 0 48.8 11.7 73.4 23.5zm73.3 23.5l76.7 24.5c-25.9 0-51.4-12.3-76.7-24.5zm153.3 0c24.6-11.8 49-23.5 73.4-23.5zm-76.7 24.5l76.7-24.5c-25.3 12.2-50.8 24.5-76.7 24.5zm-150 6c24.4 0 48.8 11.7 73.3 23.5zm73.3 23.5l76.7 24.5c-25.9 0-51.4-12.3-76.7-24.5zm153.4 0c24.5-11.8 48.9-23.5 73.3-23.5zm-76.7 24.5l76.7-24.5c-25.3 12.2-50.8 24.5-76.7 24.5zm-150-30c24.4 0 48.8 11.7 73.4 23.5zm73.3 23.5l76.7 24.5c-25.9 0-51.4-12.3-76.7-24.5zm153.3 0c24.6-11.8 49-23.5 73.4-23.5zm-76.7 24.5l76.7-24.5c-25.3 12.2-50.8 24.5-76.7 24.5z"/>
	<path id="Layer copy 60" fill-rule="evenodd" class="s0" d="m1346.9 797.6c-51 0-100.4-48-150-48m226.7 23.5c24.6-11.8 49-23.5 73.3-23.5zm-76.6 24.5l76.6-24.5c-25.3 12.2-50.7 24.5-76.6 24.5zm-150-66c24.4 0 48.7 11.7 73.3 23.5zm73.3 23.5l76.7 24.5c-25.9 0-51.4-12.3-76.7-24.5zm153.4 0c24.5-11.8 48.9-23.5 73.3-23.5zm-76.7 24.5l76.7-24.5c-25.3 12.2-50.8 24.5-76.7 24.5zm-150-66c24.4 0 48.8 11.7 73.4 23.5zm73.3 23.5l76.7 24.5c-25.9 0-51.4-12.3-76.7-24.5zm153.3 0c24.6-11.8 49-23.5 73.4-23.5zm-76.7 24.5l76.7-24.5c-25.3 12.2-50.8 24.5-76.7 24.5zm-150 6c24.4 0 48.8 11.7 73.3 23.5zm73.3 23.5l76.7 24.5c-25.9 0-51.4-12.3-76.7-24.5zm153.4 0c24.5-11.8 48.9-23.5 73.3-23.5zm-76.7 24.5l76.7-24.5c-25.3 12.2-50.8 24.5-76.7 24.5zm-150-30c24.4 0 48.8 11.7 73.4 23.5zm73.3 23.5l76.7 24.5c-25.9 0-51.4-12.3-76.7-24.5zm153.3 0c24.6-11.8 49-23.5 73.4-23.5zm-76.7 24.5l76.7-24.5c-25.3 12.2-50.8 24.5-76.7 24.5z"/>
	<path id="Layer copy 61" fill-rule="evenodd" class="s0" d="m1646.9 797.6c-51 0-100.4-48-150-48m226.7 23.5c24.6-11.8 49-23.5 73.3-23.5zm-76.6 24.5l76.6-24.5c-25.3 12.2-50.7 24.5-76.6 24.5zm-150-66c24.4 0 48.7 11.7 73.3 23.5zm73.3 23.5l76.7 24.5c-25.9 0-51.4-12.3-76.7-24.5zm153.4 0c24.5-11.8 48.9-23.5 73.3-23.5zm-76.7 24.5l76.7-24.5c-25.3 12.2-50.8 24.5-76.7 24.5zm-150-66c24.4 0 48.8 11.7 73.4 23.5zm73.3 23.5l76.7 24.5c-25.9 0-51.4-12.3-76.7-24.5zm153.3 0c24.6-11.8 49-23.5 73.4-23.5zm-76.7 24.5l76.7-24.5c-25.3 12.2-50.8 24.5-76.7 24.5zm-150 6c24.4 0 48.8 11.7 73.3 23.5zm73.3 23.5l76.7 24.5c-25.9 0-51.4-12.3-76.7-24.5zm153.4 0c24.5-11.8 48.9-23.5 73.3-23.5zm-76.7 24.5l76.7-24.5c-25.3 12.2-50.8 24.5-76.7 24.5zm-150-30c24.4 0 48.8 11.7 73.4 23.5zm73.3 23.5l76.7 24.5c-25.9 0-51.4-12.3-76.7-24.5zm153.3 0c24.6-11.8 49-23.5 73.4-23.5zm-76.7 24.5l76.7-24.5c-25.3 12.2-50.8 24.5-76.7 24.5z"/>
	<path id="Layer copy 62" fill-rule="evenodd" class="s0" d="m1946.9 797.6c-51 0-100.4-48-150-48m226.7 23.5c24.6-11.8 49-23.5 73.3-23.5zm-76.6 24.5l76.6-24.5c-25.3 12.2-50.7 24.5-76.6 24.5zm-150-66c24.4 0 48.7 11.7 73.3 23.5zm73.3 23.5l76.7 24.5c-25.9 0-51.4-12.3-76.7-24.5zm153.4 0c24.5-11.8 48.9-23.5 73.3-23.5zm-76.7 24.5l76.7-24.5c-25.3 12.2-50.8 24.5-76.7 24.5zm-150-66c24.4 0 48.8 11.7 73.4 23.5zm73.3 23.5l76.7 24.5c-25.9 0-51.4-12.3-76.7-24.5zm153.3 0c24.6-11.8 49-23.5 73.4-23.5zm-76.7 24.5l76.7-24.5c-25.3 12.2-50.8 24.5-76.7 24.5zm-150 6c24.4 0 48.8 11.7 73.3 23.5zm73.3 23.5l76.7 24.5c-25.9 0-51.4-12.3-76.7-24.5zm153.4 0c24.5-11.8 48.9-23.5 73.3-23.5zm-76.7 24.5l76.7-24.5c-25.3 12.2-50.8 24.5-76.7 24.5zm-150-30c24.4 0 48.8 11.7 73.4 23.5zm73.3 23.5l76.7 24.5c-25.9 0-51.4-12.3-76.7-24.5zm153.3 0c24.6-11.8 49-23.5 73.4-23.5zm-76.7 24.5l76.7-24.5c-25.3 12.2-50.8 24.5-76.7 24.5z"/>
	<path id="Layer copy 63" fill-rule="evenodd" class="s0" d="m146.9 710.6c-51 0-100.4-48-150-48m226.7 23.5c24.6-11.8 49-23.5 73.3-23.5zm-76.6 24.5l76.6-24.5c-25.3 12.2-50.7 24.5-76.6 24.5zm-150-66c24.4 0 48.7 11.7 73.3 23.5zm73.3 23.5l76.7 24.5c-25.9 0-51.4-12.3-76.7-24.5zm153.4 0c24.5-11.8 48.9-23.5 73.3-23.5zm-76.7 24.5l76.7-24.5c-25.3 12.2-50.8 24.5-76.7 24.5zm-150-66c24.4 0 48.8 11.7 73.4 23.5zm73.3 23.5l76.7 24.5c-25.9 0-51.4-12.3-76.7-24.5zm153.3 0c24.6-11.8 49-23.5 73.4-23.5zm-76.7 24.5l76.7-24.5c-25.3 12.2-50.8 24.5-76.7 24.5zm-150 6c24.4 0 48.8 11.7 73.3 23.5zm73.3 23.5l76.7 24.5c-25.9 0-51.4-12.3-76.7-24.5zm153.4 0c24.5-11.8 48.9-23.5 73.3-23.5zm-76.7 24.5l76.7-24.5c-25.3 12.2-50.8 24.5-76.7 24.5zm-150-30c24.4 0 48.8 11.7 73.4 23.5zm73.3 23.5l76.7 24.5c-25.9 0-51.4-12.3-76.7-24.5zm153.3 0c24.6-11.8 49-23.5 73.4-23.5zm-76.7 24.5l76.7-24.5c-25.3 12.2-50.8 24.5-76.7 24.5z"/>
	<path id="Layer copy 64" fill-rule="evenodd" class="s0" d="m446.9 710.6c-51 0-100.4-48-150-48m226.7 23.5c24.6-11.8 49-23.5 73.3-23.5zm-76.6 24.5l76.6-24.5c-25.3 12.2-50.7 24.5-76.6 24.5zm-150-66c24.4 0 48.7 11.7 73.3 23.5zm73.3 23.5l76.7 24.5c-25.9 0-51.4-12.3-76.7-24.5zm153.4 0c24.5-11.8 48.9-23.5 73.3-23.5zm-76.7 24.5l76.7-24.5c-25.3 12.2-50.8 24.5-76.7 24.5zm-150-66c24.4 0 48.8 11.7 73.4 23.5zm73.3 23.5l76.7 24.5c-25.9 0-51.4-12.3-76.7-24.5zm153.3 0c24.6-11.8 49-23.5 73.4-23.5zm-76.7 24.5l76.7-24.5c-25.3 12.2-50.8 24.5-76.7 24.5zm-150 6c24.4 0 48.8 11.7 73.3 23.5zm73.3 23.5l76.7 24.5c-25.9 0-51.4-12.3-76.7-24.5zm153.4 0c24.5-11.8 48.9-23.5 73.3-23.5zm-76.7 24.5l76.7-24.5c-25.3 12.2-50.8 24.5-76.7 24.5zm-150-30c24.4 0 48.8 11.7 73.4 23.5zm73.3 23.5l76.7 24.5c-25.9 0-51.4-12.3-76.7-24.5zm153.3 0c24.6-11.8 49-23.5 73.4-23.5zm-76.7 24.5l76.7-24.5c-25.3 12.2-50.8 24.5-76.7 24.5z"/>
	<path id="Layer copy 65" fill-rule="evenodd" class="s0" d="m746.9 710.6c-51 0-100.4-48-150-48m226.7 23.5c24.6-11.8 49-23.5 73.3-23.5zm-76.6 24.5l76.6-24.5c-25.3 12.2-50.7 24.5-76.6 24.5zm-150-66c24.4 0 48.7 11.7 73.3 23.5zm73.3 23.5l76.7 24.5c-25.9 0-51.4-12.3-76.7-24.5zm153.4 0c24.5-11.8 48.9-23.5 73.3-23.5zm-76.7 24.5l76.7-24.5c-25.3 12.2-50.8 24.5-76.7 24.5zm-150-66c24.4 0 48.8 11.7 73.4 23.5zm73.3 23.5l76.7 24.5c-25.9 0-51.4-12.3-76.7-24.5zm153.3 0c24.6-11.8 49-23.5 73.4-23.5zm-76.7 24.5l76.7-24.5c-25.3 12.2-50.8 24.5-76.7 24.5zm-150 6c24.4 0 48.8 11.7 73.3 23.5zm73.3 23.5l76.7 24.5c-25.9 0-51.4-12.3-76.7-24.5zm153.4 0c24.5-11.8 48.9-23.5 73.3-23.5zm-76.7 24.5l76.7-24.5c-25.3 12.2-50.8 24.5-76.7 24.5zm-150-30c24.4 0 48.8 11.7 73.4 23.5zm73.3 23.5l76.7 24.5c-25.9 0-51.4-12.3-76.7-24.5zm153.3 0c24.6-11.8 49-23.5 73.4-23.5zm-76.7 24.5l76.7-24.5c-25.3 12.2-50.8 24.5-76.7 24.5z"/>
	<path id="Layer copy 66" fill-rule="evenodd" class="s0" d="m1046.9 710.6c-51 0-100.4-48-150-48m226.7 23.5c24.6-11.8 49-23.5 73.3-23.5zm-76.6 24.5l76.6-24.5c-25.3 12.2-50.7 24.5-76.6 24.5zm-150-66c24.4 0 48.7 11.7 73.3 23.5zm73.3 23.5l76.7 24.5c-25.9 0-51.4-12.3-76.7-24.5zm153.4 0c24.5-11.8 48.9-23.5 73.3-23.5zm-76.7 24.5l76.7-24.5c-25.3 12.2-50.8 24.5-76.7 24.5zm-150-66c24.4 0 48.8 11.7 73.4 23.5zm73.3 23.5l76.7 24.5c-25.9 0-51.4-12.3-76.7-24.5zm153.3 0c24.6-11.8 49-23.5 73.4-23.5zm-76.7 24.5l76.7-24.5c-25.3 12.2-50.8 24.5-76.7 24.5zm-150 6c24.4 0 48.8 11.7 73.3 23.5zm73.3 23.5l76.7 24.5c-25.9 0-51.4-12.3-76.7-24.5zm153.4 0c24.5-11.8 48.9-23.5 73.3-23.5zm-76.7 24.5l76.7-24.5c-25.3 12.2-50.8 24.5-76.7 24.5zm-150-30c24.4 0 48.8 11.7 73.4 23.5zm73.3 23.5l76.7 24.5c-25.9 0-51.4-12.3-76.7-24.5zm153.3 0c24.6-11.8 49-23.5 73.4-23.5zm-76.7 24.5l76.7-24.5c-25.3 12.2-50.8 24.5-76.7 24.5z"/>
	<path id="Layer copy 67" fill-rule="evenodd" class="s0" d="m1346.9 710.6c-51 0-100.4-48-150-48m226.7 23.5c24.6-11.8 49-23.5 73.3-23.5zm-76.6 24.5l76.6-24.5c-25.3 12.2-50.7 24.5-76.6 24.5zm-150-66c24.4 0 48.7 11.7 73.3 23.5zm73.3 23.5l76.7 24.5c-25.9 0-51.4-12.3-76.7-24.5zm153.4 0c24.5-11.8 48.9-23.5 73.3-23.5zm-76.7 24.5l76.7-24.5c-25.3 12.2-50.8 24.5-76.7 24.5zm-150-66c24.4 0 48.8 11.7 73.4 23.5zm73.3 23.5l76.7 24.5c-25.9 0-51.4-12.3-76.7-24.5zm153.3 0c24.6-11.8 49-23.5 73.4-23.5zm-76.7 24.5l76.7-24.5c-25.3 12.2-50.8 24.5-76.7 24.5zm-150 6c24.4 0 48.8 11.7 73.3 23.5zm73.3 23.5l76.7 24.5c-25.9 0-51.4-12.3-76.7-24.5zm153.4 0c24.5-11.8 48.9-23.5 73.3-23.5zm-76.7 24.5l76.7-24.5c-25.3 12.2-50.8 24.5-76.7 24.5zm-150-30c24.4 0 48.8 11.7 73.4 23.5zm73.3 23.5l76.7 24.5c-25.9 0-51.4-12.3-76.7-24.5zm153.3 0c24.6-11.8 49-23.5 73.4-23.5zm-76.7 24.5l76.7-24.5c-25.3 12.2-50.8 24.5-76.7 24.5z"/>
	<path id="Layer copy 68" fill-rule="evenodd" class="s0" d="m1646.9 710.6c-51 0-100.4-48-150-48m226.7 23.5c24.6-11.8 49-23.5 73.3-23.5zm-76.6 24.5l76.6-24.5c-25.3 12.2-50.7 24.5-76.6 24.5zm-150-66c24.4 0 48.7 11.7 73.3 23.5zm73.3 23.5l76.7 24.5c-25.9 0-51.4-12.3-76.7-24.5zm153.4 0c24.5-11.8 48.9-23.5 73.3-23.5zm-76.7 24.5l76.7-24.5c-25.3 12.2-50.8 24.5-76.7 24.5zm-150-66c24.4 0 48.8 11.7 73.4 23.5zm73.3 23.5l76.7 24.5c-25.9 0-51.4-12.3-76.7-24.5zm153.3 0c24.6-11.8 49-23.5 73.4-23.5zm-76.7 24.5l76.7-24.5c-25.3 12.2-50.8 24.5-76.7 24.5zm-150 6c24.4 0 48.8 11.7 73.3 23.5zm73.3 23.5l76.7 24.5c-25.9 0-51.4-12.3-76.7-24.5zm153.4 0c24.5-11.8 48.9-23.5 73.3-23.5zm-76.7 24.5l76.7-24.5c-25.3 12.2-50.8 24.5-76.7 24.5zm-150-30c24.4 0 48.8 11.7 73.4 23.5zm73.3 23.5l76.7 24.5c-25.9 0-51.4-12.3-76.7-24.5zm153.3 0c24.6-11.8 49-23.5 73.4-23.5zm-76.7 24.5l76.7-24.5c-25.3 12.2-50.8 24.5-76.7 24.5z"/>
	<path id="Layer copy 69" fill-rule="evenodd" class="s0" d="m1946.9 710.6c-51 0-100.4-48-150-48m226.7 23.5c24.6-11.8 49-23.5 73.3-23.5zm-76.6 24.5l76.6-24.5c-25.3 12.2-50.7 24.5-76.6 24.5zm-150-66c24.4 0 48.7 11.7 73.3 23.5zm73.3 23.5l76.7 24.5c-25.9 0-51.4-12.3-76.7-24.5zm153.4 0c24.5-11.8 48.9-23.5 73.3-23.5zm-76.7 24.5l76.7-24.5c-25.3 12.2-50.8 24.5-76.7 24.5zm-150-66c24.4 0 48.8 11.7 73.4 23.5zm73.3 23.5l76.7 24.5c-25.9 0-51.4-12.3-76.7-24.5zm153.3 0c24.6-11.8 49-23.5 73.4-23.5zm-76.7 24.5l76.7-24.5c-25.3 12.2-50.8 24.5-76.7 24.5zm-150 6c24.4 0 48.8 11.7 73.3 23.5zm73.3 23.5l76.7 24.5c-25.9 0-51.4-12.3-76.7-24.5zm153.4 0c24.5-11.8 48.9-23.5 73.3-23.5zm-76.7 24.5l76.7-24.5c-25.3 12.2-50.8 24.5-76.7 24.5zm-150-30c24.4 0 48.8 11.7 73.4 23.5zm73.3 23.5l76.7 24.5c-25.9 0-51.4-12.3-76.7-24.5zm153.3 0c24.6-11.8 49-23.5 73.4-23.5zm-76.7 24.5l76.7-24.5c-25.3 12.2-50.8 24.5-76.7 24.5z"/>
	<path id="Layer copy 70" fill-rule="evenodd" class="s0" d="m146.9 975.6c-51 0-100.4-48-150-48m226.7 23.5c24.6-11.8 49-23.5 73.3-23.5zm-76.6 24.5l76.6-24.5c-25.3 12.2-50.7 24.5-76.6 24.5zm-150-66c24.4 0 48.7 11.7 73.3 23.5zm73.3 23.5l76.7 24.5c-25.9 0-51.4-12.3-76.7-24.5zm153.4 0c24.5-11.8 48.9-23.5 73.3-23.5zm-76.7 24.5l76.7-24.5c-25.3 12.2-50.8 24.5-76.7 24.5zm-150-66c24.4 0 48.8 11.7 73.4 23.5zm73.3 23.5l76.7 24.5c-25.9 0-51.4-12.3-76.7-24.5zm153.3 0c24.6-11.8 49-23.5 73.4-23.5zm-76.7 24.5l76.7-24.5c-25.3 12.2-50.8 24.5-76.7 24.5zm-150 6c24.4 0 48.8 11.7 73.3 23.5zm73.3 23.5l76.7 24.5c-25.9 0-51.4-12.3-76.7-24.5zm153.4 0c24.5-11.8 48.9-23.5 73.3-23.5zm-76.7 24.5l76.7-24.5c-25.3 12.2-50.8 24.5-76.7 24.5zm-150-30c24.4 0 48.8 11.7 73.4 23.5zm73.3 23.5l76.7 24.5c-25.9 0-51.4-12.3-76.7-24.5zm153.3 0c24.6-11.8 49-23.5 73.4-23.5zm-76.7 24.5l76.7-24.5c-25.3 12.2-50.8 24.5-76.7 24.5z"/>
	<path id="Layer copy 71" fill-rule="evenodd" class="s0" d="m446.9 975.6c-51 0-100.4-48-150-48m226.7 23.5c24.6-11.8 49-23.5 73.3-23.5zm-76.6 24.5l76.6-24.5c-25.3 12.2-50.7 24.5-76.6 24.5zm-150-66c24.4 0 48.7 11.7 73.3 23.5zm73.3 23.5l76.7 24.5c-25.9 0-51.4-12.3-76.7-24.5zm153.4 0c24.5-11.8 48.9-23.5 73.3-23.5zm-76.7 24.5l76.7-24.5c-25.3 12.2-50.8 24.5-76.7 24.5zm-150-66c24.4 0 48.8 11.7 73.4 23.5zm73.3 23.5l76.7 24.5c-25.9 0-51.4-12.3-76.7-24.5zm153.3 0c24.6-11.8 49-23.5 73.4-23.5zm-76.7 24.5l76.7-24.5c-25.3 12.2-50.8 24.5-76.7 24.5zm-150 6c24.4 0 48.8 11.7 73.3 23.5zm73.3 23.5l76.7 24.5c-25.9 0-51.4-12.3-76.7-24.5zm153.4 0c24.5-11.8 48.9-23.5 73.3-23.5zm-76.7 24.5l76.7-24.5c-25.3 12.2-50.8 24.5-76.7 24.5zm-150-30c24.4 0 48.8 11.7 73.4 23.5zm73.3 23.5l76.7 24.5c-25.9 0-51.4-12.3-76.7-24.5zm153.3 0c24.6-11.8 49-23.5 73.4-23.5zm-76.7 24.5l76.7-24.5c-25.3 12.2-50.8 24.5-76.7 24.5z"/>
	<path id="Layer copy 72" fill-rule="evenodd" class="s0" d="m746.9 975.6c-51 0-100.4-48-150-48m226.7 23.5c24.6-11.8 49-23.5 73.3-23.5zm-76.6 24.5l76.6-24.5c-25.3 12.2-50.7 24.5-76.6 24.5zm-150-66c24.4 0 48.7 11.7 73.3 23.5zm73.3 23.5l76.7 24.5c-25.9 0-51.4-12.3-76.7-24.5zm153.4 0c24.5-11.8 48.9-23.5 73.3-23.5zm-76.7 24.5l76.7-24.5c-25.3 12.2-50.8 24.5-76.7 24.5zm-150-66c24.4 0 48.8 11.7 73.4 23.5zm73.3 23.5l76.7 24.5c-25.9 0-51.4-12.3-76.7-24.5zm153.3 0c24.6-11.8 49-23.5 73.4-23.5zm-76.7 24.5l76.7-24.5c-25.3 12.2-50.8 24.5-76.7 24.5zm-150 6c24.4 0 48.8 11.7 73.3 23.5zm73.3 23.5l76.7 24.5c-25.9 0-51.4-12.3-76.7-24.5zm153.4 0c24.5-11.8 48.9-23.5 73.3-23.5zm-76.7 24.5l76.7-24.5c-25.3 12.2-50.8 24.5-76.7 24.5zm-150-30c24.4 0 48.8 11.7 73.4 23.5zm73.3 23.5l76.7 24.5c-25.9 0-51.4-12.3-76.7-24.5zm153.3 0c24.6-11.8 49-23.5 73.4-23.5zm-76.7 24.5l76.7-24.5c-25.3 12.2-50.8 24.5-76.7 24.5z"/>
	<path id="Layer copy 73" fill-rule="evenodd" class="s0" d="m1046.9 975.6c-51 0-100.4-48-150-48m226.7 23.5c24.6-11.8 49-23.5 73.3-23.5zm-76.6 24.5l76.6-24.5c-25.3 12.2-50.7 24.5-76.6 24.5zm-150-66c24.4 0 48.7 11.7 73.3 23.5zm73.3 23.5l76.7 24.5c-25.9 0-51.4-12.3-76.7-24.5zm153.4 0c24.5-11.8 48.9-23.5 73.3-23.5zm-76.7 24.5l76.7-24.5c-25.3 12.2-50.8 24.5-76.7 24.5zm-150-66c24.4 0 48.8 11.7 73.4 23.5zm73.3 23.5l76.7 24.5c-25.9 0-51.4-12.3-76.7-24.5zm153.3 0c24.6-11.8 49-23.5 73.4-23.5zm-76.7 24.5l76.7-24.5c-25.3 12.2-50.8 24.5-76.7 24.5zm-150 6c24.4 0 48.8 11.7 73.3 23.5zm73.3 23.5l76.7 24.5c-25.9 0-51.4-12.3-76.7-24.5zm153.4 0c24.5-11.8 48.9-23.5 73.3-23.5zm-76.7 24.5l76.7-24.5c-25.3 12.2-50.8 24.5-76.7 24.5zm-150-30c24.4 0 48.8 11.7 73.4 23.5zm73.3 23.5l76.7 24.5c-25.9 0-51.4-12.3-76.7-24.5zm153.3 0c24.6-11.8 49-23.5 73.4-23.5zm-76.7 24.5l76.7-24.5c-25.3 12.2-50.8 24.5-76.7 24.5z"/>
	<path id="Layer copy 74" fill-rule="evenodd" class="s0" d="m1346.9 975.6c-51 0-100.4-48-150-48m226.7 23.5c24.6-11.8 49-23.5 73.3-23.5zm-76.6 24.5l76.6-24.5c-25.3 12.2-50.7 24.5-76.6 24.5zm-150-66c24.4 0 48.7 11.7 73.3 23.5zm73.3 23.5l76.7 24.5c-25.9 0-51.4-12.3-76.7-24.5zm153.4 0c24.5-11.8 48.9-23.5 73.3-23.5zm-76.7 24.5l76.7-24.5c-25.3 12.2-50.8 24.5-76.7 24.5zm-150-66c24.4 0 48.8 11.7 73.4 23.5zm73.3 23.5l76.7 24.5c-25.9 0-51.4-12.3-76.7-24.5zm153.3 0c24.6-11.8 49-23.5 73.4-23.5zm-76.7 24.5l76.7-24.5c-25.3 12.2-50.8 24.5-76.7 24.5zm-150 6c24.4 0 48.8 11.7 73.3 23.5zm73.3 23.5l76.7 24.5c-25.9 0-51.4-12.3-76.7-24.5zm153.4 0c24.5-11.8 48.9-23.5 73.3-23.5zm-76.7 24.5l76.7-24.5c-25.3 12.2-50.8 24.5-76.7 24.5zm-150-30c24.4 0 48.8 11.7 73.4 23.5zm73.3 23.5l76.7 24.5c-25.9 0-51.4-12.3-76.7-24.5zm153.3 0c24.6-11.8 49-23.5 73.4-23.5zm-76.7 24.5l76.7-24.5c-25.3 12.2-50.8 24.5-76.7 24.5z"/>
	<path id="Layer copy 75" fill-rule="evenodd" class="s0" d="m1646.9 975.6c-51 0-100.4-48-150-48m226.7 23.5c24.6-11.8 49-23.5 73.3-23.5zm-76.6 24.5l76.6-24.5c-25.3 12.2-50.7 24.5-76.6 24.5zm-150-66c24.4 0 48.7 11.7 73.3 23.5zm73.3 23.5l76.7 24.5c-25.9 0-51.4-12.3-76.7-24.5zm153.4 0c24.5-11.8 48.9-23.5 73.3-23.5zm-76.7 24.5l76.7-24.5c-25.3 12.2-50.8 24.5-76.7 24.5zm-150-66c24.4 0 48.8 11.7 73.4 23.5zm73.3 23.5l76.7 24.5c-25.9 0-51.4-12.3-76.7-24.5zm153.3 0c24.6-11.8 49-23.5 73.4-23.5zm-76.7 24.5l76.7-24.5c-25.3 12.2-50.8 24.5-76.7 24.5zm-150 6c24.4 0 48.8 11.7 73.3 23.5zm73.3 23.5l76.7 24.5c-25.9 0-51.4-12.3-76.7-24.5zm153.4 0c24.5-11.8 48.9-23.5 73.3-23.5zm-76.7 24.5l76.7-24.5c-25.3 12.2-50.8 24.5-76.7 24.5zm-150-30c24.4 0 48.8 11.7 73.4 23.5zm73.3 23.5l76.7 24.5c-25.9 0-51.4-12.3-76.7-24.5zm153.3 0c24.6-11.8 49-23.5 73.4-23.5zm-76.7 24.5l76.7-24.5c-25.3 12.2-50.8 24.5-76.7 24.5z"/>
	<path id="Layer copy 76" fill-rule="evenodd" class="s0" d="m1946.9 975.6c-51 0-100.4-48-150-48m226.7 23.5c24.6-11.8 49-23.5 73.3-23.5zm-76.6 24.5l76.6-24.5c-25.3 12.2-50.7 24.5-76.6 24.5zm-150-66c24.4 0 48.7 11.7 73.3 23.5zm73.3 23.5l76.7 24.5c-25.9 0-51.4-12.3-76.7-24.5zm153.4 0c24.5-11.8 48.9-23.5 73.3-23.5zm-76.7 24.5l76.7-24.5c-25.3 12.2-50.8 24.5-76.7 24.5zm-150-66c24.4 0 48.8 11.7 73.4 23.5zm73.3 23.5l76.7 24.5c-25.9 0-51.4-12.3-76.7-24.5zm153.3 0c24.6-11.8 49-23.5 73.4-23.5zm-76.7 24.5l76.7-24.5c-25.3 12.2-50.8 24.5-76.7 24.5zm-150 6c24.4 0 48.8 11.7 73.3 23.5zm73.3 23.5l76.7 24.5c-25.9 0-51.4-12.3-76.7-24.5zm153.4 0c24.5-11.8 48.9-23.5 73.3-23.5zm-76.7 24.5l76.7-24.5c-25.3 12.2-50.8 24.5-76.7 24.5zm-150-30c24.4 0 48.8 11.7 73.4 23.5zm73.3 23.5l76.7 24.5c-25.9 0-51.4-12.3-76.7-24.5zm153.3 0c24.6-11.8 49-23.5 73.4-23.5zm-76.7 24.5l76.7-24.5c-25.3 12.2-50.8 24.5-76.7 24.5z"/>
	<path id="Layer copy 77" fill-rule="evenodd" class="s0" d="m146.9 888.6c-51 0-100.4-48-150-48m226.7 23.5c24.6-11.8 49-23.5 73.3-23.5zm-76.6 24.5l76.6-24.5c-25.3 12.2-50.7 24.5-76.6 24.5zm-150-66c24.4 0 48.7 11.7 73.3 23.5zm73.3 23.5l76.7 24.5c-25.9 0-51.4-12.3-76.7-24.5zm153.4 0c24.5-11.8 48.9-23.5 73.3-23.5zm-76.7 24.5l76.7-24.5c-25.3 12.2-50.8 24.5-76.7 24.5zm-150-66c24.4 0 48.8 11.7 73.4 23.5zm73.3 23.5l76.7 24.5c-25.9 0-51.4-12.3-76.7-24.5zm153.3 0c24.6-11.8 49-23.5 73.4-23.5zm-76.7 24.5l76.7-24.5c-25.3 12.2-50.8 24.5-76.7 24.5zm-150 6c24.4 0 48.8 11.7 73.3 23.5zm73.3 23.5l76.7 24.5c-25.9 0-51.4-12.3-76.7-24.5zm153.4 0c24.5-11.8 48.9-23.5 73.3-23.5zm-76.7 24.5l76.7-24.5c-25.3 12.2-50.8 24.5-76.7 24.5zm-150-30c24.4 0 48.8 11.7 73.4 23.5zm73.3 23.5l76.7 24.5c-25.9 0-51.4-12.3-76.7-24.5zm153.3 0c24.6-11.8 49-23.5 73.4-23.5zm-76.7 24.5l76.7-24.5c-25.3 12.2-50.8 24.5-76.7 24.5z"/>
	<path id="Layer copy 78" fill-rule="evenodd" class="s0" d="m446.9 888.6c-51 0-100.4-48-150-48m226.7 23.5c24.6-11.8 49-23.5 73.3-23.5zm-76.6 24.5l76.6-24.5c-25.3 12.2-50.7 24.5-76.6 24.5zm-150-66c24.4 0 48.7 11.7 73.3 23.5zm73.3 23.5l76.7 24.5c-25.9 0-51.4-12.3-76.7-24.5zm153.4 0c24.5-11.8 48.9-23.5 73.3-23.5zm-76.7 24.5l76.7-24.5c-25.3 12.2-50.8 24.5-76.7 24.5zm-150-66c24.4 0 48.8 11.7 73.4 23.5zm73.3 23.5l76.7 24.5c-25.9 0-51.4-12.3-76.7-24.5zm153.3 0c24.6-11.8 49-23.5 73.4-23.5zm-76.7 24.5l76.7-24.5c-25.3 12.2-50.8 24.5-76.7 24.5zm-150 6c24.4 0 48.8 11.7 73.3 23.5zm73.3 23.5l76.7 24.5c-25.9 0-51.4-12.3-76.7-24.5zm153.4 0c24.5-11.8 48.9-23.5 73.3-23.5zm-76.7 24.5l76.7-24.5c-25.3 12.2-50.8 24.5-76.7 24.5zm-150-30c24.4 0 48.8 11.7 73.4 23.5zm73.3 23.5l76.7 24.5c-25.9 0-51.4-12.3-76.7-24.5zm153.3 0c24.6-11.8 49-23.5 73.4-23.5zm-76.7 24.5l76.7-24.5c-25.3 12.2-50.8 24.5-76.7 24.5z"/>
	<path id="Layer copy 79" fill-rule="evenodd" class="s0" d="m746.9 888.6c-51 0-100.4-48-150-48m226.7 23.5c24.6-11.8 49-23.5 73.3-23.5zm-76.6 24.5l76.6-24.5c-25.3 12.2-50.7 24.5-76.6 24.5zm-150-66c24.4 0 48.7 11.7 73.3 23.5zm73.3 23.5l76.7 24.5c-25.9 0-51.4-12.3-76.7-24.5zm153.4 0c24.5-11.8 48.9-23.5 73.3-23.5zm-76.7 24.5l76.7-24.5c-25.3 12.2-50.8 24.5-76.7 24.5zm-150-66c24.4 0 48.8 11.7 73.4 23.5zm73.3 23.5l76.7 24.5c-25.9 0-51.4-12.3-76.7-24.5zm153.3 0c24.6-11.8 49-23.5 73.4-23.5zm-76.7 24.5l76.7-24.5c-25.3 12.2-50.8 24.5-76.7 24.5zm-150 6c24.4 0 48.8 11.7 73.3 23.5zm73.3 23.5l76.7 24.5c-25.9 0-51.4-12.3-76.7-24.5zm153.4 0c24.5-11.8 48.9-23.5 73.3-23.5zm-76.7 24.5l76.7-24.5c-25.3 12.2-50.8 24.5-76.7 24.5zm-150-30c24.4 0 48.8 11.7 73.4 23.5zm73.3 23.5l76.7 24.5c-25.9 0-51.4-12.3-76.7-24.5zm153.3 0c24.6-11.8 49-23.5 73.4-23.5zm-76.7 24.5l76.7-24.5c-25.3 12.2-50.8 24.5-76.7 24.5z"/>
	<path id="Layer copy 80" fill-rule="evenodd" class="s0" d="m1046.9 888.6c-51 0-100.4-48-150-48m226.7 23.5c24.6-11.8 49-23.5 73.3-23.5zm-76.6 24.5l76.6-24.5c-25.3 12.2-50.7 24.5-76.6 24.5zm-150-66c24.4 0 48.7 11.7 73.3 23.5zm73.3 23.5l76.7 24.5c-25.9 0-51.4-12.3-76.7-24.5zm153.4 0c24.5-11.8 48.9-23.5 73.3-23.5zm-76.7 24.5l76.7-24.5c-25.3 12.2-50.8 24.5-76.7 24.5zm-150-66c24.4 0 48.8 11.7 73.4 23.5zm73.3 23.5l76.7 24.5c-25.9 0-51.4-12.3-76.7-24.5zm153.3 0c24.6-11.8 49-23.5 73.4-23.5zm-76.7 24.5l76.7-24.5c-25.3 12.2-50.8 24.5-76.7 24.5zm-150 6c24.4 0 48.8 11.7 73.3 23.5zm73.3 23.5l76.7 24.5c-25.9 0-51.4-12.3-76.7-24.5zm153.4 0c24.5-11.8 48.9-23.5 73.3-23.5zm-76.7 24.5l76.7-24.5c-25.3 12.2-50.8 24.5-76.7 24.5zm-150-30c24.4 0 48.8 11.7 73.4 23.5zm73.3 23.5l76.7 24.5c-25.9 0-51.4-12.3-76.7-24.5zm153.3 0c24.6-11.8 49-23.5 73.4-23.5zm-76.7 24.5l76.7-24.5c-25.3 12.2-50.8 24.5-76.7 24.5z"/>
	<path id="Layer copy 81" fill-rule="evenodd" class="s0" d="m1346.9 888.6c-51 0-100.4-48-150-48m226.7 23.5c24.6-11.8 49-23.5 73.3-23.5zm-76.6 24.5l76.6-24.5c-25.3 12.2-50.7 24.5-76.6 24.5zm-150-66c24.4 0 48.7 11.7 73.3 23.5zm73.3 23.5l76.7 24.5c-25.9 0-51.4-12.3-76.7-24.5zm153.4 0c24.5-11.8 48.9-23.5 73.3-23.5zm-76.7 24.5l76.7-24.5c-25.3 12.2-50.8 24.5-76.7 24.5zm-150-66c24.4 0 48.8 11.7 73.4 23.5zm73.3 23.5l76.7 24.5c-25.9 0-51.4-12.3-76.7-24.5zm153.3 0c24.6-11.8 49-23.5 73.4-23.5zm-76.7 24.5l76.7-24.5c-25.3 12.2-50.8 24.5-76.7 24.5zm-150 6c24.4 0 48.8 11.7 73.3 23.5zm73.3 23.5l76.7 24.5c-25.9 0-51.4-12.3-76.7-24.5zm153.4 0c24.5-11.8 48.9-23.5 73.3-23.5zm-76.7 24.5l76.7-24.5c-25.3 12.2-50.8 24.5-76.7 24.5zm-150-30c24.4 0 48.8 11.7 73.4 23.5zm73.3 23.5l76.7 24.5c-25.9 0-51.4-12.3-76.7-24.5zm153.3 0c24.6-11.8 49-23.5 73.4-23.5zm-76.7 24.5l76.7-24.5c-25.3 12.2-50.8 24.5-76.7 24.5z"/>
	<path id="Layer copy 82" fill-rule="evenodd" class="s0" d="m1646.9 888.6c-51 0-100.4-48-150-48m226.7 23.5c24.6-11.8 49-23.5 73.3-23.5zm-76.6 24.5l76.6-24.5c-25.3 12.2-50.7 24.5-76.6 24.5zm-150-66c24.4 0 48.7 11.7 73.3 23.5zm73.3 23.5l76.7 24.5c-25.9 0-51.4-12.3-76.7-24.5zm153.4 0c24.5-11.8 48.9-23.5 73.3-23.5zm-76.7 24.5l76.7-24.5c-25.3 12.2-50.8 24.5-76.7 24.5zm-150-66c24.4 0 48.8 11.7 73.4 23.5zm73.3 23.5l76.7 24.5c-25.9 0-51.4-12.3-76.7-24.5zm153.3 0c24.6-11.8 49-23.5 73.4-23.5zm-76.7 24.5l76.7-24.5c-25.3 12.2-50.8 24.5-76.7 24.5zm-150 6c24.4 0 48.8 11.7 73.3 23.5zm73.3 23.5l76.7 24.5c-25.9 0-51.4-12.3-76.7-24.5zm153.4 0c24.5-11.8 48.9-23.5 73.3-23.5zm-76.7 24.5l76.7-24.5c-25.3 12.2-50.8 24.5-76.7 24.5zm-150-30c24.4 0 48.8 11.7 73.4 23.5zm73.3 23.5l76.7 24.5c-25.9 0-51.4-12.3-76.7-24.5zm153.3 0c24.6-11.8 49-23.5 73.4-23.5zm-76.7 24.5l76.7-24.5c-25.3 12.2-50.8 24.5-76.7 24.5z"/>
	<path id="Layer copy 83" fill-rule="evenodd" class="s0" d="m1946.9 888.6c-51 0-100.4-48-150-48m226.7 23.5c24.6-11.8 49-23.5 73.3-23.5zm-76.6 24.5l76.6-24.5c-25.3 12.2-50.7 24.5-76.6 24.5zm-150-66c24.4 0 48.7 11.7 73.3 23.5zm73.3 23.5l76.7 24.5c-25.9 0-51.4-12.3-76.7-24.5zm153.4 0c24.5-11.8 48.9-23.5 73.3-23.5zm-76.7 24.5l76.7-24.5c-25.3 12.2-50.8 24.5-76.7 24.5zm-150-66c24.4 0 48.8 11.7 73.4 23.5zm73.3 23.5l76.7 24.5c-25.9 0-51.4-12.3-76.7-24.5zm153.3 0c24.6-11.8 49-23.5 73.4-23.5zm-76.7 24.5l76.7-24.5c-25.3 12.2-50.8 24.5-76.7 24.5zm-150 6c24.4 0 48.8 11.7 73.3 23.5zm73.3 23.5l76.7 24.5c-25.9 0-51.4-12.3-76.7-24.5zm153.4 0c24.5-11.8 48.9-23.5 73.3-23.5zm-76.7 24.5l76.7-24.5c-25.3 12.2-50.8 24.5-76.7 24.5zm-150-30c24.4 0 48.8 11.7 73.4 23.5zm73.3 23.5l76.7 24.5c-25.9 0-51.4-12.3-76.7-24.5zm153.3 0c24.6-11.8 49-23.5 73.4-23.5zm-76.7 24.5l76.7-24.5c-25.3 12.2-50.8 24.5-76.7 24.5z"/>
</svg>